<svg width="18" height="18" viewBox="0 0 18 18" fill="none" xmlns="http://www.w3.org/2000/svg">
<path d="M5.25 11.1248C5.3583 12.4664 6.43275 13.5112 8.35935 13.635V14.625H9.21435V13.628C11.2093 13.4902 12.375 12.4383 12.375 10.9111C12.375 9.52313 11.4829 8.80734 9.88838 8.43609L9.21435 8.27859V5.58281C10.0693 5.67844 10.6137 6.13969 10.7448 6.77813H12.2439C12.1356 5.48578 11.0127 4.47469 9.21435 4.365V3.375H8.35935V4.38609C6.65648 4.55062 5.4951 5.56172 5.4951 6.99188C5.4951 8.2575 6.35865 9.06188 7.79362 9.39234L8.35935 9.53016V12.3905C7.48298 12.2597 6.903 11.7858 6.7719 11.1248H5.25ZM8.35222 8.07891C7.51148 7.88625 7.05548 7.49391 7.05548 6.90328C7.05548 6.24234 7.5471 5.74734 8.35935 5.6025V8.0775L8.35222 8.07891ZM9.33833 9.75656C10.3601 9.99 10.8317 10.3683 10.8317 11.0362C10.8317 11.7984 10.2446 12.3216 9.21435 12.4172V9.72844L9.33833 9.75656Z" fill="#F1DC19"/>
<path d="M9 16.875C6.91142 16.875 4.90838 16.0453 3.43153 14.5685C1.95469 13.0916 1.125 11.0886 1.125 9C1.125 6.91142 1.95469 4.90838 3.43153 3.43153C4.90838 1.95469 6.91142 1.125 9 1.125C11.0886 1.125 13.0916 1.95469 14.5685 3.43153C16.0453 4.90838 16.875 6.91142 16.875 9C16.875 11.0886 16.0453 13.0916 14.5685 14.5685C13.0916 16.0453 11.0886 16.875 9 16.875ZM9 18C11.3869 18 13.6761 17.0518 15.364 15.364C17.0518 13.6761 18 11.3869 18 9C18 6.61305 17.0518 4.32387 15.364 2.63604C13.6761 0.948212 11.3869 0 9 0C6.61305 0 4.32387 0.948212 2.63604 2.63604C0.948212 4.32387 0 6.61305 0 9C0 11.3869 0.948212 13.6761 2.63604 15.364C4.32387 17.0518 6.61305 18 9 18Z" fill="#F1DC19"/>
</svg>
