<svg width="26" height="26" viewBox="0 0 26 26" fill="none" xmlns="http://www.w3.org/2000/svg">
<path d="M20.6022 20.8279C20.2606 19.4748 19.4772 18.2744 18.3763 17.4167C17.2753 16.559 15.9198 16.0932 14.5242 16.0929H11.3811C9.98562 16.0933 8.63011 16.5593 7.52922 17.4169C6.42833 18.2745 5.64496 19.4749 5.30314 20.8279C3.73657 19.3055 2.65988 17.3504 2.21074 15.2126C1.7616 13.0749 1.96055 10.8517 2.78203 8.82766C3.60351 6.80357 5.01013 5.07061 6.82207 3.85052C8.634 2.63042 10.7687 1.97867 12.9532 1.97867C15.1376 1.97867 17.2723 2.63042 19.0843 3.85052C20.8962 5.07061 22.303 6.80357 23.1244 8.82766C23.9459 10.8517 24.1449 13.0749 23.6957 15.2126C23.2466 17.3504 22.1688 19.3055 20.6022 20.8279ZM19.2022 21.9749C17.3644 23.25 15.1811 23.9333 12.9443 23.9333C10.7075 23.9333 8.52398 23.25 6.6862 21.9749C6.78426 20.7978 7.32106 19.7005 8.19011 18.9005C9.05916 18.1006 10.197 17.6563 11.3782 17.6559H14.5212C15.7018 17.6582 16.8388 18.103 17.7074 18.9026C18.5761 19.7022 19.1133 20.7985 19.2132 21.9749H19.2022ZM12.9493 25.5039C15.8535 25.5046 18.668 24.4983 20.9134 22.6564C23.1587 20.8144 24.6958 18.2509 25.2629 15.4026C25.8299 12.5543 25.3916 9.59746 24.0229 7.03605C22.6541 4.47464 20.4395 2.46712 17.7564 1.35561C15.0733 0.244087 12.0879 0.0973495 9.30876 0.940399C6.52962 1.78345 4.12878 3.56411 2.51543 5.97895C0.902072 8.39379 0.176016 11.2934 0.460982 14.1835C0.745948 17.0737 2.02427 19.7757 4.07817 21.8289C6.43262 24.1805 9.62453 25.5009 12.9522 25.4999L12.9493 25.5039ZM12.9493 12.9549C12.3252 12.9549 11.7266 12.707 11.2853 12.2657C10.844 11.8245 10.5962 11.226 10.5962 10.6019C10.5962 9.97785 10.844 9.37935 11.2853 8.93808C11.7266 8.49681 12.3252 8.24891 12.9493 8.24891C13.5733 8.24891 14.1718 8.49681 14.6131 8.93808C15.0544 9.37935 15.3022 9.97785 15.3022 10.6019C15.3022 11.226 15.0544 11.8245 14.6131 12.2657C14.1718 12.707 13.5733 12.9549 12.9493 12.9549ZM9.03215 10.6019C9.03153 11.3771 9.26098 12.1351 9.69133 12.78C10.1217 13.4248 10.7336 13.9274 11.4498 14.2243C12.1659 14.5212 12.954 14.599 13.7144 14.4478C14.4747 14.2966 15.1732 13.9232 15.7212 13.3749C16.0945 13.013 16.392 12.5804 16.5965 12.1025C16.801 11.6245 16.9083 11.1106 16.9124 10.5907C16.9165 10.0709 16.8172 9.55536 16.6202 9.07424C16.4232 8.59312 16.1323 8.15599 15.7648 7.78827C15.3973 7.42055 14.9604 7.12959 14.4794 6.93232C13.9984 6.73505 13.4829 6.63541 12.9631 6.63919C12.4432 6.64297 11.9292 6.7501 11.4511 6.95435C10.973 7.15859 10.5403 7.45588 10.1781 7.82891C9.81383 8.19224 9.52522 8.62424 9.32902 9.09989C9.13282 9.57554 9.03299 10.0854 9.0352 10.5999L9.03215 10.6019Z" fill="white" stroke="white" stroke-width="0.8"/>
</svg>
