<svg width="16" height="18" viewBox="0 0 16 18" fill="none" xmlns="http://www.w3.org/2000/svg">
<path d="M14.7716 9.37676C14.9887 9.15869 15.1106 8.86354 15.1106 8.5559C15.1106 8.24827 14.9887 7.95318 14.7716 7.73511L7.37421 0.340602C7.1563 0.122637 6.8607 9.45844e-05 6.55242 5.47254e-08C6.24415 -9.4475e-05 5.94843 0.122279 5.73038 0.340109C5.51233 0.55794 5.3898 0.853424 5.38971 1.16158C5.38961 1.46973 5.51197 1.76527 5.72989 1.98323L12.3052 8.5559L5.72989 15.1296C5.51734 15.3487 5.39954 15.6424 5.40196 15.9476C5.40438 16.2527 5.52683 16.5447 5.74282 16.7603C5.95881 16.976 6.25103 17.098 6.5563 17.1001C6.86157 17.1021 7.15535 16.984 7.37421 16.7713L14.7716 9.37676ZM0 8.5559V9.71761H13.9485V7.39827H0V8.5559Z" fill="white"/>
</svg>
