<svg width="16" height="18" viewBox="0 0 16 18" fill="none" xmlns="http://www.w3.org/2000/svg">
<path d="M0.33895 9.37676C0.121864 9.15869 0 8.86354 0 8.5559C0 8.24827 0.121864 7.95318 0.33895 7.73511L7.73638 0.340602C7.95429 0.122637 8.24989 9.45844e-05 8.55817 5.47254e-08C8.86644 -9.4475e-05 9.16216 0.122279 9.38021 0.340109C9.59826 0.55794 9.72079 0.853424 9.72088 1.16158C9.72098 1.46973 9.59862 1.76527 9.3807 1.98323L2.80544 8.5559L9.3807 15.1296C9.59325 15.3487 9.71105 15.6424 9.70863 15.9476C9.70621 16.2527 9.58377 16.5447 9.36777 16.7603C9.15178 16.976 8.85956 17.098 8.55429 17.1001C8.24902 17.1021 7.95524 16.984 7.73638 16.7713L0.33895 9.37676ZM15.1106 8.5559V9.71761H1.1621V7.39827H15.1106V8.5559Z" fill="white"/>
</svg>
