<svg width="11" height="11" viewBox="0 0 11 11" fill="none" xmlns="http://www.w3.org/2000/svg">
<path d="M9.90114 3.69057C9.81517 3.77078 9.73221 3.85354 9.65026 3.93731C9.51011 3.18002 9.2039 2.45595 8.64679 1.81006C7.1409 0.0639629 4.42385 -0.637743 2.44149 0.693358C0.680614 1.87548 -0.287425 4.11254 0.0757279 6.17046C0.479549 8.4592 2.35629 10.5768 4.9713 10.2691C6.39555 10.1017 7.67645 9.39893 8.57218 8.38082C8.59051 8.36452 8.6068 8.34665 8.62296 8.32832C8.64266 8.30586 8.6609 8.2826 8.67694 8.25727C8.71269 8.20065 8.74034 8.13854 8.75352 8.07013L8.76462 8.01306C8.82468 7.70125 8.60152 7.38836 8.27412 7.32521C8.08192 7.28806 7.89262 7.34606 7.75565 7.46193C7.70121 7.5079 7.65641 7.56313 7.62227 7.62571C7.6147 7.6398 7.60529 7.65275 7.59888 7.66755C7.59613 7.66607 7.59293 7.66458 7.59017 7.66297C6.7044 8.67744 5.36583 9.34235 3.97575 9.08509C1.67801 8.65943 0.856537 6.01553 1.40455 4.10405C1.87759 2.45387 3.45144 0.78835 5.42284 1.20321C6.59952 1.45088 7.80537 2.27784 8.24694 3.38034C8.29301 3.4954 8.33243 3.61092 8.3666 3.72713C8.2058 3.59305 8.03679 3.46721 7.86007 3.35123C7.58329 3.16971 7.23546 3.13967 6.99869 3.39799C6.80135 3.61323 6.78623 4.04045 7.06322 4.22211C7.43409 4.46542 7.75702 4.74288 8.03803 5.05769C8.20797 5.24806 8.36211 5.4526 8.50102 5.67264C8.5314 5.72089 8.56245 5.76856 8.59145 5.8183C8.73206 6.05942 8.95395 6.12634 9.16091 6.08292C9.32742 6.08165 9.4898 6.02221 9.58723 5.89016C9.65394 5.79997 9.72271 5.71162 9.79123 5.62303C9.86573 5.52676 9.94217 5.43222 10.0193 5.33835C10.2704 5.03352 10.5353 4.74024 10.8271 4.46817C11.387 3.94555 10.4554 3.17348 9.90114 3.69057Z" fill="black"/>
</svg>
