<svg width="25" height="23" viewBox="0 0 25 23" fill="none" xmlns="http://www.w3.org/2000/svg">
<path d="M5.38649 1.52685C9.74545 -1.40252 15.7558 0.134266 19.1059 4.00345C20.2525 5.34104 21.0167 6.96305 21.3182 8.6985L21.3737 9.0111L21.5937 8.7832C21.7813 8.59564 21.9679 8.41312 22.1556 8.23565C22.3968 8.01712 22.7106 7.89608 23.0362 7.89608C23.3617 7.89608 23.6757 8.01712 23.9169 8.23565C24.1389 8.41331 24.2879 8.66631 24.3356 8.94656C24.352 9.09518 24.3303 9.24554 24.2726 9.38349C24.2149 9.52144 24.1231 9.64245 24.0057 9.73512C23.5148 10.1964 23.0481 10.6828 22.6075 11.1922L22.1777 11.7035C22.0012 11.9142 21.8368 12.128 21.6603 12.3458C21.5059 12.5475 21.3526 12.7431 21.2093 12.9509C21.1084 13.0702 20.9816 13.1651 20.8387 13.2283C20.6957 13.2916 20.5404 13.3215 20.3842 13.3159H20.3619H20.3508C20.136 13.3665 19.9104 13.3431 19.7106 13.2493C19.5108 13.1556 19.3486 12.9971 19.2503 12.7996C19.1847 12.6847 19.107 12.5727 19.0414 12.4678C18.2697 11.2507 17.2632 10.1993 16.0807 9.37512L15.7619 9.16336C15.6391 9.07701 15.539 8.96237 15.47 8.82914C15.401 8.69591 15.3651 8.54803 15.3654 8.398C15.3525 8.0939 15.4549 7.79613 15.6519 7.56406C15.877 7.3405 16.1772 7.20863 16.4942 7.19409C16.8112 7.17955 17.1222 7.28339 17.3668 7.48541C17.7582 7.73887 18.1332 8.01673 18.4896 8.31733L18.9083 8.66522L18.7539 8.14388C18.677 7.87473 18.5851 7.61012 18.4785 7.35129C17.8665 6.07521 16.9643 4.95989 15.8441 4.09443C14.724 3.22897 13.417 2.63735 12.0273 2.36683C10.989 2.15483 9.91583 2.18445 8.89077 2.45337C7.8657 2.7223 6.91623 3.22334 6.11587 3.91773C4.40129 5.34273 3.19926 7.28849 2.6925 9.45908C2.18574 11.6297 2.40201 13.9063 3.30846 15.9427C3.76784 17.0742 4.50294 18.0728 5.44696 18.8477C6.39098 19.6226 7.51384 20.1493 8.71344 20.3797C10.2323 20.5993 11.7822 20.4252 13.2144 19.8741C14.6466 19.323 15.9132 18.4134 16.8927 17.2325L16.9583 17.2678L17.0248 17.1034C17.0248 17.0974 17.0359 17.0883 17.0359 17.0742C17.0488 17.0579 17.0601 17.0403 17.0693 17.0217C17.1353 16.8984 17.2251 16.7894 17.3336 16.7011C17.4734 16.5827 17.6378 16.4969 17.8149 16.45C17.992 16.4031 18.1774 16.3962 18.3575 16.4298C18.6633 16.4834 18.936 16.6547 19.117 16.9069C19.2981 17.1591 19.373 17.4722 19.3259 17.779L19.3037 17.9071C19.2791 18.0378 19.2265 18.1617 19.1494 18.2701L19.0484 18.4083C19.0176 18.4445 18.9838 18.4782 18.9476 18.5091L18.9365 18.5151L18.9254 18.5232C16.8731 20.8486 14.0362 22.3375 10.956 22.706C5.19886 23.3826 1.03768 18.7269 0.145912 13.6446C-0.211472 11.3364 0.0908093 8.97423 1.01801 6.8303C1.94521 4.68636 3.45953 2.84792 5.38649 1.52685Z" fill="white"/>
</svg>
