<svg width="10" height="12" viewBox="0 0 10 12" fill="none" xmlns="http://www.w3.org/2000/svg">
<path d="M9.53101 6.04379C9.67121 5.90303 9.74994 5.71249 9.74994 5.51382C9.74994 5.31515 9.67121 5.12454 9.53101 4.98379L4.758 0.21078C4.61661 0.074093 4.42718 -0.00159014 4.23053 2.53402e-05C4.03388 0.00164082 3.84573 0.0804556 3.7066 0.219447C3.56748 0.358438 3.48856 0.546481 3.48676 0.743128C3.48495 0.939776 3.56047 1.12932 3.69702 1.27084L7.94 5.51382L3.69702 9.7568C3.56047 9.89832 3.48495 10.0878 3.48676 10.2844C3.48856 10.4811 3.56748 10.6692 3.7066 10.8082C3.84573 10.9472 4.03388 11.0259 4.23053 11.0276C4.42718 11.0292 4.61661 10.9535 4.758 10.8168L9.53101 6.04379ZM0 5.51382V6.26382H9V4.76382H0V5.51382Z" fill="white"/>
</svg>
