<?xml version="1.0" encoding="UTF-8"?>
<svg version="1.1" xmlns="http://www.w3.org/2000/svg" width="17" height="17">
<path d="M0 0 C3.87132028 0.57352893 6.08172796 2.48704352 9 5 C10.65 3.35 12.3 1.7 14 0 C14.99 0.33 15.98 0.66 17 1 C15.35 2.98 13.7 4.96 12 7 C13.29299694 9.88437779 14.65941363 11.87219421 17 14 C16.67 14.99 16.34 15.98 16 17 C13.11562221 15.70700306 11.12780579 14.34058637 9 12 C6.04590299 13.37154504 3.55991624 14.98863724 1 17 C1 12.31908701 1.99645871 11.37898396 5 8 C3.7625 6.8553125 3.7625 6.8553125 2.5 5.6875 C0 3 0 3 0 0 Z " fill="#FFFFFF" transform="translate(0,0)"/>
</svg>
