<svg xmlns="http://www.w3.org/2000/svg" width="13.572" height="15.171" viewBox="0 0 13.572 15.171">
  <g id="trash" transform="translate(-22.493 0.5)">
    <g id="Group_726" data-name="Group 726" transform="translate(22.993 0)">
      <g id="Group_725" data-name="Group 725" transform="translate(0 0)">
        <path id="Path_1603" data-name="Path 1603" d="M70.576,114.908H61.383a.363.363,0,0,0-.273.091.309.309,0,0,0-.091.273l.945,8.23a1.8,1.8,0,0,0,1.8,1.581h4.578a1.8,1.8,0,0,0,1.817-1.635l.781-8.212a.309.309,0,0,0-.091-.236A.363.363,0,0,0,70.576,114.908Zm-1.145,8.5a1.054,1.054,0,0,1-1.09.945H63.763a1.036,1.036,0,0,1-1.072-.927l-.908-7.794h8.393Z" transform="translate(-59.693 -110.911)" fill="#fff" stroke="#fff" stroke-width="1"/>
        <path id="Path_1604" data-name="Path 1604" d="M35.2,1.635H31.459V1.054A1.017,1.017,0,0,0,30.479,0H28.134A1.017,1.017,0,0,0,27.1,1q0,.028,0,.055v.581H23.356a.363.363,0,1,0,0,.727H35.2a.363.363,0,1,0,0-.727Zm-4.469-.581v.581H27.825V1.054a.291.291,0,0,1,.309-.327h2.289a.291.291,0,0,1,.31.269A.287.287,0,0,1,30.732,1.054Z" transform="translate(-22.993 0)" fill="#fff" stroke="#fff" stroke-width="1"/>
      </g>
    </g>
  </g>
</svg>
