<svg width="16" height="18" viewBox="0 0 16 18" fill="none" xmlns="http://www.w3.org/2000/svg">
<path d="M5.93604 8.52808V12.8491" stroke="#E63833" stroke-width="1.5" stroke-linecap="round" stroke-linejoin="round"/>
<path d="M9.39307 8.52808V12.8491" stroke="#E63833" stroke-width="1.5" stroke-linecap="round" stroke-linejoin="round"/>
<path d="M0.75 4.20703H14.578" stroke="#E63833" stroke-width="1.5" stroke-linecap="round" stroke-linejoin="round"/>
<path d="M2.479 6.80005V13.714C2.479 14.4018 2.75219 15.0613 3.23848 15.5476C3.72476 16.0339 4.3843 16.307 5.072 16.307H10.258C10.9457 16.307 11.6052 16.0339 12.0915 15.5476C12.5778 15.0613 12.851 14.4018 12.851 13.714V6.80005" stroke="#E63833" stroke-width="1.5" stroke-linecap="round" stroke-linejoin="round"/>
<path d="M5.0708 2.479C5.0708 2.02044 5.25296 1.58066 5.57721 1.25641C5.90146 0.932162 6.34124 0.75 6.7998 0.75H8.5288C8.98736 0.75 9.42714 0.932162 9.75139 1.25641C10.0756 1.58066 10.2578 2.02044 10.2578 2.479V4.207H5.0708V2.479Z" stroke="#E63833" stroke-width="1.5" stroke-linecap="round" stroke-linejoin="round"/>
</svg>
