<svg width="24" height="21" viewBox="0 0 24 21" fill="none" xmlns="http://www.w3.org/2000/svg">
<path d="M18.249 3.24007C17.9386 2.91209 17.5122 2.71862 17.061 2.70107H16.201V1.62007C16.2084 1.40512 16.1715 1.19094 16.0925 0.99089C16.0135 0.790839 15.8941 0.609203 15.7419 0.457306C15.5896 0.305408 15.4077 0.186506 15.2074 0.108012C15.0072 0.0295184 14.7929 -0.0068848 14.578 0.00107206H1.61996C1.40536 -0.00632271 1.19153 0.0304967 0.991758 0.109242C0.791987 0.187987 0.610545 0.306976 0.458707 0.458814C0.306869 0.610652 0.18788 0.792094 0.109135 0.991865C0.0303896 1.19164 -0.0064298 1.40547 0.000964961 1.62007V16.2011C-0.006578 16.4158 0.0301657 16.6299 0.108909 16.8298C0.187652 17.0298 0.30671 17.2114 0.458671 17.3634C0.610632 17.5153 0.792245 17.6344 0.992204 17.7131C1.19216 17.7919 1.40619 17.8286 1.62096 17.8211H2.86196C3.09665 18.5978 3.57513 19.2784 4.22662 19.7622C4.87812 20.2459 5.66802 20.5071 6.47947 20.5071C7.29092 20.5071 8.08081 20.2459 8.73231 19.7622C9.3838 19.2784 9.86228 18.5978 10.097 17.8211H13.66C13.8946 18.5978 14.3731 19.2784 15.0246 19.7622C15.6761 20.2459 16.466 20.5071 17.2775 20.5071C18.0889 20.5071 18.8788 20.2459 19.5303 19.7622C20.1818 19.2784 20.6603 18.5978 20.895 17.8211H22.137C22.3517 17.8286 22.5658 17.7919 22.7657 17.7131C22.9657 17.6344 23.1473 17.5153 23.2993 17.3634C23.4512 17.2114 23.5703 17.0298 23.649 16.8298C23.7278 16.6299 23.7645 16.4158 23.757 16.2011V9.28707L18.249 3.24007ZM16.791 4.85907L20.732 9.17807H16.201V4.85907H16.791ZM6.47896 18.3571C6.15856 18.3571 5.84535 18.2621 5.57894 18.0841C5.31253 17.906 5.10489 17.653 4.98228 17.357C4.85967 17.061 4.82758 16.7353 4.89009 16.421C4.9526 16.1068 5.10689 15.8181 5.33345 15.5916C5.56001 15.365 5.84867 15.2107 6.16292 15.1482C6.47717 15.0857 6.8029 15.1178 7.09891 15.2404C7.39493 15.363 7.64794 15.5706 7.82595 15.837C8.00395 16.1035 8.09896 16.4167 8.09896 16.7371C8.10651 16.9518 8.06976 17.1659 7.99102 17.3658C7.91228 17.5658 7.79322 17.7474 7.64126 17.8994C7.4893 18.0513 7.30768 18.1704 7.10773 18.2491C6.90777 18.3279 6.69374 18.3646 6.47896 18.3571ZM17.279 18.3571C16.9586 18.3571 16.6453 18.2621 16.3789 18.0841C16.1125 17.906 15.9049 17.653 15.7823 17.357C15.6597 17.061 15.6276 16.7353 15.6901 16.421C15.7526 16.1068 15.9069 15.8181 16.1335 15.5916C16.36 15.365 16.6487 15.2107 16.9629 15.1482C17.2772 15.0857 17.6029 15.1178 17.8989 15.2404C18.1949 15.363 18.4479 15.5706 18.6259 15.837C18.804 16.1035 18.899 16.4167 18.899 16.7371C18.9065 16.9518 18.8698 17.1659 18.791 17.3658C18.7123 17.5658 18.5932 17.7474 18.4413 17.8994C18.2893 18.0513 18.1077 18.1704 17.9077 18.2491C17.7078 18.3279 17.4937 18.3646 17.279 18.3571Z" fill="#3B7E48"/>
</svg>
