<?xml version="1.0" encoding="UTF-8"?>
<svg version="1.1" xmlns="http://www.w3.org/2000/svg" width="340" height="360">
<path d="M0 0 C11.93557471 -0.39773917 23.37717039 0.82755224 35.1875 2.4375 C36.96408382 2.67075271 38.74077633 2.90317917 40.51757812 3.13476562 C42.21364025 3.3586294 43.90960773 3.58321161 45.60546875 3.80859375 C46.39084518 3.91280136 47.17622162 4.01700897 47.98539734 4.12437439 C51.38243806 4.58852377 54.68544713 5.12711199 58 6 C57.46926469 23.89628754 55.9859048 41.66564265 54.26918817 59.47908664 C54.04793488 61.77563831 53.82792771 64.07230655 53.6082058 66.3690052 C52.91579722 73.60010811 52.21806862 80.83067017 51.51301414 88.06055111 C50.70699349 96.32705081 49.91966822 104.59505834 49.14797336 112.86483139 C48.54435713 119.32053757 47.92361253 125.77446012 47.29032201 132.22732216 C46.91504643 136.05513873 46.54667374 139.8832922 46.196558 143.71349907 C43.47006113 173.41806061 43.47006113 173.41806061 37 187 C36.15633262 189.10423364 35.32359102 191.21292306 34.5078125 193.328125 C33.7153277 195.30280105 32.92104232 197.27675539 32.125 199.25 C31.25518815 201.41535647 30.38539674 203.58072116 29.515625 205.74609375 C29.09087891 206.8016748 28.66613281 207.85725586 28.22851562 208.94482422 C26.43776183 213.39822108 24.65627678 217.85530618 22.875 222.3125 C22.2370352 223.9075745 21.59901455 225.50262665 20.9609375 227.09765625 C20.64479492 227.8880127 20.32865234 228.67836914 20.00292969 229.49267578 C17.00195312 236.99511719 14.00097656 244.49755859 11 252 C9.52080078 251.67128906 9.52080078 251.67128906 8.01171875 251.3359375 C7.34092285 251.18697021 6.67012695 251.03800293 5.97900391 250.88452148 C4.39908397 250.53322243 2.81934175 250.18112345 1.23974609 249.82836914 C-3.38983316 248.79586993 -8.02194739 247.7782117 -12.66015625 246.78515625 C-28.18002288 243.43444657 -43.5706637 239.65021805 -58.9644165 235.76818848 C-70.03873961 232.97567353 -81.11149021 230.21447663 -92.25 227.6875 C-100.66305295 225.77600186 -109.05956719 223.81069112 -117.4375 221.75 C-118.45811523 221.50338623 -119.47873047 221.25677246 -120.53027344 221.00268555 C-121.93647949 220.65330933 -121.93647949 220.65330933 -123.37109375 220.296875 C-124.19536865 220.09416992 -125.01964355 219.89146484 -125.86889648 219.68261719 C-128 219 -128 219 -131 217 C-131.76490784 214.72099304 -131.76490784 214.72099304 -132.31860352 211.83862305 C-132.53214981 210.75957199 -132.74569611 209.68052094 -132.9657135 208.56877136 C-133.18456711 207.394944 -133.40342072 206.22111664 -133.62890625 205.01171875 C-133.86407455 203.80240189 -134.09924286 202.59308502 -134.34153748 201.34712219 C-134.96633385 198.12004797 -135.5799348 194.89109732 -136.18859863 191.66094971 C-136.80220273 188.42235008 -137.43252755 185.18700192 -138.06054688 181.95117188 C-144.16649289 150.27845808 -144.16649289 150.27845808 -144 142 C-141.31447489 141.22172067 -138.62683088 140.452436 -135.9375 139.6875 C-135.20466797 139.47416016 -134.47183594 139.26082031 -133.71679688 139.04101562 C-128.94624499 137.6923786 -124.17762087 136.61776756 -119.30859375 135.68359375 C-109.83147508 133.83394917 -100.48670889 131.48448624 -91.12451172 129.12890625 C-88.08301595 128.3644476 -85.03966492 127.60771112 -81.99609375 126.8515625 C-80.06238642 126.36764114 -78.12878834 125.88328294 -76.1953125 125.3984375 C-74.82996872 125.05937881 -74.82996872 125.05937881 -73.43704224 124.71347046 C-72.18840897 124.39776596 -72.18840897 124.39776596 -70.91455078 124.07568359 C-70.18035919 123.891539 -69.4461676 123.70739441 -68.68972778 123.51766968 C-66.98290873 123.13922912 -66.98290873 123.13922912 -66 122 C-66.4044404 119.21889112 -66.87773872 116.48497453 -67.40625 113.7265625 C-67.56641098 112.86793106 -67.72657196 112.00929962 -67.8915863 111.12464905 C-68.42210355 108.29034517 -68.96106564 105.45771435 -69.5 102.625 C-69.86697708 100.67039619 -70.23359221 98.71572439 -70.59985352 96.76098633 C-72.35324737 87.44285594 -74.15473156 78.13625632 -76.05859375 68.84765625 C-76.21893097 68.06219421 -76.37926819 67.27673218 -76.54446411 66.46746826 C-77.29278411 62.80763688 -78.05092577 59.1503899 -78.828125 55.49658203 C-79.10313123 54.16834945 -79.37788456 52.84006448 -79.65234375 51.51171875 C-79.88945068 50.39240967 -80.12655762 49.27310059 -80.37084961 48.11987305 C-81.2863256 42.12505062 -81.567935 36.04890999 -82 30 C-63.52 25.38 -45.04 20.76 -26 16 C-22.42003044 31.51320143 -22.42003044 31.51320143 -21.0625 38.3125 C-20.89484131 39.14950439 -20.72718262 39.98650879 -20.55444336 40.84887695 C-19.06272302 48.42999044 -17.81432094 56.04474927 -16.5793457 63.67114258 C-14.69025174 75.17356399 -12.35849558 86.5860461 -10 98 C-9.67 98 -9.34 98 -9 98 C-7.49607841 83.17778284 -6.03216957 68.36826679 -5.0625 53.5 C-3.88633744 35.62021945 -1.9056608 17.81390635 0 0 Z M-56 145 C-58.7308954 149.4214497 -58.02323896 153.11993725 -57 158 C-55.41953681 160.13018952 -54.3522947 160.82385265 -52 162 C-48.58428147 162.50031206 -48.58428147 162.50031206 -45 162 C-42.22591265 159.51792184 -41.1894485 157.59360531 -40.0625 154.0625 C-39.98421955 150.22675807 -40.95453299 148.21430529 -43 145 C-47.23523349 142.176511 -51.7791891 141.83439183 -56 145 Z M-16 151.375 C-18.37100378 154.78381688 -18.49034011 157.88782799 -18.37109375 161.94921875 C-18.08567267 164.30231141 -18.08567267 164.30231141 -16 167 C-13.68414356 167.6957686 -13.68414356 167.6957686 -11.0625 167.875 C-10.18722656 167.97554687 -9.31195313 168.07609375 -8.41015625 168.1796875 C-5.95277312 168.21954963 -5.95277312 168.21954963 -4.26171875 166.65234375 C-1.81130534 163.44328841 -0.93935586 160.99052088 -1.1875 156.9375 C-2.06638848 153.7599801 -2.50931229 152.16930865 -5 150 C-9.60789991 148.2707881 -12.08277099 148.27386037 -16 151.375 Z " fill="#34B8B2" transform="translate(209,12)"/>
<path d="M0 0 C4.29 0.33 8.58 0.66 13 1 C13.33 1.99 13.66 2.98 14 4 C14.598125 3.34 15.19625 2.68 15.8125 2 C20.41513513 -0.88792792 24.69253511 -0.50116929 30 0 C30.99 0.33 31.98 0.66 33 1 C34 4 34 4 34 6 C34.7425 5.38125 35.485 4.7625 36.25 4.125 C42.56380665 -0.75385059 48.15733358 -0.74200077 56 0 C62.2673445 1.69086677 66.41350516 5.71463919 70 11 C71.375 13.9375 71.375 13.9375 72 16 C74.13665513 13.03106658 74.13665513 13.03106658 75.375 9.4375 C77.14526292 5.69271306 77.47234063 5.53234742 81 4 C81.83337891 3.47019531 81.83337891 3.47019531 82.68359375 2.9296875 C88.83833038 -0.77137907 94.98183637 -0.85201736 102 0 C108.19838472 1.70329596 112.52351493 5.6745563 116 11 C119.13496242 17.29154527 118.78344025 24.17987283 118 31 C115.93730003 36.87717822 112.23010812 42.20637278 106.66796875 45.21875 C99.3117196 47.37284931 89.20469486 47.85771675 82.3125 44.125 C77.97735221 40.74886911 75.46781575 35.81411026 73 31 C71.55532229 32.89302597 70.14395201 34.77519823 68.859375 36.78125 C68.49328125 37.3484375 68.1271875 37.915625 67.75 38.5 C67.39421875 39.0671875 67.0384375 39.634375 66.671875 40.21875 C63.0811244 44.04440952 59.05175051 46.1349306 53.87890625 46.6015625 C52.44058079 46.63940884 51.00116166 46.64656624 49.5625 46.625 C48.43871948 46.61460693 48.43871948 46.61460693 47.29223633 46.60400391 C41.98093607 46.39421769 38.3923791 45.47629418 34.44140625 41.7109375 C27.43247893 33.39139775 26.69231834 26.56373716 27 16 C23.98131566 14.49065783 21.32702771 14.82489328 18 15 C17.01 15.66 16.02 16.32 15 17 C14.48815355 20.00414569 14.48815355 20.00414569 14.48828125 23.5390625 C14.45283203 24.84101563 14.41738281 26.14296875 14.38085938 27.484375 C14.35775769 28.86457809 14.33497536 30.24478657 14.3125 31.625 C14.27933555 33.01305352 14.2448467 34.40107607 14.20898438 35.7890625 C14.12625885 39.19262707 14.05718743 42.5959259 14 46 C10.04 46 6.08 46 2 46 C1.97494385 44.96182129 1.9498877 43.92364258 1.92407227 42.85400391 C1.82905912 38.95872122 1.72907781 35.06357846 1.62768555 31.16845703 C1.58468822 29.49075623 1.54299277 27.81302149 1.50268555 26.13525391 C1.29148858 17.37970553 1.05471342 8.70360153 0 0 Z M40 18 C38.60713547 21.91743149 38.92494565 23.76298628 40.1875 27.75 C41.70782433 30.92049061 41.70782433 30.92049061 43.6875 32.4375 C48.53111133 33.61567573 52.4627531 33.71956238 56.9375 31.625 C59.24698552 29.80540535 59.87619333 28.90025134 60.2734375 26.01171875 C60.45602853 21.83319314 60.35549816 19.580647 58.125 15.9375 C52.13587095 12.22423999 44.68156034 12.26131313 40 18 Z M86 18 C84.60713547 21.91743149 84.92494565 23.76298628 86.1875 27.75 C87.70459418 30.93598245 87.70459418 30.93598245 89.75 32.4375 C94.04160173 33.51040043 97.63649813 33.48480066 101.8125 32 C104.95505689 29.12680513 105.6803467 26.1882779 106 22 C105.32728183 18.97276825 104.44203424 17.51275971 102.4375 15.1875 C96.6032831 12.3451892 90.27340096 12.92533636 86 18 Z " fill="#34B8B2" transform="translate(217,302)"/>
<path d="M0 0 C4.62 0 9.24 0 14 0 C14.33 21.12 14.66 42.24 15 64 C10.71 64 6.42 64 2 64 C1.34 63.01 0.68 62.02 0 61 C-0.68191406 61.48597656 -1.36382812 61.97195313 -2.06640625 62.47265625 C-7.37642587 65.23726034 -13.16514027 64.61094414 -19 64 C-24.41811689 61.52857826 -28.42403916 57.12427325 -31.11328125 51.79296875 C-33.3840272 44.64061917 -33.4079407 34.63509742 -30.0625 27.875 C-26.93533829 23.32401885 -23.15168019 20.03904583 -18 18 C-11.07698737 16.94439452 -7.07620565 17.35427661 -1 21 C-0.67 14.07 -0.34 7.14 0 0 Z M-19 36 C-19.98360694 38.73547493 -20.29992854 41.10624505 -20 44 C-17.78770444 48.27480669 -17.78770444 48.27480669 -14 51 C-8.65290626 51.3506291 -5.37127693 51.44403637 -1 48 C0.74601232 44.50797535 0.55838804 40.81017721 0 37 C-1.75 33.75 -1.75 33.75 -5 32 C-10.60633738 30.86453926 -15.27070881 31.33838602 -19 36 Z " fill="#34B8B2" transform="translate(39,284)"/>
<path d="M0 0 C2.19050021 0.09017996 4.378466 0.24666208 6.5625 0.4375 C7.76003906 0.53933594 8.95757812 0.64117187 10.19140625 0.74609375 C11.11824219 0.82988281 12.04507813 0.91367187 13 1 C13.20681396 1.84296631 13.41362793 2.68593262 13.62670898 3.55444336 C14.3935847 6.67298512 15.16360506 9.79072822 15.93579102 12.90795898 C16.26974362 14.25888257 16.60243017 15.61011977 16.93383789 16.96166992 C17.40961363 18.90104277 17.89027896 20.83921405 18.37109375 22.77734375 C18.65911865 23.94515381 18.94714355 25.11296387 19.24389648 26.31616211 C19.73530954 28.8982653 19.73530954 28.8982653 21 30 C23.14061222 21.7181168 25.23923314 13.49184733 26.60546875 5.0390625 C27 3 27 3 28 1 C30.94140625 0.5859375 30.94140625 0.5859375 34.5625 0.375 C35.76003906 0.30023438 36.95757812 0.22546875 38.19140625 0.1484375 C39.11824219 0.09945313 40.04507813 0.05046875 41 0 C42.66893799 5.04425403 41.17410504 9.05122817 39.7265625 13.94921875 C39.48336273 14.80304642 39.24016296 15.65687408 38.98959351 16.53657532 C38.21181106 19.25666746 37.41839486 21.97192577 36.625 24.6875 C36.09797795 26.52641202 35.57192518 28.36560212 35.046875 30.20507812 C31.20533224 43.58933553 31.20533224 43.58933553 30 46 C23.73 46 17.46 46 11 46 C7.37 33.13 3.74 20.26 0 7 C-0.28935239 19.46069648 -0.28935239 19.46069648 -0.56811523 31.92163086 C-0.60622236 33.47771132 -0.64469013 35.033783 -0.68359375 36.58984375 C-0.70006958 37.40521606 -0.71654541 38.22058838 -0.73352051 39.06066895 C-0.8859282 44.8859282 -0.8859282 44.8859282 -2 46 C-5.96 46 -9.92 46 -14 46 C-14 31.15 -14 16.3 -14 1 C-9.71 1 -5.42 1 -1 1 C-0.67 0.67 -0.34 0.34 0 0 Z " fill="#34B8B2" transform="translate(132,302)"/>
<path d="M0 0 C5.93739494 3.52391188 10.33434068 8.47729377 12.484375 15.08984375 C12.71484375 18.16796875 12.71484375 18.16796875 12.671875 21.33984375 C12.66542969 22.396875 12.65898438 23.45390625 12.65234375 24.54296875 C12.484375 27.08984375 12.484375 27.08984375 11.484375 28.08984375 C9.34050843 28.24843217 7.19170662 28.34113673 5.04296875 28.40625 C3.08520508 28.4690918 3.08520508 28.4690918 1.08789062 28.53320312 C-0.3007783 28.57301983 -1.68945022 28.612732 -3.078125 28.65234375 C-4.47071683 28.69552364 -5.86329528 28.73913775 -7.25585938 28.78320312 C-10.67567301 28.88970251 -14.09556263 28.99171298 -17.515625 29.08984375 C-10.85850085 31.93505683 -10.85850085 31.93505683 -3.765625 31.33984375 C-2.86328125 31.13875 -1.9609375 30.93765625 -1.03125 30.73046875 C0.21398437 30.41335938 0.21398437 30.41335938 1.484375 30.08984375 C2.804375 29.75984375 4.124375 29.42984375 5.484375 29.08984375 C7.134375 32.71984375 8.784375 36.34984375 10.484375 40.08984375 C1.74195506 46.11239971 -7.10590343 46.33269309 -17.515625 45.08984375 C-23.83805531 42.91550541 -27.40547948 38.6170791 -30.640625 32.921875 C-33.37656878 27.19349271 -33.46452203 20.71394446 -31.8671875 14.61328125 C-29.35785552 8.37212222 -25.298294 3.00691069 -19.21875 -0.07421875 C-13.22166212 -1.92880951 -5.93491324 -2.14725898 0 0 Z M-18.515625 15.08984375 C-18.515625 15.74984375 -18.515625 16.40984375 -18.515625 17.08984375 C-12.575625 17.08984375 -6.635625 17.08984375 -0.515625 17.08984375 C-4.65583639 12.10064782 -4.65583639 12.10064782 -7.83203125 11.49609375 C-13.80753552 11.65361235 -13.80753552 11.65361235 -18.515625 15.08984375 Z " fill="#34B8B2" transform="translate(86.515625,302.91015625)"/>
<path d="M0 0 C6.69982703 4.05664632 9.96101423 9.33755477 12.21484375 16.71484375 C12.5625 19.4375 12.5625 19.4375 11.5625 27.4375 C1.6625 27.4375 -8.2375 27.4375 -18.4375 27.4375 C-18.4375 28.0975 -18.4375 28.7575 -18.4375 29.4375 C-10.57782185 32.34216366 -3.20822457 31.50489128 4.5625 28.4375 C8.48099935 35.2149903 8.48099935 35.2149903 8.75 39.25 C6.95021674 42.56539021 4.02238467 43.39941403 0.5625 44.4375 C-7.1642373 45.61158153 -16.92976833 46.16656128 -23.8125 42.0625 C-29.13024722 37.50897992 -32.0373332 32.06028663 -32.8046875 25.11328125 C-32.99239059 15.96796955 -31.57738085 9.93552588 -25.2734375 3.20703125 C-18.74683712 -3.0835006 -8.20384216 -3.6672281 0 0 Z M-18.4375 13.4375 C-18.7675 14.4275 -19.0975 15.4175 -19.4375 16.4375 C-13.4975 16.4375 -7.5575 16.4375 -1.4375 16.4375 C-2.12132061 13.44610209 -2.12132061 13.44610209 -4 12.25 C-8.64485933 10.70171356 -14.37188991 10.34763633 -18.4375 13.4375 Z " fill="#34B8B2" transform="translate(204.4375,303.5625)"/>
<path d="M0 0 C4.29 0 8.58 0 13 0 C13.02255425 8.1969097 13.04091696 16.39379545 13.05181217 24.59072781 C13.0570402 28.39651577 13.06413638 32.20228148 13.07543945 36.00805664 C13.0862712 39.67792544 13.09227744 43.34777278 13.09487724 47.01765633 C13.09673097 48.42074992 13.1003506 49.82384229 13.10573006 51.2269268 C13.11294419 53.1856968 13.11340809 55.1444882 13.11352539 57.10327148 C13.115746 58.22023911 13.11796661 59.33720673 13.12025452 60.48802185 C13 63 13 63 12 64 C8.04 64 4.08 64 0 64 C0 42.88 0 21.76 0 0 Z " fill="#35B7B2" transform="translate(101,284)"/>
<path d="M0 0 C3.5 0.875 3.5 0.875 5.5 2.5 C6.95635054 5.95883253 6.41305869 8.28798371 5.5 11.875 C3.91154109 14.25768836 2.80933354 14.76103501 0.125 15.75 C-3.40725918 15.91820282 -4.80149005 15.13591374 -7.5 12.875 C-9 10 -9 10 -9.5 6.875 C-7.46346141 2.15880538 -5.34729686 -0.19097489 0 0 Z " fill="#35B7B1" transform="translate(125.5,283.125)"/>
<path d="M0 0 C0.66 0.66 1.32 1.32 2 2 C1.34 2.66 0.68 3.32 0 4 C0 2.68 0 1.36 0 0 Z " fill="#33B6B1" transform="translate(295,304)"/>
</svg>
