<svg width="13" height="23" viewBox="0 0 13 23" fill="none" xmlns="http://www.w3.org/2000/svg">
<path fill-rule="evenodd" clip-rule="evenodd" d="M5.06 10.6446C5.082 10.8546 5.145 11.1248 5.183 11.3448C5.223 11.5848 5.256 11.8148 5.292 12.0548C5.52431 13.5578 5.65793 15.0744 5.692 16.5948C5.69758 17.622 5.62638 18.6481 5.479 19.6646C5.41 20.1446 5.322 20.6046 5.234 21.0646L5.034 22.5147C5.376 22.4447 5.999 21.5948 6.264 21.3048C6.364 21.2048 6.464 21.1047 6.564 20.9947L7.44 20.0348C7.492 19.9748 7.511 19.9446 7.575 19.8746L7.995 19.3746C8.314 19.0146 9.348 17.7148 9.622 17.3248C9.965 16.8448 10.303 16.4346 10.632 15.8946C11.3011 14.8578 11.8246 13.7341 12.188 12.5548C12.4021 11.9098 12.5594 11.2473 12.658 10.5748C13.0685 8.46532 12.8508 6.28148 12.032 4.29453C11.337 2.65297 10.0399 1.33984 8.407 0.624611C6.94126 -0.0133995 5.3103 -0.16747 3.751 0.184669C2.88143 0.412004 2.11831 0.935347 1.593 1.66465C1.3127 2.00107 1.06398 2.36268 0.849998 2.74473C0.632918 3.15197 0.450606 3.57683 0.305 4.01475L0 5.49473C0.26 5.58473 1.093 4.57483 2.13 4.84483C3.357 5.17483 4.157 7.18479 4.501 8.30479C4.74169 9.07079 4.92848 9.85254 5.06 10.6446Z" fill="white"/>
</svg>
