<svg xmlns="http://www.w3.org/2000/svg" xmlns:xlink="http://www.w3.org/1999/xlink" width="125" height="39" viewBox="0 0 125 39">
  <defs>
    <linearGradient id="linear-gradient" x1="0.192" y1="-0.352" x2="0.693" y2="0.935" gradientUnits="objectBoundingBox">
      <stop offset="0" stop-color="#19a3b4"/>
      <stop offset="0.348" stop-color="#5bc3af"/>
      <stop offset="0.922" stop-color="#c9f7a6"/>
      <stop offset="1" stop-color="#d7fea5"/>
    </linearGradient>
    <linearGradient id="linear-gradient-2" x1="-0.147" y1="-1.143" x2="0.748" y2="1.142" gradientUnits="objectBoundingBox">
      <stop offset="0" stop-color="#fc227c"/>
      <stop offset="1" stop-color="#feeb7b"/>
    </linearGradient>
    <linearGradient id="linear-gradient-3" x1="0.282" y1="-0.148" x2="0.482" y2="0.829" gradientUnits="objectBoundingBox">
      <stop offset="0" stop-color="#0e4da0"/>
      <stop offset="1" stop-color="#6bfed4"/>
    </linearGradient>
    <linearGradient id="linear-gradient-4" x1="1.322" y1="0.165" x2="0.06" y2="1.263" gradientUnits="objectBoundingBox">
      <stop offset="0" stop-color="#fc472e"/>
      <stop offset="0.003" stop-color="#fc472e"/>
      <stop offset="1" stop-color="#893cd8"/>
    </linearGradient>
  </defs>
  <g id="gray-google" transform="translate(0.301 0.372)">
    <rect id="Rectangle_29" data-name="Rectangle 29" width="125" height="39" rx="5" transform="translate(-0.301 -0.372)" fill="#5b6063"/>
    <g id="Group_40" data-name="Group 40" transform="translate(10.181 13.867)">
      <path id="Path_18" data-name="Path 18" d="M12.829,6.674,1.346.2A1.1,1.1,0,0,0,.475.05L9.884,9.694l2.945-3.021" transform="translate(0.101 -0.013)" fill="url(#linear-gradient)"/>
      <path id="Path_19" data-name="Path 19" d="M11.442,11.739l3.92-2.21c.795-.451.795-1.182,0-1.631L11.427,5.68,8.48,8.7l2.962,3.039" transform="translate(1.505 0.981)" fill-rule="evenodd" fill="url(#linear-gradient-2)"/>
      <path id="Path_20" data-name="Path 20" d="M.561.044A.972.972,0,0,0-.015,1.067l0,17.268a.981.981,0,0,0,.558,1.019L9.968,9.693.56.042" transform="translate(0.015 -0.007)" fill="url(#linear-gradient-3)"/>
      <path id="Path_21" data-name="Path 21" d="M.463,17.914a1.091,1.091,0,0,0,.884-.141l11.5-6.486L9.883,8.252.463,17.913" transform="translate(0.099 1.432)" fill="url(#linear-gradient-4)"/>
    </g>
    <g id="Group_41" data-name="Group 41" transform="translate(32.362 5.672)">
      <path id="Path_22" data-name="Path 22" d="M5.83,2.995H3.064v.862H5.027A1.843,1.843,0,0,1,3.068,5.581,2.213,2.213,0,0,1,.9,3.286,2.22,2.22,0,0,1,3.069.977,2.091,2.091,0,0,1,4.55,1.6L5.126.975A2.88,2.88,0,0,0,3.038.113,3.143,3.143,0,0,0,0,3.271,3.133,3.133,0,0,0,3.083,6.445a2.722,2.722,0,0,0,2.8-2.88,2.736,2.736,0,0,0-.049-.57Z" transform="translate(0 -0.112)" fill="#fff" fill-rule="evenodd"/>
      <path id="Path_23" data-name="Path 23" d="M16.129,6.321h.853v-6h-.853Zm-4.782,0H12.2V1.22h1.4v-.9H9.945v.9h1.4v5.1Zm-5.577,0H9.045v-.9H6.623V3.771h2.13v-.9H6.623V1.219H9.045v-.9H5.77Zm13.311,0h.853V1.22h1.4v-.9H17.68v.9h1.4v5.1ZM26.574.112a3.145,3.145,0,0,0-3.041,3.159,3.043,3.043,0,1,0,6.08,0A3.145,3.145,0,0,0,26.574.112m0,5.469a2.215,2.215,0,0,1-2.139-2.294,2.145,2.145,0,1,1,4.278,0,2.215,2.215,0,0,1-2.139,2.294m3.893.74h.853V1.953l2.743,4.369h.852v-6h-.853V4.69L31.322.324h-.853v6Z" transform="translate(1.012 -0.112)" fill="#fff" fill-rule="evenodd"/>
    </g>
    <g id="Group_42" data-name="Group 42" transform="translate(32.362 16.672)">
      <path id="Path_24" data-name="Path 24" d="M12.3,5.9H6.462V7.646H10.6a3.843,3.843,0,0,1-4.133,3.5A4.576,4.576,0,0,1,1.9,6.486,4.587,4.587,0,0,1,6.475,1.8,4.469,4.469,0,0,1,9.594,3.063l1.213-1.269A6.139,6.139,0,0,0,6.413.042,6.5,6.5,0,0,0,0,6.457,6.48,6.48,0,0,0,6.5,12.9a5.629,5.629,0,0,0,5.9-5.845A5.288,5.288,0,0,0,12.3,5.894Zm4.962-1.267a4.064,4.064,0,0,0-4.114,4.1,4.075,4.075,0,0,0,4.141,4.168,4.034,4.034,0,0,0,4.078-4.118,4.024,4.024,0,0,0-4.105-4.147m.024,1.622A2.367,2.367,0,0,1,19.58,8.767a2.326,2.326,0,1,1-4.637-.014,2.374,2.374,0,0,1,2.341-2.5M26.3,4.628a4.064,4.064,0,0,0-4.114,4.1,4.075,4.075,0,0,0,4.142,4.168,4.033,4.033,0,0,0,4.076-4.118,4.023,4.023,0,0,0-4.1-4.147m.024,1.622A2.367,2.367,0,0,1,28.62,8.767a2.325,2.325,0,1,1-4.634-.014,2.373,2.373,0,0,1,2.339-2.5m8.833-1.621a4.075,4.075,0,0,0-3.926,4.13A4.055,4.055,0,0,0,35.118,12.9a2.689,2.689,0,0,0,2.243-1v.815a2.066,2.066,0,0,1-2.151,2.28,2.269,2.269,0,0,1-2.092-1.473l-1.573.664a3.934,3.934,0,0,0,3.679,2.433c2.186,0,3.852-1.39,3.852-4.308V4.882H37.359v.7a2.875,2.875,0,0,0-2.2-.949Zm.159,1.622A2.327,2.327,0,0,1,37.5,8.769a2.3,2.3,0,0,1-2.21,2.5,2.336,2.336,0,0,1-2.263-2.487,2.369,2.369,0,0,1,2.286-2.532Zm11.745-1.63a3.889,3.889,0,0,0-3.814,4.125A3.978,3.978,0,0,0,47.262,12.9a4.141,4.141,0,0,0,3.427-1.815l-1.414-.952a2.285,2.285,0,0,1-2,1.14,2.106,2.106,0,0,1-2.006-1.254l5.486-2.3-.288-.672a3.7,3.7,0,0,0-3.4-2.421Zm.073,1.587a1.63,1.63,0,0,1,1.514.884L44.985,8.641a2.285,2.285,0,0,1,2.149-2.429Z" transform="translate(0 -0.042)" fill="#fff" fill-rule="evenodd"/>
      <path id="Path_25" data-name="Path 25" d="M34.417,12.587h1.8V.406h-1.8Zm24.154,0h1.8V.406h-1.8Zm-5.2-6.241H50.819V2.227h2.556a2.06,2.06,0,0,1,0,4.12m0-5.94H49.018V12.587h1.8V8.168h2.556a3.881,3.881,0,0,0,0-7.761M76.921,4.56,74.562,9.985,72.2,4.558H70.233l3.344,7.687L71.706,16.55h1.968L78.89,4.56ZM67.745,9.066a2.726,2.726,0,0,1-1.993,2.013c-2.083.574-2.6-2.847.494-2.377a7.653,7.653,0,0,1,1.5.364Zm0,3.521h1.8V8.206c.282-4.518-5.388-5.581-7.534-2.324l1.45.983c1.05-1.851,4.043-1.425,4.239.561a7.908,7.908,0,0,0-2.76-.324A2.925,2.925,0,0,0,62.181,9.59a3.032,3.032,0,0,0,.616,2.348,3.373,3.373,0,0,0,3.381.729,3.078,3.078,0,0,0,1.567-1.061v.984Z" transform="translate(6.035 0.022)" fill="#fff" fill-rule="evenodd"/>
    </g>
  </g>
</svg>
