<svg width="16" height="15" viewBox="0 0 16 15" fill="none" xmlns="http://www.w3.org/2000/svg">
<path d="M6.1729 12.3614C6.41275 12.5566 6.66442 12.7367 6.92648 12.9009C7.11582 13.0183 7.31916 13.1115 7.53174 13.1782V13.4807C7.27366 13.4094 7.02731 13.301 6.80038 13.159C6.52192 12.985 6.25442 12.7941 5.9994 12.5873L6.1729 12.3614ZM9.87111 12.5862C9.61691 12.7937 9.34971 12.9846 9.07114 13.158C8.84431 13.3002 8.59793 13.4086 8.33978 13.4796V13.1771C8.5523 13.1103 8.75562 13.0171 8.94505 12.8999C9.20643 12.7357 9.45743 12.5555 9.6966 12.3604L9.87111 12.5862ZM0.959505 5.47305C1.06652 6.87916 1.64519 8.20805 2.60181 9.24447C3.49915 10.2052 4.48355 11.0809 5.54241 11.8602L5.37194 12.082C4.30609 11.297 3.31558 10.4145 2.41317 9.4461C1.40869 8.3536 0.804183 6.9531 0.698242 5.47305H0.959505ZM15.1773 5.47305C15.0721 6.95327 14.4675 8.35399 13.4624 9.4461C12.5599 10.4151 11.569 11.2979 10.5026 12.0831L10.3321 11.8612C11.3913 11.0819 12.3761 10.2063 13.2737 9.24546C14.231 8.20948 14.8098 6.8804 14.916 5.4741L15.1773 5.47305ZM8.53246 1.66741C9.09359 1.15672 9.7914 0.820469 10.5406 0.699769C11.2898 0.57907 12.058 0.679137 12.7512 0.987748C13.4412 1.33614 14.0278 1.85921 14.4526 2.50482C14.8774 3.15043 15.1256 3.89608 15.1723 4.6674H14.909C14.8613 3.95168 14.6278 3.26072 14.2315 2.66269C13.8353 2.06466 13.29 1.58017 12.6493 1.25702C12.0056 0.971151 11.293 0.877033 10.5972 0.985963C9.90127 1.09489 9.25161 1.40225 8.72614 1.87113L8.61619 1.75315C8.58593 1.7239 8.55869 1.69565 8.53044 1.66741H8.53246ZM3.12335 0.987748C3.81646 0.67935 4.58441 0.579443 5.33341 0.700139C6.08241 0.820834 6.78004 1.15692 7.34108 1.66741C7.31384 1.69565 7.2856 1.72388 7.25836 1.75413L7.14739 1.87212C6.62215 1.40321 5.97266 1.09582 5.27692 0.986887C4.58118 0.877952 3.86876 0.972096 3.22524 1.258C2.58459 1.58116 2.03926 2.06564 1.64301 2.66368C1.24676 3.26171 1.01328 3.95266 0.96557 4.66839H0.702275C0.749002 3.89719 0.997013 3.1517 1.42161 2.50611C1.84621 1.86053 2.43259 1.3374 3.12235 0.988795L3.12335 0.987748Z" fill="white" stroke="white" stroke-width="1.3"/>
</svg>
