<svg xmlns="http://www.w3.org/2000/svg" width="44" height="35.484" viewBox="0 0 44 35.484">
  <g id="chicken-leg" transform="translate(-1 -7)">
    <path id="Path_1606" data-name="Path 1606" d="M42.871,35.387h-4.91l.233-.291a8.392,8.392,0,0,0-1.311-11.8,1.953,1.953,0,0,1-.66-.991l-.51-1.786a8.066,8.066,0,0,0-2.9-4.21,4.007,4.007,0,0,0-.589-.361V14.026a3.547,3.547,0,1,0-2.839-6.3,3.535,3.535,0,0,0-5.677,2.825,3.554,3.554,0,0,0,2.839,3.477v1.926a4.013,4.013,0,0,0-.59.361,8.066,8.066,0,0,0-2.9,4.209l-.3,1.064a2.579,2.579,0,0,1-1.564,1.695A3.883,3.883,0,0,0,18.742,26.9v.7c-.168.075-.334.156-.5.236l-.483-.967a4.161,4.161,0,0,1-.436-1.849V20.764a4.149,4.149,0,0,1,.906-2.584l1.362-1.7a2.611,2.611,0,0,0,.571-1.627v-.988a2.608,2.608,0,0,0-2.605-2.605,2.641,2.641,0,0,0-.632.077l-2.271.568-1.276-1.021a4.193,4.193,0,0,0-4.964-.216l-.657.438,2.2,2.646a4.131,4.131,0,0,1,.663,4.184,5.545,5.545,0,0,0-.4,2.064v.795A4.132,4.132,0,0,1,9.2,23.516L6.623,26.463a5.52,5.52,0,0,0-.087,7.168L8,35.387H3.129A2.132,2.132,0,0,0,1,37.516a4.974,4.974,0,0,0,4.968,4.968H40.032A4.974,4.974,0,0,0,45,37.516a2.132,2.132,0,0,0-2.129-2.129Zm-14.9-19.871V12.677h-.71a2.129,2.129,0,0,1,0-4.258,2.1,2.1,0,0,1,1.595.737l.534.61.534-.611a2.1,2.1,0,0,1,1.595-.736,2.129,2.129,0,0,1,0,4.258h-.71v2.839H27.968ZM20.161,26.9a2.485,2.485,0,0,1,1.6-2.321,3.965,3.965,0,0,0,2.36-2.606l.3-1.064a6.636,6.636,0,0,1,2.383-3.464,2.587,2.587,0,0,1,1.539-.512h2.077a2.583,2.583,0,0,1,1.538.512,6.629,6.629,0,0,1,2.384,3.464l.51,1.786A3.361,3.361,0,0,0,36,24.408a6.973,6.973,0,0,1,1.089,9.8l-.942,1.177H27.316a5.706,5.706,0,0,1,1.077-2.7l.213-.283a3.9,3.9,0,0,0-3.123-6.246,16.7,16.7,0,0,0-5.323.88ZM7.628,32.722A4.1,4.1,0,0,1,7.692,27.4l2.579-2.947a5.552,5.552,0,0,0,1.374-3.658V20a4.125,4.125,0,0,1,.3-1.536,5.549,5.549,0,0,0-.89-5.619L9.933,11.5a2.778,2.778,0,0,1,2.558.49l1.825,1.46,2.952-.739a1.206,1.206,0,0,1,1.475,1.151v.988a1.191,1.191,0,0,1-.26.741l-1.361,1.7a5.571,5.571,0,0,0-1.218,3.47v4.253a5.589,5.589,0,0,0,.586,2.484l.5,1a16.471,16.471,0,0,0-1.512.994l-1.419,1.065.851,1.135,1.419-1.065a15.358,15.358,0,0,1,9.155-3.052,2.484,2.484,0,0,1,1.987,3.975l-.212.283a7.144,7.144,0,0,0-1.379,3.548H9.849Zm32.4,8.342H5.968a3.552,3.552,0,0,1-3.548-3.548.71.71,0,0,1,.71-.71H42.871a.71.71,0,0,1,.71.71A3.552,3.552,0,0,1,40.032,41.065Z" fill="#171717"/>
    <path id="Path_1607" data-name="Path 1607" d="M12.419,37H11a7.72,7.72,0,0,0,1.3,4.294l.238.358,1.181-.787-.238-.358A6.308,6.308,0,0,1,12.419,37Z" transform="translate(-2.903 -8.71)" fill="#171717"/>
    <path id="Path_1608" data-name="Path 1608" d="M33.627,37.293A5.519,5.519,0,0,0,32,41.222v.121h1.419v-.121A4.11,4.11,0,0,1,34.631,38.3Z" transform="translate(-9 -8.795)" fill="#171717"/>
    <path id="Path_1609" data-name="Path 1609" d="M25.821,40.235a4.16,4.16,0,0,1-1.63,2.134l-.746.5.787,1.181.746-.5a5.589,5.589,0,0,0,2.189-2.866l.184-.551L26,39.684Z" transform="translate(-6.516 -9.489)" fill="#171717"/>
    <path id="Path_1610" data-name="Path 1610" d="M37.79,27.759A4.674,4.674,0,0,1,40.513,25.4l-.449-1.346a6.085,6.085,0,0,0-3.543,3.073l-.416.831,1.27.635Z" transform="translate(-10.192 -4.951)" fill="#171717"/>
  </g>
</svg>
