<svg id="Group_44" data-name="Group 44" xmlns="http://www.w3.org/2000/svg" width="20.059" height="20.059" viewBox="0 0 20.059 20.059">
  <path id="Path_32" data-name="Path 32" d="M22.4,27.8a5.4,5.4,0,1,1,5.4-5.4A5.407,5.407,0,0,1,22.4,27.8Zm0-9.258A3.857,3.857,0,1,0,26.258,22.4,3.862,3.862,0,0,0,22.4,18.543Z" transform="translate(-12.371 -12.371)" fill="#fff"/>
  <ellipse id="Ellipse_8" data-name="Ellipse 8" cx="1.157" cy="1.157" rx="1.157" ry="1.157" transform="translate(14.658 3.086)" fill="#fff"/>
  <path id="Path_33" data-name="Path 33" d="M25.658,31.059H16.4a5.407,5.407,0,0,1-5.4-5.4V16.4A5.407,5.407,0,0,1,16.4,11h9.258a5.407,5.407,0,0,1,5.4,5.4v9.258A5.407,5.407,0,0,1,25.658,31.059ZM16.4,12.543A3.862,3.862,0,0,0,12.543,16.4v9.258A3.862,3.862,0,0,0,16.4,29.516h9.258a3.862,3.862,0,0,0,3.857-3.857V16.4a3.862,3.862,0,0,0-3.857-3.857Z" transform="translate(-11 -11)" fill="#fff"/>
</svg>
