<svg xmlns="http://www.w3.org/2000/svg" width="18.285" height="17.804" viewBox="0 0 18.285 17.804">
  <g id="Subtraction_1" data-name="Subtraction 1" fill="#fff">
    <path d="M 17.62838554382324 17.30390167236328 L 0.6570356488227844 17.30390167236328 C 1.048520803451538 16.06502723693848 1.707894206047058 14.9163179397583 2.585307359695435 13.95208072662354 C 3.60112738609314 12.83573055267334 4.885677337646484 11.99152088165283 6.300087451934814 11.51071071624756 L 7.320167541503906 11.1639404296875 L 6.396787166595459 10.60879039764404 C 5.609607219696045 10.13553047180176 4.950197219848633 9.462370872497559 4.489837169647217 8.662060737609863 C 4.015497207641602 7.837450981140137 3.764777421951294 6.894210815429688 3.764777421951294 5.93432092666626 C 3.764777421951294 2.937830924987793 6.177517414093018 0.5000008344650269 9.143187522888184 0.5000008344650269 C 12.10833740234375 0.5000008344650269 14.52065753936768 2.937830924987793 14.52065753936768 5.93432092666626 C 14.52065753936768 6.89409065246582 14.26993751525879 7.83720064163208 13.7956075668335 8.661690711975098 C 13.3353271484375 9.461771011352539 12.67585754394531 10.13510036468506 11.88848781585693 10.60889053344727 L 10.96579742431641 11.1641206741333 L 11.98536777496338 11.51071071624756 C 13.39975738525391 11.99151039123535 14.68430709838867 12.83573055267334 15.70012760162354 13.95208072662354 C 16.5775146484375 14.91628265380859 17.23688697814941 16.06499671936035 17.62838554382324 17.30390167236328 Z" stroke="none"/>
    <path d="M 16.91646003723145 16.80390167236328 C 16.54033088684082 15.88238048553467 16.00322341918945 15.02807903289795 15.33030700683594 14.28859043121338 C 14.37126731872559 13.2346305847168 13.15895748138428 12.43775081634521 11.82443714141846 11.98410129547119 L 9.785306930541992 11.29093074798584 L 11.63069725036621 10.18048095703125 C 12.34543704986572 9.750380516052246 12.94418716430664 9.138980865478516 13.36221694946289 8.412350654602051 C 13.79296779632568 7.663600921630859 14.02065753936768 6.806720733642578 14.02065753936768 5.93432092666626 C 14.02065753936768 3.213530778884888 11.83263778686523 1.000000834465027 9.143187522888184 1.000000834465027 C 6.453227519989014 1.000000834465027 4.264777183532715 3.213530778884888 4.264777183532715 5.93432092666626 C 4.264777183532715 6.806840896606445 4.492477416992188 7.663870811462402 4.923247337341309 8.412751197814941 C 5.341307163238525 9.139531135559082 5.939937591552734 9.750730514526367 6.654417514801025 10.18027114868164 L 8.501187324523926 11.29057121276855 L 6.461007595062256 11.98410129547119 C 5.126477241516113 12.4377613067627 3.914167404174805 13.23464107513428 2.955117464065552 14.28860092163086 C 2.282174825668335 15.02812576293945 1.745081305503845 15.88237953186035 1.368955731391907 16.80390167236328 L 16.91646003723145 16.80390167236328 M 18.28543663024902 17.80390167236328 L 18.28410720825195 17.80390167236328 L -2.638549858602346e-06 17.80390167236328 C 0.3717073500156403 16.24737167358398 1.138157367706299 14.79951095581055 2.215497255325317 13.61557102203369 C 3.288107395172119 12.43681049346924 4.644887447357178 11.5452709197998 6.139157295227051 11.03731060028076 C 5.278587341308594 10.51993083953857 4.558467388153076 9.784140586853027 4.056427478790283 8.911371231079102 C 3.538527250289917 8.011031150817871 3.264777421951294 6.98158073425293 3.264777421951294 5.93432092666626 C 3.264777421951294 2.662130832672119 5.901827335357666 8.361816412616463e-07 9.143187522888184 8.361816412616463e-07 C 12.38404750823975 8.361816412616463e-07 15.02065753936768 2.662130832672119 15.02065753936768 5.93432092666626 C 15.02065753936768 6.981480598449707 14.74690723419189 8.010800361633301 14.22900772094727 8.91102123260498 C 13.72646713256836 9.784550666809082 13.00628757476807 10.51981067657471 12.1462869644165 11.03731060028076 C 13.64132690429688 11.54553127288818 14.99816703796387 12.43773078918457 16.06993675231934 13.61557102203369 C 17.14752769470215 14.79978084564209 17.91353797912598 16.24764060974121 18.28511810302734 17.80261039733887 L 18.28543663024902 17.80390167236328 Z" stroke="none" fill="#060606"/>
  </g>
</svg>
