<svg width="27" height="24" viewBox="0 0 27 24" fill="none" xmlns="http://www.w3.org/2000/svg">
<path d="M13.4813 3.75835L12.8014 4.41735C12.888 4.50955 12.9926 4.58305 13.1087 4.63329C13.2248 4.68352 13.3498 4.70946 13.4763 4.70946C13.6028 4.70946 13.728 4.68352 13.8441 4.63329C13.9602 4.58305 14.0648 4.50955 14.1514 4.41735L13.4813 3.75835ZM10.2514 20.0044C8.23507 18.5506 6.35108 16.9216 4.62136 15.1363C2.88408 13.3078 1.90492 10.8885 1.88137 8.36638H0.00136074C0.0213362 11.3544 1.17174 14.224 3.22133 16.3984C5.02018 18.2681 6.98129 19.9748 9.08144 21.4983L10.2514 20.0044ZM1.88137 8.36638C1.85382 7.13211 2.17759 5.91541 2.81496 4.85808C3.45233 3.80076 4.37703 2.94631 5.48134 2.39434C7.50134 1.46134 10.2214 1.70835 12.8014 4.41735L14.1514 3.09935C11.0914 -0.115646 7.54143 -0.644629 4.70143 0.666371C3.26763 1.37098 2.06405 2.46932 1.23171 3.83294C0.399368 5.19656 -0.0273692 6.76907 0.00136074 8.36638H1.88137ZM9.08144 21.4983C9.72705 22.0299 10.4049 22.5198 11.1113 22.9673C11.8203 23.424 12.6387 23.6823 13.4813 23.7154V21.8154C12.9734 21.7802 12.4837 21.6119 12.0614 21.3274C11.4305 20.9258 10.8259 20.4832 10.2514 20.0044L9.08144 21.4983ZM17.8714 21.4974C19.9715 19.9738 21.9325 18.2671 23.7313 16.3973C25.781 14.223 26.9316 11.3534 26.9514 8.36535H25.0714C25.0479 10.8875 24.0687 13.3068 22.3314 15.1354C20.6017 16.9206 18.7177 18.5495 16.7014 20.0033L17.8714 21.4974ZM26.9514 8.36638C26.9802 6.76907 26.5533 5.19656 25.721 3.83294C24.8886 2.46932 23.6852 1.37098 22.2514 0.666371C19.4114 -0.644629 15.8614 -0.115646 12.8014 3.09935L14.1514 4.41735C16.7314 1.70835 19.4513 1.46134 21.4713 2.39434C22.5756 2.94631 23.5005 3.80076 24.1378 4.85808C24.7752 5.91541 25.099 7.13211 25.0714 8.36638H26.9514ZM16.7014 20.0044C16.1269 20.4832 15.5223 20.9248 14.8914 21.3263C14.472 21.6092 13.9859 21.7785 13.4813 21.8154V23.7143C14.3206 23.6797 15.1354 23.4215 15.8413 22.9664C16.5477 22.5188 17.2257 22.0278 17.8714 21.4963L16.7014 20.0044Z" fill="black"/>
</svg>
