<svg width="25" height="23" viewBox="0 0 25 23" fill="none" xmlns="http://www.w3.org/2000/svg">
<path d="M5.33959 1.51415C9.66059 -1.39085 15.6186 0.133149 18.9396 3.97015C20.0761 5.29662 20.8337 6.90513 21.1326 8.62615L21.1876 8.93615L21.4056 8.71015C21.5916 8.52415 21.7766 8.34315 21.9626 8.16715C22.2018 7.95044 22.5129 7.83041 22.8356 7.83041C23.1583 7.83041 23.4695 7.95044 23.7086 8.16715C23.9287 8.34334 24.0764 8.59422 24.1236 8.87215C24.14 9.01953 24.1185 9.16864 24.0613 9.30544C24.0041 9.44224 23.913 9.56225 23.7966 9.65415C23.31 10.1116 22.8474 10.5939 22.4106 11.0991L21.9846 11.6061C21.8096 11.8151 21.6467 12.0272 21.4717 12.2431C21.3187 12.4431 21.1666 12.6371 21.0246 12.8431C20.9246 12.9615 20.7989 13.0556 20.6572 13.1183C20.5155 13.181 20.3615 13.2107 20.2067 13.2051H20.1846H20.1736C19.9606 13.2553 19.737 13.2321 19.5389 13.1391C19.3409 13.0462 19.1801 12.889 19.0826 12.6931C19.0176 12.5791 18.9406 12.4681 18.8756 12.3641C18.1106 11.1571 17.1129 10.1145 15.9407 9.29715L15.6246 9.08715C15.503 9.00151 15.4037 8.88782 15.3353 8.7557C15.2669 8.62358 15.2313 8.47693 15.2316 8.32815C15.2188 8.02658 15.3203 7.73129 15.5156 7.50115C15.7387 7.27945 16.0364 7.14867 16.3506 7.13425C16.6648 7.11983 16.9731 7.22281 17.2156 7.42315C17.6035 7.6745 17.9753 7.95005 18.3286 8.24815L18.7436 8.59315L18.5906 8.07615C18.5144 7.80924 18.4233 7.54682 18.3176 7.29015C17.7109 6.02468 16.8165 4.91864 15.7062 4.06038C14.5958 3.20212 13.3001 2.61542 11.9226 2.34715C10.8933 2.13691 9.82948 2.16628 8.81334 2.43297C7.79721 2.69966 6.856 3.19653 6.06261 3.88515C4.36296 5.29829 3.1714 7.22787 2.66906 9.38041C2.16671 11.5329 2.3811 13.7906 3.27965 15.8101C3.73502 16.9322 4.46373 17.9225 5.39952 18.691C6.33532 19.4594 7.44841 19.9817 8.63756 20.2101C10.1432 20.4279 11.6796 20.2553 13.0994 19.7088C14.5191 19.1623 15.7746 18.2602 16.7456 17.0891L16.8107 17.1241L16.8766 16.9611C16.8766 16.9551 16.8876 16.9461 16.8876 16.9321C16.9004 16.916 16.9115 16.8986 16.9206 16.8801C16.9861 16.7579 17.0751 16.6498 17.1826 16.5621C17.3212 16.4448 17.4842 16.3597 17.6598 16.3132C17.8353 16.2666 18.0191 16.2598 18.1976 16.2931C18.5008 16.3463 18.7711 16.5162 18.9506 16.7663C19.13 17.0164 19.2043 17.3269 19.1576 17.6311L19.1356 17.7581C19.1112 17.8878 19.059 18.0106 18.9827 18.1181L18.8826 18.2551C18.8519 18.2911 18.8185 18.3245 18.7826 18.3551L18.7716 18.3611L18.7606 18.3691C16.7261 20.6752 13.914 22.1517 10.8606 22.5171C5.15358 23.1881 1.02864 18.5711 0.144641 13.5311C-0.20963 11.2421 0.0900185 8.89959 1.00914 6.77349C1.92827 4.64738 3.42941 2.82423 5.33959 1.51415Z" fill="white"/>
</svg>
