<svg xmlns="http://www.w3.org/2000/svg" width="38.346" height="38.346" viewBox="0 0 38.346 38.346">
  <g id="halal" transform="translate(0 0)">
    <path id="Path_1611" data-name="Path 1611" d="M39.01,59V55.868h-.572v1.3H36.875v-1.3H36.3V59h.572V57.661h1.564V59ZM41.6,55.83l1.3,3.127h-.61l-.229-.572H40.536l-.229.572h-.648l1.3-3.127Zm.229,2.1-.572-1.335-.572,1.335Zm1.716-2.1v3.127h2.174v-.534h-1.6V55.792h-.572Zm3.928,0h.648l1.3,3.127h-.648l-.229-.572H47.019l-.229.572h-.648Zm.343.763-.572,1.335h1.106Zm2.25-.763v3.127h2.174v-.534h-1.6V55.792h-.572Zm6.559-6.788a.668.668,0,0,0-.572-.381A7.568,7.568,0,0,1,53.463,47.4c-1.258-.8-2.479-1.564-3.508-1.335a1.548,1.548,0,0,0-.992.839.667.667,0,1,0,1.144.686v-.038c.076-.153.153-.153.191-.191.458-.114,1.6.61,2.441,1.144a13.137,13.137,0,0,0,2.021,1.144,7.262,7.262,0,0,1-4.119,1.335c-1.792.076-3.013-.305-3.318-.648-.534-.534-.114-3.928.305-5.72.153-.572.534-2.136.648-2.4a.708.708,0,0,0-.381-.877.692.692,0,0,0-.877.381c-.343,1.182-.61,2.25-.648,2.517a13.879,13.879,0,0,1-.992,2.746,28.881,28.881,0,0,0-3.547-4.271.676.676,0,0,0-.877,1.03,29.617,29.617,0,0,1,3.737,4.614,5.246,5.246,0,0,1-2.441,2.593,2.238,2.238,0,0,1-1.64-.267.661.661,0,0,0-.725,1.106,3.553,3.553,0,0,0,2.784.419,6.046,6.046,0,0,0,3.089-3.013,3.4,3.4,0,0,0,.572,2.059c.725.8,2.174,1.068,4.385,1.068,1.22-.076,4.271-.458,5.873-2.631a.645.645,0,0,0,.038-.648ZM39.811,41.987a.668.668,0,0,0-1.335.038c.076,4.767-.343,7.246-1.411,8.352a2.384,2.384,0,0,1-1.907.686,1.337,1.337,0,0,1-1.144-.419c-.419-.572-.076-1.792.076-2.174a.676.676,0,0,0-1.258-.5c-.076.229-.8,2.136.076,3.394a2.51,2.51,0,0,0,2.25.992,3.818,3.818,0,0,0,2.86-1.106C39.582,49.652,39.849,46.411,39.811,41.987Z" transform="translate(-25.388 -30.794)" fill="#060606"/>
    <g id="Group_777" data-name="Group 777" transform="translate(0 0)">
      <path id="Path_1613" data-name="Path 1613" d="M33.056,52.093A19.173,19.173,0,1,1,52.229,32.92,19.195,19.195,0,0,1,33.056,52.093Zm0-37.012A17.839,17.839,0,1,0,50.895,32.92,17.858,17.858,0,0,0,33.056,15.082Z" transform="translate(-13.883 -13.747)" fill="#060606"/>
    </g>
  </g>
</svg>
