<svg xmlns="http://www.w3.org/2000/svg" width="24.239" height="34.263" viewBox="0 0 24.239 34.263">
  <g id="placeholder_1_" data-name="placeholder (1)" transform="translate(0.25 0.25)">
    <g id="Group_917" data-name="Group 917" transform="translate(0 0)">
      <g id="Group_916" data-name="Group 916" transform="translate(0)">
        <path id="Path_2523" data-name="Path 2523" d="M87.87,0a11.872,11.872,0,0,0-10.1,18.111L87.194,33.3a.989.989,0,0,0,.84.468h.008a.989.989,0,0,0,.841-.481l9.182-15.331A11.872,11.872,0,0,0,87.87,0Zm8.5,16.935L88.019,30.873l-8.566-13.8a9.9,9.9,0,1,1,16.914-.134Z" transform="translate(-76)" stroke="#f5f5f5" stroke-width="0.5"/>
      </g>
    </g>
    <g id="Group_919" data-name="Group 919" transform="translate(5.935 5.935)">
      <g id="Group_918" data-name="Group 918">
        <path id="Path_2524" data-name="Path 2524" d="M171.935,90a5.935,5.935,0,1,0,5.935,5.935A5.942,5.942,0,0,0,171.935,90Zm0,9.9a3.97,3.97,0,1,1,3.963-3.97A3.973,3.973,0,0,1,171.935,99.9Z" transform="translate(-166 -90)" stroke="#f5f5f5" stroke-width="0.5"/>
      </g>
    </g>
  </g>
</svg>
