<svg width="27" height="24" viewBox="0 0 27 24" fill="none" xmlns="http://www.w3.org/2000/svg">
<path d="M10.3983 20.3858C10.8431 20.7427 11.3108 21.07 11.7983 21.3658C12.1402 21.5766 12.5106 21.737 12.8983 21.8418V22.6038C12.3766 22.4927 11.8781 22.2917 11.4253 22.0098C10.9098 21.6932 10.4143 21.3452 9.94141 20.9678L10.3983 20.3858ZM16.9453 20.9688C16.4725 21.3463 15.9769 21.6943 15.4613 22.0108C15.0067 22.2893 14.509 22.49 13.9884 22.6048V21.8428C14.376 21.7379 14.7465 21.5775 15.0884 21.3668C15.5758 21.0709 16.0435 20.7436 16.4884 20.3868L16.9453 20.9688ZM1.64539 8.91983C1.79804 11.2998 2.7832 13.5502 4.42834 15.2768C5.99242 16.9075 7.70188 18.3923 9.5354 19.7128L9.07739 20.2968C7.21 18.9529 5.47114 17.4388 3.8833 15.7738C2.11697 13.9094 1.06246 11.4832 0.904297 8.91983H1.64539ZM25.9794 8.91983C25.8214 11.4833 24.7668 13.9095 23.0004 15.7738C21.4125 17.4388 19.6738 18.9529 17.8064 20.2968L17.3374 19.7128C19.1767 18.3954 20.89 16.9104 22.4553 15.2768C24.0916 13.5445 25.075 11.2973 25.2373 8.91983H25.9794ZM14.2594 2.66683C15.2534 1.76181 16.4877 1.16344 17.814 0.943798C19.1402 0.724151 20.5017 0.892592 21.7344 1.42883C22.95 2.01689 23.9846 2.92156 24.7296 4.04777C25.4747 5.17397 25.9026 6.48009 25.9684 7.82883H25.2373C25.167 6.62422 24.7782 5.45987 24.1106 4.45473C23.443 3.4496 22.5205 2.63972 21.4374 2.10783C20.3373 1.63406 19.1244 1.48587 17.9426 1.68085C16.7609 1.87583 15.6599 2.4058 14.7704 3.20783L14.4863 2.90783C14.4143 2.82883 14.3383 2.74583 14.2623 2.66683H14.2594ZM5.13733 1.42883C6.37188 0.89266 7.73494 0.724264 9.06287 0.94387C10.3908 1.16348 11.6271 1.76175 12.6233 2.66683C12.5463 2.74583 12.4703 2.82583 12.3833 2.90783L12.0994 3.20783C11.2121 2.40576 10.1129 1.87564 8.93286 1.68062C7.75279 1.48559 6.54153 1.63389 5.44336 2.10783C4.35922 2.63838 3.43576 3.44792 2.76794 4.45333C2.10013 5.45875 1.71198 6.6238 1.64331 7.82883H0.912354C0.97848 6.48109 1.40576 5.17591 2.14941 4.04996C2.89307 2.92401 3.9258 2.0187 5.1394 1.42883H5.13733Z" fill="white" stroke="white" stroke-width="1.7"/>
</svg>
