<svg viewBox="0 0 19 19" fill="none" xmlns="http://www.w3.org/2000/svg"><path d="M12.134 4.276a1.631 1.631 0 1 0-2.528-2.062 1.631 1.631 0 0 0 2.528 2.062zM10.031 7.053l2.907 3.092a.66.66 0 0 0 .935.029.662.662 0 0 0 .029-.935l-3.698-3.935a.65.65 0 0 0-.085-.073c-.01-.01-.018-.02-.029-.029-.517-.435-1.529-.534-2.37.307-1.153 1.162-1.699 2.02-2.271 3.64-.329 1.218.377 1.705 1.015 2.007.167.08.312.142.442.174.035.013.068.028.105.037l2.367.572-.938 3.711a.882.882 0 0 0 1.71.433l1.157-4.576a.882.882 0 0 0-.648-1.074l-2.53-.61c.497-1.003 1.264-1.938 1.8-2.646.036-.04.07-.081.102-.124z" fill="#fff"/><path fill-rule="evenodd" clip-rule="evenodd" d="M19 15.2a3.8 3.8 0 1 1-7.6 0 3.8 3.8 0 0 1 7.6 0zm-3.8 1.9a1.9 1.9 0 1 0 0-3.8 1.9 1.9 0 0 0 0 3.8zM7.6 15.2a3.8 3.8 0 1 1-7.6 0 3.8 3.8 0 0 1 7.6 0zm-3.8 1.9a1.9 1.9 0 1 0 0-3.8 1.9 1.9 0 0 0 0 3.8z" fill="#fff"/></svg>