<svg viewBox="0 0 17 15" fill="none" xmlns="http://www.w3.org/2000/svg"><path d="M3.815 11.697H1.127v.97c0 .539 0 1.078.025 1.616.017.491.216.705.65.712h1.46a.46.46 0 0 0 .39-.127.492.492 0 0 0 .15-.393c.024-.281.035-.565.035-.848 0-.61 0-1.22-.015-1.829-.004-.023-.006-.064-.007-.1zM16.99 9.071V7.129a1.544 1.544 0 0 0-.242-.84c-.21-.34-.412-.687-.594-1.043l-.024-.048a.551.551 0 0 0 .071-.043.628.628 0 0 0 .226-.563l-.119-.68a.412.412 0 0 0-.148-.245.388.388 0 0 0-.269-.082l-.477.036c-.25-.582-.485-1.18-.718-1.776a17.252 17.252 0 0 0-.513-1.188.992.992 0 0 0-.305-.384.95.95 0 0 0-.447-.185 5.661 5.661 0 0 0-.868-.08c-.876 0-1.75.03-2.63.036-.707 0-1.414 0-2.122-.012L5.45.012a12.054 12.054 0 0 0-1.819.055c-.19.016-.374.082-.533.192-.159.11-.288.26-.376.435-.038.076-.08.15-.11.227-.275.7-.544 1.406-.824 2.104-.071.202-.149.401-.231.596l-.513-.048a.388.388 0 0 0-.269.083.412.412 0 0 0-.148.245l-.12.691a.628.628 0 0 0 .215.563.66.66 0 0 0 .117.062c-.209.411-.441.81-.695 1.192a.893.893 0 0 0-.13.406C0 7.079 0 7.345 0 7.61c0 .605.005 1.212.015 1.819 0 .347 0 .695.019 1.04a.73.73 0 0 0 .153.434.69.69 0 0 0 .377.248c.323.097.658.144.994.141.751.014 1.516.014 2.275.014h8.403c1.194 0 2.389.062 3.582-.037a3.11 3.11 0 0 0 .69-.15.648.648 0 0 0 .309-.212c.08-.101.131-.224.145-.354.022-.118.035-.238.038-.357.002-.373-.01-.752-.01-1.126zm-14.528.04c-.26 0-.515-.08-.731-.229a1.35 1.35 0 0 1-.485-.61 1.4 1.4 0 0 1-.074-.785c.05-.263.176-.505.36-.695.183-.19.418-.32.673-.372.255-.053.52-.026.76.077s.446.277.59.5a1.391 1.391 0 0 1 .122 1.276 1.363 1.363 0 0 1-.285.442 1.313 1.313 0 0 1-.427.295c-.16.068-.33.103-.503.103v-.002zm-.295-3.937c.009-.035.013-.054.02-.071L3.7 1.502c.017-.043.04-.084.06-.123a.261.261 0 0 1 .1-.117.25.25 0 0 1 .148-.038h8.937a.287.287 0 0 1 .195.049c.058.039.1.098.12.166.158.389.32.777.483 1.165l1.004 2.429c.013.03.024.064.043.11l-12.623.031zm12.335 3.94a1.286 1.286 0 0 1-.729-.236 1.351 1.351 0 0 1-.479-.615 1.4 1.4 0 0 1-.068-.786c.053-.263.18-.504.366-.692a1.276 1.276 0 0 1 1.436-.28c.24.104.444.28.587.506a1.392 1.392 0 0 1-.18 1.713 1.293 1.293 0 0 1-.933.39zm-1.315 2.616v1.589c0 .335.017.673.04 1.009.03.434.199.638.563.648a30.87 30.87 0 0 0 1.584 0 .413.413 0 0 0 .3-.101.44.44 0 0 0 .148-.287c.034-.152.053-.307.056-.462v-2.318a.755.755 0 0 0 0-.08h-2.681l-.01.002z" fill="#fff"/></svg>