<svg viewBox="0 0 12 8" fill="none" xmlns="http://www.w3.org/2000/svg"><path d="M10.443 1H1.557C1.25 1 1 1.217 1 1.484v5.032c0 .267.25.484.557.484h8.886c.307 0 .557-.217.557-.484V1.484c0-.267-.25-.484-.557-.484zm-8.886.252h8.886c.143 0 .26.099.266.222L6.226 4.671a.428.428 0 0 1-.452 0L1.291 1.474c.006-.123.123-.222.266-.222zM1.29 1.8L4.375 4 1.29 6.2V1.8zm9.153 4.948H1.557c-.143 0-.26-.099-.266-.222l3.313-2.363.986.703A.711.711 0 0 0 6 4.99a.712.712 0 0 0 .41-.123l.986-.703 3.313 2.363c-.006.123-.123.222-.266.222zm.266-.548L7.625 4l3.084-2.2v4.4z" fill="#fff" stroke="#fff" stroke-width=".4"/></svg>