<svg viewBox="0 0 15 18" fill="none" xmlns="http://www.w3.org/2000/svg"><path d="M14.318 9V2.77a.698.698 0 0 0-.2-.49.677.677 0 0 0-.482-.203V0H1.364v2.077a.677.677 0 0 0-.482.203.698.698 0 0 0-.2.49V9H0v5.539h1.364v2.423c0 .275.107.54.3.734.191.195.451.304.722.304h.682c.271 0 .532-.11.723-.304.192-.195.3-.459.3-.735V14.54h6.818v2.423c0 .275.108.54.3.734.191.195.452.304.723.304h.682c.27 0 .531-.11.723-.304.192-.195.3-.459.3-.735V14.54H15V9h-.682zm-1.193 2.77c0 .205-.06.405-.172.576-.113.17-.272.304-.46.383a1.008 1.008 0 0 1-1.114-.225 1.044 1.044 0 0 1-.222-1.132c.078-.19.209-.352.377-.466a1.012 1.012 0 0 1 1.291.129c.192.195.3.459.3.734zm-9.205 0c0 .205-.06.405-.172.576a1.008 1.008 0 0 1-1.574.157 1.043 1.043 0 0 1-.221-1.131c.077-.19.208-.352.377-.466a1.012 1.012 0 0 1 1.29.129c.193.195.3.459.3.734zM8.182 9V3.462h4.772V9H8.182zM2.045 3.462h4.773V9H2.045V3.462z" fill="#fff"/></svg>