<svg viewBox="0 0 10 20" fill="none" xmlns="http://www.w3.org/2000/svg"><path d="M9.238 10.666L7.345 8.06l-.371 2.35.903 1.243a.84.84 0 0 0 1.175.187.84.84 0 0 0 .186-1.175zM7.323 2.44a1.682 1.682 0 1 1-3.365 0 1.682 1.682 0 0 1 3.365 0zM4.158 14.435l-2.188 3.03a1.028 1.028 0 1 0 1.667 1.204l1.79-2.478-1.269-1.756z" fill="#fff"/><path d="M9.805 17.465l-3.86-5.345.797-5.033a2.055 2.055 0 0 0-1.71-2.352c-.67-.106-1.253.198-1.764.569L.844 7.065a.841.841 0 0 0-.337.55L.01 10.752a.841.841 0 0 0 1.662.263l.443-2.795 1.176-.855-.485 3.073c-.084.528.037.898.281 1.236l5.051 6.994a1.027 1.027 0 1 0 1.667-1.204z" fill="#fff"/></svg>