<svg viewBox="0 0 12 12" fill="none" xmlns="http://www.w3.org/2000/svg"><path d="M6 0a6 6 0 1 1 0 12A6 6 0 0 1 6 0zm4.408 2.854c-.461.309-.953.569-1.468.776.222.67.35 1.367.38 2.071h2.087a5.41 5.41 0 0 0-1-2.847zm-8.813 0A5.4 5.4 0 0 0 .6 5.702h2.08c.03-.705.158-1.402.38-2.072a7.996 7.996 0 0 1-1.466-.776zm8.813 6.292a5.4 5.4 0 0 0 1-2.847H9.322a7.59 7.59 0 0 1-.36 2.077c.507.207.99.465 1.445.77zM.6 6.296a5.407 5.407 0 0 0 1 2.85 7.993 7.993 0 0 1 1.444-.77 7.594 7.594 0 0 1-.366-2.08H.6zm5.107 1.512v-1.51H3.274c-.034.334.19 1.622.326 1.878a7.897 7.897 0 0 1 2.102-.366l.005-.002zm3.029-1.51H6.299V7.81a7.92 7.92 0 0 1 2.101.368c.197-.608.31-1.24.336-1.88zm-3.032-.6V4.19a7.93 7.93 0 0 1-2.084-.36c-.158.34-.393 1.643-.34 1.875h2.424v-.006zm2.683-1.871a7.943 7.943 0 0 1-2.088.36v1.515h2.435a7.04 7.04 0 0 0-.347-1.875zM3.8 8.734a7.045 7.045 0 0 0 1.902 2.62V8.4c-.368-.024-1.532.179-1.902.334zm2.498 2.622a7.057 7.057 0 0 0 1.904-2.627A7.38 7.38 0 0 0 6.298 8.4v2.956zM3.822 3.274c.428.16 1.592.36 1.88.322V.706a7.052 7.052 0 0 0-1.88 2.568zm4.36 0A7.052 7.052 0 0 0 6.299.706V3.6a7.397 7.397 0 0 0 1.883-.323v-.003zm-4.914-.195A7.722 7.722 0 0 1 4.824.72 5.388 5.388 0 0 0 1.962 2.4c.411.27.849.498 1.306.68zM7.178.72a7.748 7.748 0 0 1 1.56 2.36 7.216 7.216 0 0 0 1.305-.686A5.4 5.4 0 0 0 7.177.72zm.08 10.54a5.364 5.364 0 0 0 2.781-1.653A7.225 7.225 0 0 0 8.76 8.93a7.842 7.842 0 0 1-1.501 2.33zM1.963 9.607a5.371 5.371 0 0 0 2.782 1.653 7.828 7.828 0 0 1-1.498-2.33c-.45.182-.88.41-1.284.677z" fill="#fff"/></svg>