<svg id="Layer_x0020_1" xmlns="http://www.w3.org/2000/svg" width="198.653" height="44.578" viewBox="0 0 198.653 44.578">
  <g id="_1625820680176" transform="translate(0 0)">
    <path id="Path_1" data-name="Path 1" d="M5220.216,780.5v3.883h-.379a6.167,6.167,0,0,0-.751-1.931,2.848,2.848,0,0,0-1.133-.935,3.546,3.546,0,0,0-1.4-.191h-1.067v11.057a4.592,4.592,0,0,0,.119,1.375,1.1,1.1,0,0,0,.476.48,1.9,1.9,0,0,0,.968.209h.475v.39h-7.506v-.39h.477a1.982,1.982,0,0,0,1-.224.993.993,0,0,0,.432-.509,4.2,4.2,0,0,0,.12-1.332V781.331h-1.04a3,3,0,0,0-2.1.613,4.052,4.052,0,0,0-1.162,2.443h-.4V780.5Zm8.185,10.256h-5.064l-.6,1.4a3.079,3.079,0,0,0-.295,1.151.951.951,0,0,0,.487.888,4,4,0,0,0,1.4.256v.39h-4.768v-.39a2.136,2.136,0,0,0,1.268-.642,8.366,8.366,0,0,0,1.226-2.162l5.129-11.44h.2l5.167,11.757a7.143,7.143,0,0,0,1.217,2.1,1.669,1.669,0,0,0,1.018.383v.39h-6.937v-.39h.286a2.165,2.165,0,0,0,1.172-.235.564.564,0,0,0,.234-.487,1.254,1.254,0,0,0-.064-.39c-.014-.065-.12-.328-.317-.794l-.761-1.786Zm-.361-.783-2.133-4.937-2.2,4.937Zm12.742-1.671v4.02a4.459,4.459,0,0,0,.141,1.461,1.052,1.052,0,0,0,.5.484,3.415,3.415,0,0,0,1.347.18v.39h-7.34v-.39a3.237,3.237,0,0,0,1.349-.188,1.1,1.1,0,0,0,.5-.48,4.448,4.448,0,0,0,.14-1.458v-9.3a4.518,4.518,0,0,0-.14-1.465,1.045,1.045,0,0,0-.506-.48,3.314,3.314,0,0,0-1.341-.181V780.5h6.661a14.585,14.585,0,0,1,3.806.361,3.838,3.838,0,0,1,1.968,1.328,3.567,3.567,0,0,1,.761,2.266,3.4,3.4,0,0,1-1.144,2.624,4.7,4.7,0,0,1-2.039.982l3.446,4.854a7.46,7.46,0,0,0,.96,1.173,1.794,1.794,0,0,0,1.007.361v.39h-4.515l-4.62-6.536h-.942Zm0-7.03v6.279h.6a6.732,6.732,0,0,0,2.2-.267,2.189,2.189,0,0,0,1.148-.974,3.563,3.563,0,0,0,.419-1.833,2.788,2.788,0,0,0-3.238-3.2Zm17.813,13.176v.39h-7.5v-.39h.477a1.977,1.977,0,0,0,1-.224.946.946,0,0,0,.422-.509,4.23,4.23,0,0,0,.12-1.332v-9.43a4.622,4.622,0,0,0-.12-1.375,1.028,1.028,0,0,0-.469-.48,1.9,1.9,0,0,0-.957-.206h-.477V780.5h7.5v.393h-.476a1.979,1.979,0,0,0-1,.22,1,1,0,0,0-.433.509,4.414,4.414,0,0,0-.116,1.332v9.43a4.633,4.633,0,0,0,.119,1.375,1.105,1.105,0,0,0,.477.48,1.87,1.87,0,0,0,.957.209Zm10.848.516a4.113,4.113,0,0,0,1.512,2.115,4.42,4.42,0,0,0,2.57.707,5.007,5.007,0,0,0,.9-.083v.646a11.875,11.875,0,0,1-2.854.4,6.519,6.519,0,0,1-3.515-.964,5.863,5.863,0,0,1-2.33-2.822,7.039,7.039,0,0,1-4.194-2.548,7.408,7.408,0,0,1-1.592-4.767,7.2,7.2,0,0,1,2.159-5.345,8.074,8.074,0,0,1,10.931,0,7.227,7.227,0,0,1,2.147,5.341,7.447,7.447,0,0,1-1.682,4.854A6.544,6.544,0,0,1,5269.443,794.969Zm-1.88-13.988a3.217,3.217,0,0,0-2.941,1.978,10.43,10.43,0,0,0-.866,4.728,9.268,9.268,0,0,0,1.3,5.453,3.172,3.172,0,0,0,5.012.022,8.729,8.729,0,0,0,1.3-5.244,11.334,11.334,0,0,0-.812-4.991,3.225,3.225,0,0,0-2.992-1.945Zm19.708,6.969v4.439a4.551,4.551,0,0,0,.12,1.375,1.1,1.1,0,0,0,.476.48,1.87,1.87,0,0,0,.956.209h.476v.39H5281.8v-.39h.476a1.976,1.976,0,0,0,1-.224.938.938,0,0,0,.422-.509,4.2,4.2,0,0,0,.12-1.332v-9.43a4.587,4.587,0,0,0-.12-1.375,1.042,1.042,0,0,0-.469-.48,1.9,1.9,0,0,0-.957-.206h-.476V780.5h7.495v.393h-.476a1.981,1.981,0,0,0-1,.22,1,1,0,0,0-.432.509,4.28,4.28,0,0,0-.116,1.332v4.06h5.063v-4.06a4.822,4.822,0,0,0-.116-1.375,1.067,1.067,0,0,0-.477-.48,1.934,1.934,0,0,0-.963-.206h-.466V780.5h7.489v.393h-.466a1.962,1.962,0,0,0-1.006.22,1.039,1.039,0,0,0-.433.509,4.414,4.414,0,0,0-.116,1.332v9.43a4.783,4.783,0,0,0,.116,1.375,1.058,1.058,0,0,0,.477.48,1.9,1.9,0,0,0,.963.209h.466v.39h-7.489v-.39h.466a1.965,1.965,0,0,0,1.007-.224,1.025,1.025,0,0,0,.434-.509,4.412,4.412,0,0,0,.116-1.332V787.95Zm19.928,2.811h-5.063l-.6,1.4a3.068,3.068,0,0,0-.3,1.151.951.951,0,0,0,.487.888,4,4,0,0,0,1.4.256v.39h-4.768v-.39a2.129,2.129,0,0,0,1.267-.642,8.344,8.344,0,0,0,1.228-2.162l5.127-11.44h.2l5.167,11.757a7.129,7.129,0,0,0,1.216,2.1,1.671,1.671,0,0,0,1.018.383v.39h-6.936v-.39h.285a2.165,2.165,0,0,0,1.173-.235.564.564,0,0,0,.234-.487,1.3,1.3,0,0,0-.064-.39c-.015-.065-.12-.328-.318-.794l-.762-1.786Zm-.361-.783-2.133-4.937-2.2,4.937Zm20.66-.169-.537,5.034h-12.732v-.39h.476a1.975,1.975,0,0,0,1-.224.964.964,0,0,0,.426-.509,4.368,4.368,0,0,0,.115-1.332v-9.43a4.773,4.773,0,0,0-.115-1.375,1.054,1.054,0,0,0-.473-.48,1.894,1.894,0,0,0-.956-.206h-.476V780.5h7.647v.393h-.625a2,2,0,0,0-1.007.22,1.045,1.045,0,0,0-.433.509,4.4,4.4,0,0,0-.115,1.332v9.134a4.7,4.7,0,0,0,.126,1.4.841.841,0,0,0,.5.451,4.98,4.98,0,0,0,1.278.094h1.194a4.076,4.076,0,0,0,1.907-.4,3.521,3.521,0,0,0,1.313-1.27,10.183,10.183,0,0,0,1.053-2.559h.433Zm9.78.953h-5.062l-.6,1.4a3.088,3.088,0,0,0-.295,1.151.95.95,0,0,0,.487.888,4.007,4.007,0,0,0,1.4.256v.39h-4.767v-.39a2.129,2.129,0,0,0,1.266-.642,8.315,8.315,0,0,0,1.228-2.162l5.128-11.44h.2l5.167,11.757a7.173,7.173,0,0,0,1.216,2.1,1.67,1.67,0,0,0,1.018.383v.39h-6.936v-.39h.285a2.164,2.164,0,0,0,1.173-.235.566.566,0,0,0,.235-.487,1.256,1.256,0,0,0-.065-.39c-.015-.065-.119-.328-.318-.794l-.761-1.786Zm-.361-.783-2.131-4.937-2.2,4.937Zm20.661-.169-.538,5.034h-12.732v-.39h.477a1.979,1.979,0,0,0,1-.224.967.967,0,0,0,.425-.509,4.371,4.371,0,0,0,.116-1.332v-9.43a4.778,4.778,0,0,0-.116-1.375,1.05,1.05,0,0,0-.473-.48,1.9,1.9,0,0,0-.956-.206h-.477V780.5h7.647v.393h-.625a1.992,1.992,0,0,0-1.007.22,1.036,1.036,0,0,0-.433.509,4.455,4.455,0,0,0-.115,1.332v9.134a4.7,4.7,0,0,0,.126,1.4.84.84,0,0,0,.5.451,4.978,4.978,0,0,0,1.278.094h1.195a4.068,4.068,0,0,0,1.905-.4,3.528,3.528,0,0,0,1.314-1.27,10.2,10.2,0,0,0,1.053-2.559h.433Z" transform="translate(-5158.925 -772.926)" fill="#fff"/>
    <path id="Path_2" data-name="Path 2" d="M5155.623,3096.248l-.066.14-.166.026H5155l-.187.043-.155-.043-.813.069-.274-.069a1.554,1.554,0,0,1-.485.133h-.391l-.236-.09c0,.043-.033.074-.1.09a1.181,1.181,0,0,0-.35.052,1.12,1.12,0,0,1-.316.051l-.263-.1-.225.1-.024.083h-.116l-.07.129-.053.852.053.12-.025.142.013.378-.04.383v.115a.188.188,0,0,1-.034.125.463.463,0,0,0-.055.208l.1.168-.026.21-.089.065a.412.412,0,0,0,.077.2l-.077.129v.146l-.1.156.066.371-.026.539-.1.338a.208.208,0,0,1,.026.077.22.22,0,0,1-.024.088.125.125,0,0,0,0,.1.35.35,0,0,1,.015.079.56.56,0,0,1-.063.17c-.043.088-.059.142-.046.165a2.05,2.05,0,0,1,.046.2.834.834,0,0,0-.066.262,2.243,2.243,0,0,0,.027.288.457.457,0,0,1-.137-.019.537.537,0,0,0-.075-.018c-.068,0-.1-.126-.1-.378l.025-.2a2.638,2.638,0,0,0-.025-.314c-.015-.135-.024-.236-.024-.3l.077-.922a1.12,1.12,0,0,1-.1-.192.161.161,0,0,1,.063-.122.2.2,0,0,1-.05-.114c0-.026.026-.052.077-.079a.534.534,0,0,1-.051-.172.561.561,0,0,1,.043-.187.718.718,0,0,0,.046-.138l-.013-.212a1.393,1.393,0,0,1,.12-.289c-.072,0-.107-.057-.107-.172,0-.2.024-.313.077-.34v-.537l-.077-.262.077-.551-.077-.391.077-.306c-.036-.12-.094-.179-.18-.179a.152.152,0,0,0-.123.063l-.185.02a.424.424,0,0,0-.206.07l-.16-.013-.153.013v.043h-.109a.657.657,0,0,1-.352-.083l-.025.083-.276-.083-.76-.024-.3.09c-.228-.2-.337-.328-.337-.391a1.343,1.343,0,0,1,.05-.212h.211l.927.186.225-.077.614.026.577.051.385-.146h.1l.107-.3.179.057.04.129.083-.039a.753.753,0,0,0,.3.225l.21-.07a.467.467,0,0,1,.364.173l.079-.1.485-.1.3.026a.613.613,0,0,0,.236.057h.066a.567.567,0,0,1,.2-.044l.185.031a.078.078,0,0,0,.079-.044l.262-.039.3.07a.165.165,0,0,0,.183.024.6.6,0,0,1,.158-.042l.236.044.654-.013.288.053h.276Zm4.853,6.268a1.056,1.056,0,0,1,.012.167c0,.2-.1.3-.287.3-.128,0-.217-.109-.265-.327l-.089-.4v-.122a1.516,1.516,0,0,0,.013-.219.631.631,0,0,0-.133-.345l.089-.21-.052-.315.052-.153v-.212l.031-.186-.057-.206.057-.121v-.487l.013-.627-.1-.417.052-.174-.116-.5v-.159l-.212-.09-.236.216a.506.506,0,0,1-.13.083l-.222.1-.365.525-.148.038-.326.538v.063h-.089l-.04.115-.14.136a.584.584,0,0,0-.122.249l-.134.455-.2.256a.721.721,0,0,0-.089.218l-.129.121-.058.341-.275.262-.027.366h-.05l-.089.249-.212.378a2.383,2.383,0,0,0-.3.385l-.064-.027h-.083l-.04-.07-.114-.442-.026-.723-.04-.212.04-.262-.014-.455.063-.026.09-1.115.04-.21-.013-.162.071-.037-.03-.09.056-.461.064-.186-.038-.192.038-.1-.038-.076.038-.435-.064-.066.04-.09-.013-.5-.082-.226h.082v-.113l-.123-.54v-.262l-.05-.12-.066-.418a2.415,2.415,0,0,0-.208-.538l.146-.211-.026-.037a.139.139,0,0,1,.155.16l.186.166.05.155a.816.816,0,0,0,.16.216l-.031.116.083.235-.083.117.12.1-.011.339.011.653.079.333-.053.142.013.249-.05.212.037.326-.09.327.053.09-.026.8.026.123-.053.063-.057.487-.066.14.053.16-.027.076-.026.437-.126.376c.094.111.14.186.14.225l-.1.186a.692.692,0,0,1,.065.313l.121-.094.052-.168.206-.421.1-.3a.263.263,0,0,0,.209-.275,1.208,1.208,0,0,0,.192-.312l.058-.166a.689.689,0,0,1,.127-.213l.013-.172-.04-.04.09-.076.027.039.211-.262a.173.173,0,0,0,.1-.162v-.051c.113-.017.172-.1.172-.237l.037-.024v-.066l.109-.024.013-.173h.089l-.013-.1h.089v-.083a.376.376,0,0,1,.11-.066c.009,0,.013.008.013.027v.026l.014-.115h.037c.1,0,.156-.084.156-.25l.159-.129.026.053a.543.543,0,0,0,.121-.262l.089-.039.04-.11.1-.013a.281.281,0,0,1,.146-.065.628.628,0,0,0,.1-.024l-.026-.051a1.212,1.212,0,0,1,.328-.148c.055,0,.125.059.21.175a.1.1,0,0,1,.1.113l.116.1a1.342,1.342,0,0,0,.212.442v1.024l-.026.538.05.129v.959l-.024.173v.328l.024.275-.05.326a.86.86,0,0,1,.076.392l.129.159v.16l.109.052Zm5.23-1.1a.5.5,0,0,1,.1.219.576.576,0,0,1-.118.217,1.469,1.469,0,0,0-.185.352l-.1.013-.139.275-.16.026-.354.236-.063.142-.109-.013-.115.134h-.186l-.04.065-.089-.013a.319.319,0,0,0-.249.127l-.083-.064a.527.527,0,0,1-.219.064.386.386,0,0,1-.235-.064.933.933,0,0,1-.173.013l-.079-.063a.574.574,0,0,1-.472-.2v-.16l-.212-.116-.05-.135a.565.565,0,0,0-.143-.166v-.1l-.146-.621.024-.441.052-.25v-.276l.07-.238-.026-.173a.245.245,0,0,0,.09-.144.759.759,0,0,1,.079-.195,3.1,3.1,0,0,1-.053-.326l.116-.1-.116-.129a.577.577,0,0,0,.089-.185l-.063-.391a1.041,1.041,0,0,1,.038-.276.219.219,0,0,0,.173.116,1.529,1.529,0,0,0,.25-.051.311.311,0,0,1-.013-.09.2.2,0,0,1,.1-.161,2.385,2.385,0,0,1,.288-.6.314.314,0,0,0,.121-.263h.065l.063-.128.077-.031a.483.483,0,0,1,.136-.192.879.879,0,0,0,.352-.3.281.281,0,0,0,.107.013c.014,0,.048-.05.1-.146.151-.052.23-.079.239-.079a.152.152,0,0,1,.114.079l.123-.026.063.051h.079a.263.263,0,0,0,.262.212h.038a.205.205,0,0,0,.083.133l-.058.026c.149.072.226.243.226.507l-.039.146.039.365-.066.057-.146.392-.262.325-.013.185a3.969,3.969,0,0,1-.769.527c-.016.05-.044.076-.083.076a.429.429,0,0,1-.1-.026l-.286.2h-.175l-.25.116-.109-.065a1.079,1.079,0,0,0-.269-.051.636.636,0,0,0-.2.481l-.089.107a1.444,1.444,0,0,1-.064.341l-.07.038.07.474-.07.063.014.148-.014.179a2.149,2.149,0,0,0,.033.242c.019.134.055.21.1.232-.02.059.022.131.125.216a.919.919,0,0,0,.335.179v.076l.341.052.485.026.328-.039a1.392,1.392,0,0,1,.288-.173l.1-.153h.122l.013-.065a1.107,1.107,0,0,0,.31-.131.105.105,0,0,0,.028-.068.128.128,0,0,1,.116-.076l.04-.083a.425.425,0,0,0,.358-.378A.243.243,0,0,1,5165.707,3101.414Zm-1.076-2.99c.033,0,.092-.059.173-.159l.038-.155a2.454,2.454,0,0,0,.185-.344.536.536,0,0,0,.026-.181,1.525,1.525,0,0,0-.089-.385l-.263-.09a.69.69,0,0,1-.135.026l-.076-.026c-.063,0-.107.04-.134.117a1.074,1.074,0,0,0-.352.1l-.039.089a.126.126,0,0,0-.051-.013.084.084,0,0,0-.035.007.081.081,0,0,0-.03.02.249.249,0,0,0-.024.028.153.153,0,0,0-.024.042c-.006.018-.011.035-.018.055s-.013.037-.02.057a.437.437,0,0,1-.081.112l-.1.116-.185.352-.1.083a.328.328,0,0,0-.07.168,2.767,2.767,0,0,1-.345.614l.089.051.044.109.219.063a1.106,1.106,0,0,1,.4-.172l.038-.077a.351.351,0,0,0,.1.026.162.162,0,0,0,.123-.076l.153-.026.1-.16h.089l.063-.142a.449.449,0,0,0,.328-.159Zm6.729-.962-.04.162-.384.051-.249.185-.167.026-.212.127-.211.1a.789.789,0,0,1-.249.166v.066l-.193.1-.133.21h-.142l-.07.205-.147.1a.38.38,0,0,0-.141.14l-.126.238a.4.4,0,0,0-.173.352l-.065-.026-.024.084-.1.065-.089.223a.625.625,0,0,0-.141.3l-.123.051v.275a.38.38,0,0,0-.063.142l.025.044-.128.052.039.1a1.905,1.905,0,0,1-.2.472l.063.169-.127.209a1,1,0,0,1,.024.2l-.024.213.057.229a.353.353,0,0,0,.057.076l.1.1a.7.7,0,0,1-.16.225l-.173-.063.027.113-.289-.05v-.172l-.039-.117.039-.211-.039-.09.026-.448-.026-.3c-.059-.022-.09-.048-.09-.079a.337.337,0,0,1,.09-.159v-.192a1.281,1.281,0,0,0-.013-.223l.052-.065-.052-.249.039-.2-.039-.12.039-.352-.062-.1.037-.123-.076-.262.026-.205a1.5,1.5,0,0,0-.026-.236l.04-.065-.077-.448-.1-.063.1-.224a.731.731,0,0,1-.135-.437v-.178a.4.4,0,0,1-.077-.121.683.683,0,0,1,.326-.211l.1.025a.684.684,0,0,0,.142.307l-.026.327.129.992a.243.243,0,0,1-.079.173l.065.275-.039.2.039.211-.026.168.1.2-.056.039.044.3.1.024.045-.256a.768.768,0,0,1,.153-.229.428.428,0,0,0,.166-.328v-.076l.084-.038c.013,0,.024-.017.032-.048s.021-.048.044-.048h.039l.077-.258.2-.133.013-.076h.089l-.039-.148.2-.09.013-.159.186-.027a.607.607,0,0,0,.192-.249l.121-.026a1.373,1.373,0,0,1,.238-.236.066.066,0,0,0,.063-.04l.213-.114.05-.1.116-.066a1.094,1.094,0,0,1,.46-.249h.051a.27.27,0,0,0,.185-.063l.116.037a.287.287,0,0,1,.146-.063A.732.732,0,0,1,5171.36,3097.462Zm3.942,3.951a.488.488,0,0,1,.1.219.582.582,0,0,1-.119.217,1.481,1.481,0,0,0-.183.352l-.1.013-.139.275-.159.026-.354.236-.064.142-.108-.013-.114.134h-.186l-.039.065-.09-.013a.319.319,0,0,0-.249.127l-.083-.063a.539.539,0,0,1-.219.063.389.389,0,0,1-.235-.063.95.95,0,0,1-.172.013l-.079-.063a.571.571,0,0,1-.472-.2v-.159l-.212-.116-.05-.135a.564.564,0,0,0-.143-.166v-.1l-.146-.621.025-.441.052-.25v-.275l.07-.238-.026-.173a.246.246,0,0,0,.091-.144.719.719,0,0,1,.078-.195,3.238,3.238,0,0,1-.053-.326l.116-.1-.116-.129a.594.594,0,0,0,.09-.185l-.063-.391a1.065,1.065,0,0,1,.037-.276.219.219,0,0,0,.173.116,1.513,1.513,0,0,0,.251-.051.278.278,0,0,1-.014-.089.2.2,0,0,1,.1-.162,2.37,2.37,0,0,1,.289-.6.316.316,0,0,0,.12-.263h.065l.064-.128.076-.031a.507.507,0,0,1,.136-.192.88.88,0,0,0,.352-.3.279.279,0,0,0,.107.013c.013,0,.048-.05.1-.146.151-.052.229-.079.238-.079a.151.151,0,0,1,.113.079l.123-.026.064.051h.078a.265.265,0,0,0,.263.212h.037a.215.215,0,0,0,.083.133l-.057.026c.148.072.225.243.225.507l-.041.146.041.365-.066.057-.146.392-.263.325-.013.185a3.939,3.939,0,0,1-.769.527c-.016.051-.043.076-.083.076a.437.437,0,0,1-.1-.026l-.286.2h-.175l-.249.116-.109-.065a1.079,1.079,0,0,0-.269-.051.636.636,0,0,0-.2.481l-.089.108a1.369,1.369,0,0,1-.063.34l-.07.038.07.474-.07.063.014.149-.014.179a2.224,2.224,0,0,0,.033.243c.02.133.055.21.1.231-.02.059.022.131.126.216a.919.919,0,0,0,.335.18v.076l.341.052.485.026.328-.039a1.379,1.379,0,0,1,.288-.173l.1-.153h.123l.014-.065a1.113,1.113,0,0,0,.311-.131.112.112,0,0,0,.028-.067.127.127,0,0,1,.116-.077l.039-.083a.423.423,0,0,0,.358-.378A.24.24,0,0,1,5175.3,3101.414Zm-1.075-2.989c.033,0,.092-.059.172-.16l.037-.155a2.4,2.4,0,0,0,.187-.343.556.556,0,0,0,.025-.182,1.563,1.563,0,0,0-.089-.385l-.263-.09a.7.7,0,0,1-.136.026l-.076-.026c-.063,0-.107.04-.133.116a1.071,1.071,0,0,0-.352.1l-.039.09a.11.11,0,0,0-.05-.014.082.082,0,0,0-.035.007.092.092,0,0,0-.031.02.336.336,0,0,0-.024.028.142.142,0,0,0-.024.041c-.007.018-.011.035-.017.055s-.014.037-.021.056a.43.43,0,0,1-.08.112l-.1.116-.187.352-.1.083a.329.329,0,0,0-.069.168,2.784,2.784,0,0,1-.346.614l.09.051.044.109.218.063a1.115,1.115,0,0,1,.4-.172l.036-.077a.357.357,0,0,0,.1.026.161.161,0,0,0,.123-.076l.152-.026.1-.159h.09l.063-.142a.452.452,0,0,0,.328-.159v-.064Zm7.432-4.157a.466.466,0,0,1-.225.219v.083l-.116.129c-.037.051-.073.076-.1.076a.218.218,0,0,1-.07-.027l-.352.423-.09.142-.314.1-.159.236-.146.065a1.233,1.233,0,0,0-.288.249l-.077-.052-.013-.16.3-.134c.042-.214.1-.334.162-.363s.1-.046.1-.055v-.05l.063-.039.026.013.031-.1h.052l-.052-.115h.206v-.186l.1-.024.063-.1.1-.039.1-.173c.035,0,.061-.026.076-.076h.079l.011-.135a.453.453,0,0,0,.162-.262A.517.517,0,0,1,5181.659,3094.268Zm1.3,6.6-.023.128-.123.09-.052.16-.18.05a.635.635,0,0,1-.185.328l-.161.057-.139.153a1.212,1.212,0,0,0-.226.238h-.09a.368.368,0,0,1-.288.146c-.094.117-.146.184-.159.206a.666.666,0,0,1-.248.092c-.1.019-.161.035-.187.041l-.052.079h-.211l-.116.09-.326-.245-.185-.422-.027-.679-.038-.134.129-1.075.083-.065-.04-.671a.672.672,0,0,1,.038-.227,2.145,2.145,0,0,0,.065-.292l.052-.031a.837.837,0,0,0-.089-.365l.05-.173v-.244l.063-.084a1.5,1.5,0,0,0-.043-.207,1.193,1.193,0,0,1-.033-.131c0-.067.017-.1.052-.1a.035.035,0,0,0,.024.013.993.993,0,0,1-.089-.262c0-.064.03-.1.089-.1a.206.206,0,0,1,.087.035.219.219,0,0,0,.1.035.252.252,0,0,0,.065-.026c0-.072.028-.107.089-.107s.08.009.085.028a1.772,1.772,0,0,1,.035.247l.143.063-.117.146-.132.839.106.212a.311.311,0,0,1-.121.249l-.039.166.039.149-.154.537.012.063-.063.435v.314l-.1.21.025.179-.025.3a1.4,1.4,0,0,0,.109.59l-.014.07.116.076.133-.039.155.065.186-.089a.568.568,0,0,1,.223-.1l.089-.09.026.037.076-.1.136-.037a.743.743,0,0,1,.326-.173.227.227,0,0,1,.186-.1l.077-.123.146-.013-.031-.139h.057l.026-.07.275-.142.027-.16.249.013A.475.475,0,0,1,5182.958,3100.864Zm5.249.716-.089.1a4.04,4.04,0,0,0-.172.4l-.187.134.014.077h-.173l-.165.186h-.226l-.147.076a.2.2,0,0,0-.139.079.4.4,0,0,0-.175-.04.45.45,0,0,0-.167.04v.077l-.236-.027-.186.027-.172-.027-.026.039-.064-.039-.116.039h-.083a.633.633,0,0,0-.192.031l-.134-.043-.1.069-.053-.057-.1.057a.583.583,0,0,0-.275-.1.28.28,0,0,0-.113.04.584.584,0,0,0-.225-.059l-.289-.03a.67.67,0,0,0-.209.024l-.026-.051-.116.077a.115.115,0,0,0-.1-.051l-.037-.078c-.271-.011-.4-.2-.4-.575l.276-.039-.013-.1.063-.089.039.076h.077v.066l.122-.066c.068.013.1.046.1.1a.282.282,0,0,1-.041.116l.117.013v.2l.333.05.128.116.036-.063,1.679-.1.577-.109.031-.064.142-.026.037-.052a1.349,1.349,0,0,0,.525-.21l.039.037.026-.076.1-.076.014-.044-.066-.089.027-.116-.146-.122-.026-.1a.262.262,0,0,1-.129-.077l-.057.027-.129-.122h-.05l-.057-.077h-.129a.147.147,0,0,0-.146-.1l-.089.014a.621.621,0,0,1-.392-.136h-.136l-.166-.1-.083.05-.04-.063h-.09l-.146-.122-.392-.166-.146-.135-.441-.077-.013-.037-.371-.262-.167-.424-.135-.205-.037-.608.037-.064a.758.758,0,0,1,.135-.448c.162-.094.245-.185.25-.275l.089.013a.7.7,0,0,1,.245-.315l.159-.139.76-.328.385-.07.378-.116.59.039.023.076h.041a.227.227,0,0,1,.172.07v.115l.16.116c-.045.2-.07.319-.07.346a.1.1,0,0,1-.116.116c-.033,0-.1-.092-.187-.276l-.351-.026-.09.026a.994.994,0,0,0-.237-.155.034.034,0,0,0-.039.039l-.123.09a.514.514,0,0,0-.352.115.553.553,0,0,0-.339.16h-.146l-.109.083a1.122,1.122,0,0,1-.256.09l-.052.064-.07.039-.179.173-.123.192c-.122.081-.188.133-.193.16l-.133.537.063.039v.038a.446.446,0,0,0,.212.371v.065l.352.21h.083l.192.192h.263l.159.135.3.037.09.077.563.173c0,.052.033.078.1.078a.566.566,0,0,1,.294.077.807.807,0,0,0,.256.1l.013.063.114.063h.251l.223.148a.422.422,0,0,0,.173.236l-.014.04.066.089.114.024-.05.1A.416.416,0,0,1,5188.207,3101.58Zm8.753-2.106-.09.276.05.115-.044.308a.67.67,0,0,1-.1.2v.155l-.1.262-.079.113a1.554,1.554,0,0,0-.126.335l-.1.037-.05.175-.143.09-.109.236-.192.09-.017.172-.168.064c-.082.106-.134.174-.156.205a.392.392,0,0,1-.172.09.8.8,0,0,0-.184.076c-.022.137-.142.214-.365.232a.235.235,0,0,1-.186.1.345.345,0,0,1-.1-.026.747.747,0,0,1-.333.192l-.1.16-.172-.1-.039.077-.192-.077-.461-.044a1.936,1.936,0,0,0-.338-.468l.052-.173-.187-.474.077-.153-.077-.358.077-.206c0-.022-.006-.079-.019-.17a1.674,1.674,0,0,1-.021-.175.252.252,0,0,1,.136-.219v-.07a.608.608,0,0,1,.077-.289h.076a.364.364,0,0,0,.1-.249l-.039-.09.039-.2v-.129a.451.451,0,0,0,.116-.288l-.039-.21a.265.265,0,0,1,.039-.155c.131-.068.2-.133.2-.2a.234.234,0,0,0-.053-.135l.128-.223a.212.212,0,0,1,.079-.085.287.287,0,0,0,.068-.044l-.026-.129c.137-.013.205-.083.205-.21a.844.844,0,0,0-.037-.238.563.563,0,0,0,.574-.448h.083c.061-.059.1-.09.128-.09a.8.8,0,0,1,.112.033,1.063,1.063,0,0,0,.31.031l.206-.09v.09a.769.769,0,0,1,.333.149h.179c.043.085.085.126.123.126l.026-.011a1.034,1.034,0,0,0,.3.326l.063.16.12.053.206.3.212.6v.12Zm-.418.365a.269.269,0,0,0,.077-.159.126.126,0,0,0-.044-.091c-.03-.033-.045-.052-.045-.062h.077a.241.241,0,0,0-.09-.135l.026-.037-.089-.211.027-.289-.123-.205c-.094-.059-.141-.1-.141-.134v-.038a.069.069,0,0,0-.047-.069c-.034-.008-.048-.028-.048-.052v-.012a1.043,1.043,0,0,1,.057-.167l-.083-.065-.126-.013-.052-.1.052-.077-.175-.09-.126-.12-.372-.155-.153-.031c-.253,0-.375.07-.373.21l.019.437-.262.011-.41.251-.039.14-.146.1-.063.378-.129.09c-.025.013-.039.074-.039.186a.88.88,0,0,0,.025.236l-.159.09c-.035.018-.053.1-.053.252a.259.259,0,0,1-.12.2v.128l-.117.186v.116l-.039.083.026.179-.173.422.057.142v.306l-.057.218.013.319.192.252a.664.664,0,0,0,.229.14l.04.063.089-.024.083.024.153-.063.314.012.148-.039.039-.09.133.014c.137,0,.207-.044.207-.134l.185.05.04-.1.12-.013.066-.146a.379.379,0,0,0,.153-.179h.212l.063-.135.224-.2.085-.123a.379.379,0,0,1,.114-.109l.185-.1a1.678,1.678,0,0,1,.116-.365l-.026-.116.186-.083-.026-.064c.053-.072.1-.135.142-.186h-.063a.225.225,0,0,0,.051-.116.327.327,0,0,0-.021-.1.274.274,0,0,1-.02-.076.459.459,0,0,1,.041-.18.5.5,0,0,0,.038-.12A.068.068,0,0,0,5196.542,3099.838Zm9.208.763c.017.068-.038.135-.16.205l.018.044c0,.043-.057.133-.172.273a.606.606,0,0,0-.173.317l-.14.037a.287.287,0,0,1-.239.315c-.013.05-.032.077-.063.077h-.026a.128.128,0,0,1-.146.109l-.076.153-.186.039-.153.1a.421.421,0,0,1-.085.031l-.286.053-.1-.013-.1.013-.041-.053-.116-.013-.146-.186h-.063a.185.185,0,0,1-.052-.14.646.646,0,0,1-.209-.359v-.1l-.09-.172v-.076l.064-.039-.051-.186-.1-.237.017-.352-.132-.212v-.325a9.213,9.213,0,0,1-.187-1.167v-.051a.707.707,0,0,1-.026-.149.184.184,0,0,1,.013-.076.81.81,0,0,1-.153-.365l-.064-.057-.276.289-.134.185-.46.551-.179.326c-.063.142-.116.245-.153.31a1.615,1.615,0,0,1-.258.293l.04.12-.09.25-.1.013v.116h-.07l-.249.3c-.008.145-.066.228-.169.249a.861.861,0,0,0-.1.242c-.03.107-.08.165-.148.169l-.051.05a1.807,1.807,0,0,1-.227.324,2.306,2.306,0,0,1-.3.253c-.03.145-.085.232-.162.262l-.013.063a.331.331,0,0,1-.064.171.591.591,0,0,1-.312.145c-.066-.009-.113-.083-.148-.219s-.085-.22-.153-.249l-.04-.083.1-.168-.013-.16.065-.063-.065-.115.013-.16-.1-.288.09-.173-.05-.179a1.269,1.269,0,0,0,.089-.538v-.07a.486.486,0,0,0-.077-.155.222.222,0,0,0,.1-.159l-.026-.205.077-.5-.051-.1.01-.205-.062-.123.053-.416-.027-.146.037-.239-.037-.339.089-.173a.938.938,0,0,1,.26.1.266.266,0,0,1,.03.118,2.785,2.785,0,0,1,.012.3l.107.173-.037.251.049.538-.089.289.04.338v.16l-.123.192.083.275a1.517,1.517,0,0,0-.1.358l.066.154a1.7,1.7,0,0,0-.1.513l.013.472.038.066.16-.077h.129l.07-.289a.236.236,0,0,0,.179-.148c.013-.1.078-.153.2-.153a.289.289,0,0,1,.09-.2c.035,0,.075-.061.122-.185a1.211,1.211,0,0,0,.21-.276v-.179h.013c.035,0,.074-.03.12-.091a.2.2,0,0,1,.169-.094.524.524,0,0,1,.115-.236l.186-.225.167-.365a.691.691,0,0,1-.027-.133.036.036,0,0,1,.041-.04c.175-.113.262-.227.262-.339v-.159c.133-.052.2-.1.2-.142a.245.245,0,0,0-.019-.072.226.226,0,0,1-.021-.061c0-.044.018-.063.053-.063a.19.19,0,0,1,.1.037c.064-.234.161-.352.293-.352a.4.4,0,0,1,.115.026.409.409,0,0,1,.116-.3c.018-.055.118-.122.307-.2l.065-.1h.051a.609.609,0,0,0,.185.186l.026.089.063.027.026.249.172.1-.057.225.1.408v.379l.089.448.038.468.135.434.024.435c0,.009.029.051.067.127a.851.851,0,0,1,.088.291l.058.036v.2l.115.129-.026.1.089.051v.063a.4.4,0,0,0,.211.079.4.4,0,0,0,.2-.053.148.148,0,0,0,.063.027c.038,0,.076-.035.116-.1.122-.013.186-.046.186-.1v-.031c.01-.03.1-.074.262-.129a.828.828,0,0,1,.134-.129l-.014-.031a.372.372,0,0,1,.047-.074,1.188,1.188,0,0,1,.126-.116.42.42,0,0,0,.122-.138l.07-.14c.057-.077.14-.2.251-.371l.178-.09h.121l.04.186Zm3.6.391a.157.157,0,0,1,.083.12c0,.107-.028.166-.083.179-.1.167-.208.251-.314.251,0,.037-.142.184-.429.435a.388.388,0,0,0-.168.072c-.029.029-.088.083-.177.164a.24.24,0,0,0-.237.154l-.129.039-.05-.026-.039.11h-.04a.789.789,0,0,0-.275.076,2.17,2.17,0,0,1-.223.09l-.136.053h-.089l-.077-.117-.122-.1a1.26,1.26,0,0,0-.2-.345l-.039-.315.012-.152-.062-.083.014-.378-.014-.326.014-.161a.2.2,0,0,0,.037-.1.506.506,0,0,0-.09-.238c.035-.363.053-.564.053-.6a.384.384,0,0,0-.1-.238l.1-.051.037-.5-.027-.209.1-.238-.069-.262a.539.539,0,0,0,.109-.339v-.435l.038-.1-.011-.64.038-.635a1.055,1.055,0,0,1-.064-.494l.038-.4-.038-.142.064-.594a1.371,1.371,0,0,0,.15-.066.458.458,0,0,1,.1-.037.141.141,0,0,1,.052.027l.064.209.134.116-.1.135v.051a.354.354,0,0,0,.044.159c-.008.146-.039.218-.1.218l.04.07a2.347,2.347,0,0,0,.07.551l-.109.338.083.116a1,1,0,0,0-.146.5.15.15,0,0,0,.115.162l-.089.249a.71.71,0,0,1,.051.152.47.47,0,0,1-.051.174l.024.155-.063.422-.007.2a2.371,2.371,0,0,1-.109.416l.065.275-.04.5-.07.051.084.162-.058.249-.052.389.052.1-.052.039a.479.479,0,0,1,.083.314.429.429,0,0,1-.057.153l.057.146-.031.2.058.142-.027.107.143.43.159.064a.945.945,0,0,1,.3-.116l.076.013.179-.153a.45.45,0,0,1,.16-.072.264.264,0,0,1,.226-.126l.063-.07.1.013.027-.065.126-.037.122-.09.126-.039a1.242,1.242,0,0,0,.127-.116,1.145,1.145,0,0,1,.2-.159c0-.037.029-.07.083-.1a.063.063,0,0,0,.051.026.255.255,0,0,0,.129-.063Z" transform="translate(-5099.404 -3065.143)" fill="#fff" stroke="#fff" stroke-miterlimit="2.613" stroke-width="0.2"/>
    <path id="Path_3" data-name="Path 3" d="M11949.785,3381.154a.3.3,0,0,0-.135.238,1.085,1.085,0,0,0,.014.127l.077.475-.077.514.025.21-.063.179.038.577-.038.083v.468l-.027.372.052.127-.024.865.063.16-.063.076.038.238-.065.063.052.2h-.052l-.025.1v.2l-.063.161.025.114-.274.487-.027.249-.067-.011-.116.153a1.426,1.426,0,0,0-.238.332l-.238.143a.378.378,0,0,1-.375.3.06.06,0,0,1,.012.039c0,.031-.015.044-.052.044l-.055.053a.536.536,0,0,0-.222.152h-.144l-.04.052-.172-.039-.263.173-.156-.027-.42.066-.118-.013-.062.013-.385-.066h-.1l-.135-.12-.062.013-.461-.155-.328-.05-.076-.135-.211-.024-.089-.225-.122-.04-.179-.249-.187-.09-.173-.249a.4.4,0,0,0-.108-.1l-.205-.116.069-.166-.12-.133.014-.079a.9.9,0,0,0-.09-.339.853.853,0,0,1-.026-.186.967.967,0,0,1,.05-.262l.053-.146v-.039l.09-.051.03-.065.053.013.031-.153a1.05,1.05,0,0,1,.308-.358l.186-.052.315-.275.364.026c.06-.09.111-.133.16-.133s.089.035.089.107a.135.135,0,0,1-.014.066l-.172.076-.116.1a1.368,1.368,0,0,1-.3.116l-.089.186h-.187a2,2,0,0,1-.362.455l.011.249a.6.6,0,0,0-.107.332l-.065.039.29.678.262.1.039.155.408.4.156.047a.514.514,0,0,1,.166.1l.186.172h.211l.161.153.209-.026.088.083.753-.031.1-.027v.027c0,.046.018.07.05.07,0,0,.015-.009.032-.026a.465.465,0,0,1,.34-.133h.066l.414-.173v.058c.055-.044.084-.071.084-.084h-.044a.109.109,0,0,1,.084-.027.13.13,0,0,1,.062.014c.015-.076.052-.116.116-.116h.044l.025-.077c.061,0,.089-.035.089-.108h.015c.046,0,.082-.031.108-.1a.139.139,0,0,1,.115-.1l.039.031a.368.368,0,0,1,.2-.276.459.459,0,0,0,.154-.358h.069c.134-.282.229-.5.287-.667l-.025-.037.025-.332.065-.04v-.3l.051-.089-.116-.147a.6.6,0,0,0,.116-.13.607.607,0,0,0-.025-.1.69.69,0,0,1-.025-.2v-.053l.025-.538v-.763l-.063-.146.063-.263-.025-.3v-.69l-.025-.149.051-.14-.051-.123.051-.114-.025-.487-.122-.116.122-.12-.025-.1.025-.2-.065-.077.027-.162-.084-.153a.387.387,0,0,1-.167.1l-.063.16-.109.065-.025.153-.213.146.029.065-.1.147-.091.026-.037.064-.2.063v.173h-.095l-.04.156-.441.408-.3.339-.158.052-.078.123-.3.273-.125.026a2.829,2.829,0,0,1-.235.212l-.038.116-.114.063h-.109l-.062.123-.143.024-.262.262-.238.039-.1.09c-.064.022-.151.052-.262.1l-.04.1a.718.718,0,0,1-.3.037c-.187,0-.3-.037-.353-.113l-.262-.449-.026-.212-.133-.48v-.422l-.053-.129.084-.319-.06-.205.06-.056.011-.169.091-.2-.015-.3.066-.173-.066-.116.13-.6-.039-.4.039-.352-.115-.488.052-.113-.052-.1.1-.258-.051-.107.091-.079v-.173l.146-.013a.59.59,0,0,0,.173.264l-.044.09.085.017-.041.169.1.186-.036.089.036.21.065.052-.089.2.077.338-.155.211.078.09-.078.5v.461l-.057.064-.052.68-.141.186.026.12v.3l.063.18-.062.149.024.222-.051.1.051.116v.159l.144.147.042.155.091-.013.023.076.1-.064.275.024.1-.21.325-.129.012.039a.189.189,0,0,1,.1-.156,1.146,1.146,0,0,0,.222-.155.793.793,0,0,1,.28-.164l-.015.07c.042-.017.063-.042.063-.07a.212.212,0,0,0-.025-.063,1.033,1.033,0,0,0,.426-.3,1.124,1.124,0,0,1,.612-.33l.158-.262.026.076v-.114a.229.229,0,0,0,.207-.212l.146-.1a.193.193,0,0,0,.129-.186v-.037a1.072,1.072,0,0,1,.331-.173l.026-.1a2.666,2.666,0,0,0,.326-.437.579.579,0,0,0,.276-.262l.236-.5-.014-.3.1-.05v-.251l-.062-.21.038-.192-.116-.069-.013-.04a.3.3,0,0,1,.067-.144.582.582,0,0,0,.086-.171l.052-.037.013-.09a.266.266,0,0,1,.147-.052l.274.275.015.155.006.127a1.2,1.2,0,0,0,.122.251l-.077.083.025.18-.025.146.106.116-.106.013v.186l-.065.236.065.339-.014.251.039.09-.025.236.121.422Zm9.477-.627-.091.276.052.115-.045.308a.7.7,0,0,1-.1.2v.155l-.1.262-.077.114a1.314,1.314,0,0,0-.127.335l-.1.037-.051.175-.142.089-.109.236-.191.09-.018.173-.168.063c-.083.107-.135.174-.156.205a.386.386,0,0,1-.174.09.843.843,0,0,0-.183.076c-.021.138-.142.215-.365.232a.23.23,0,0,1-.186.1.349.349,0,0,1-.1-.026.75.75,0,0,1-.333.192l-.1.16-.177-.1-.037.076-.193-.076-.462-.044a1.9,1.9,0,0,0-.337-.468l.053-.172-.187-.475.077-.153-.077-.359.077-.205c0-.022-.008-.079-.019-.17s-.021-.151-.021-.175a.247.247,0,0,1,.136-.218v-.07a.623.623,0,0,1,.076-.289h.077a.364.364,0,0,0,.095-.249l-.038-.09.038-.2v-.128a.45.45,0,0,0,.118-.288l-.04-.21a.271.271,0,0,1,.04-.155c.131-.067.2-.133.2-.2a.243.243,0,0,0-.052-.136l.128-.223a.213.213,0,0,1,.078-.084.329.329,0,0,0,.069-.044l-.027-.129c.139-.013.206-.083.206-.21a.833.833,0,0,0-.037-.238.565.565,0,0,0,.575-.448h.083c.061-.059.1-.09.128-.09a.87.87,0,0,1,.111.033,1.1,1.1,0,0,0,.311.031l.205-.09v.09a.783.783,0,0,1,.333.149h.179c.044.085.085.126.122.126l.027-.01a1.031,1.031,0,0,0,.3.326l.063.159.122.052.2.3.214.6v.119Zm-.417.365a.288.288,0,0,0,.076-.16.128.128,0,0,0-.044-.092c-.03-.032-.045-.052-.045-.061h.076a.264.264,0,0,0-.089-.136l.025-.037-.091-.212.027-.289-.124-.2c-.094-.06-.14-.105-.14-.134v-.039a.067.067,0,0,0-.048-.068.054.054,0,0,1-.047-.053v-.013a1.047,1.047,0,0,1,.057-.167l-.084-.065-.127-.013-.053-.1.053-.076-.175-.09-.127-.12-.37-.155-.154-.03c-.253,0-.376.07-.371.209l.018.437-.262.011-.409.251-.039.14-.148.1-.062.378-.129.09c-.024.013-.04.074-.04.186a.812.812,0,0,0,.027.236l-.159.09c-.037.017-.054.1-.054.251a.256.256,0,0,1-.12.2v.128l-.115.186v.116l-.041.083.027.179-.173.422.057.143v.306l-.057.219.013.319.192.251a.641.641,0,0,0,.229.14l.041.064.088-.024.084.024.153-.064.313.013.147-.039.04-.09.133.014c.136,0,.205-.044.205-.134l.187.051.038-.1.12-.013.065-.147c.095-.072.146-.132.154-.179h.211l.063-.135.223-.2.085-.122a.367.367,0,0,1,.114-.109l.187-.1a1.618,1.618,0,0,1,.116-.365l-.025-.116.184-.083-.025-.063c.053-.072.1-.135.142-.186h-.064a.228.228,0,0,0,.052-.115.291.291,0,0,0-.021-.1.351.351,0,0,1-.017-.077.486.486,0,0,1,.038-.179.529.529,0,0,0,.037-.12A.065.065,0,0,0,11958.845,3380.892Zm9.205.763c.018.067-.037.135-.157.205l.015.044c0,.043-.055.133-.171.273a.612.612,0,0,0-.173.317l-.139.038a.288.288,0,0,1-.24.315c-.013.05-.032.076-.062.076h-.029a.127.127,0,0,1-.146.109l-.075.153-.185.04-.153.1a.5.5,0,0,1-.086.031l-.288.052-.1-.013-.1.013-.039-.052-.114-.013-.146-.186h-.065a.188.188,0,0,1-.051-.14.638.638,0,0,1-.211-.358v-.1l-.091-.173v-.076l.065-.039-.051-.186-.1-.236.02-.351-.134-.212v-.325a9.2,9.2,0,0,1-.185-1.167v-.05a.693.693,0,0,1-.027-.149.176.176,0,0,1,.013-.076.788.788,0,0,1-.152-.365l-.065-.057-.275.289-.134.185-.461.551-.178.326c-.065.142-.116.245-.152.311a1.685,1.685,0,0,1-.26.292l.04.12-.092.249-.1.014v.115h-.07l-.249.3c-.009.145-.067.228-.169.249a.872.872,0,0,0-.1.243c-.03.106-.08.164-.148.169l-.052.05a1.665,1.665,0,0,1-.226.323,2.3,2.3,0,0,1-.3.253c-.031.144-.086.232-.162.263l-.015.063a.3.3,0,0,1-.063.17.577.577,0,0,1-.312.144c-.066-.009-.112-.083-.148-.218s-.086-.221-.152-.25l-.041-.083.1-.168-.013-.16.064-.063-.064-.116.013-.16-.1-.288.09-.173-.049-.179a1.255,1.255,0,0,0,.089-.538v-.07a.523.523,0,0,0-.075-.155.224.224,0,0,0,.1-.16l-.024-.205.076-.5-.052-.1.013-.206-.064-.122.052-.415-.024-.146.037-.239-.037-.339.089-.172a.926.926,0,0,1,.259.1.253.253,0,0,1,.032.118c.007.061.011.162.011.3l.107.173-.037.251.048.537-.089.289.04.339v.16l-.122.192.082.275a1.525,1.525,0,0,0-.095.358l.065.153a1.65,1.65,0,0,0-.1.513l.013.472.037.065.16-.076h.129l.069-.289a.233.233,0,0,0,.179-.149c.016-.1.079-.153.2-.153a.291.291,0,0,1,.089-.2c.034,0,.074-.062.121-.186a1.043,1.043,0,0,0,.21-.276v-.179h.015c.036,0,.073-.03.12-.092a.2.2,0,0,1,.168-.094.545.545,0,0,1,.115-.236l.186-.225.167-.365a.791.791,0,0,1-.026-.134.035.035,0,0,1,.039-.039c.175-.114.264-.228.264-.339v-.159c.132-.052.2-.1.2-.142a.211.211,0,0,0-.019-.072.175.175,0,0,1-.019-.061c0-.043.016-.063.051-.063a.188.188,0,0,1,.1.037c.064-.234.161-.352.293-.352a.415.415,0,0,1,.117.026.4.4,0,0,1,.115-.3c.017-.055.118-.122.306-.2l.065-.1h.051a.634.634,0,0,0,.184.186l.027.089.063.026.026.25.173.1-.059.225.1.408v.378l.087.448.038.468.137.435.025.435c0,.009.027.05.067.127a.876.876,0,0,1,.087.291l.057.037v.2l.114.128-.025.1.091.05v.063a.356.356,0,0,0,.411.026.142.142,0,0,0,.063.027c.037,0,.077-.035.114-.1.123-.013.188-.046.188-.1v-.031c.011-.03.1-.074.262-.129a.946.946,0,0,1,.133-.129l-.015-.031a.617.617,0,0,1,.051-.074,1.051,1.051,0,0,1,.126-.116.467.467,0,0,0,.121-.138l.069-.14c.057-.077.141-.2.253-.371l.179-.09h.12l.037.186Zm4.156.813a.5.5,0,0,1,.1.219.585.585,0,0,1-.119.217,1.489,1.489,0,0,0-.185.352l-.1.013-.139.275-.16.026-.354.236-.062.142-.11-.013-.114.133h-.185l-.04.066-.089-.014a.321.321,0,0,0-.249.127l-.083-.064a.521.521,0,0,1-.219.064.386.386,0,0,1-.234-.064.944.944,0,0,1-.175.013l-.08-.063a.572.572,0,0,1-.47-.2v-.16l-.212-.116-.05-.135a.588.588,0,0,0-.144-.166v-.1l-.146-.621.026-.442.05-.249v-.276l.07-.238-.025-.173a.243.243,0,0,0,.089-.144.728.728,0,0,1,.08-.195,2.951,2.951,0,0,1-.053-.325l.113-.1-.113-.129a.582.582,0,0,0,.089-.186l-.064-.391a1.008,1.008,0,0,1,.039-.276.212.212,0,0,0,.171.116,1.446,1.446,0,0,0,.251-.05.355.355,0,0,1-.013-.089.2.2,0,0,1,.1-.162,2.4,2.4,0,0,1,.288-.6.309.309,0,0,0,.12-.262h.067l.062-.129.077-.031a.492.492,0,0,1,.136-.192.9.9,0,0,0,.353-.3.272.272,0,0,0,.106.013c.013,0,.049-.05.1-.146.148-.053.229-.079.237-.079a.149.149,0,0,1,.113.079l.122-.026.063.05h.08a.261.261,0,0,0,.26.212h.039a.214.214,0,0,0,.083.134l-.057.026c.148.072.223.243.223.508l-.037.146.037.365-.063.057-.146.391-.262.326-.013.185a3.9,3.9,0,0,1-.771.527c-.015.051-.044.077-.082.077a.421.421,0,0,1-.1-.026l-.286.2h-.177l-.247.116-.109-.065a1.074,1.074,0,0,0-.269-.051.629.629,0,0,0-.2.481l-.091.107a1.275,1.275,0,0,1-.062.341l-.069.038.069.474-.069.063.011.149-.011.179a2.027,2.027,0,0,0,.034.243c.018.133.053.209.1.231-.018.06.022.131.126.216a.926.926,0,0,0,.335.179v.076l.344.053.484.026.326-.04a1.43,1.43,0,0,1,.288-.172l.1-.154h.122l.013-.065a1.166,1.166,0,0,0,.312-.131.107.107,0,0,0,.028-.068.128.128,0,0,1,.116-.077l.038-.083a.425.425,0,0,0,.359-.378A.244.244,0,0,1,11972.206,3382.467Zm-1.074-2.99c.029,0,.09-.059.173-.16l.036-.155a2.657,2.657,0,0,0,.186-.343.624.624,0,0,0,.027-.182,1.528,1.528,0,0,0-.091-.384l-.264-.09a.651.651,0,0,1-.135.026l-.076-.026c-.064,0-.105.04-.133.116a1.063,1.063,0,0,0-.352.1l-.041.09a.109.109,0,0,0-.048-.014.1.1,0,0,0-.038.007.089.089,0,0,0-.028.02.325.325,0,0,0-.024.028.159.159,0,0,0-.023.041c-.008.018-.012.036-.021.055s-.011.037-.018.057a.453.453,0,0,1-.08.112l-.1.116-.187.352-.095.083a.322.322,0,0,0-.069.168,2.943,2.943,0,0,1-.345.614l.087.051.044.109.22.064a1.131,1.131,0,0,1,.4-.173l.036-.076a.36.36,0,0,0,.1.026.157.157,0,0,0,.123-.077l.153-.026.1-.159h.089l.064-.142a.457.457,0,0,0,.329-.16v-.064Z" transform="translate(-11832.485 -3346.197)" fill="#fff" stroke="#fff" stroke-miterlimit="2.613" stroke-width="0.2"/>
    <path id="Path_4" data-name="Path 4" d="M6.814,4.351a9.712,9.712,0,0,0,.257,2.224c-.615,0-1.232.012-1.823.059a16.432,16.432,0,0,0-4,.672C.46,7.578.158,7.755,0,8.257c.079.007.149.026.244.042l.527.043c.2,0,1.245.091,1.373.11a10.346,10.346,0,0,1,3.536,1.14,2.822,2.822,0,0,1,.658.511l.363.806c.172.8-1.507,1.786-2.114,2.277-.055.044-.08.078-.134.122l-.438.36a5.041,5.041,0,0,0-1.688,4.523,2.646,2.646,0,0,0,.718,1.421,2.578,2.578,0,0,0,.625.459c.168.06,1.669.389,1.835.389a5.442,5.442,0,0,1-.3,1.043,33.624,33.624,0,0,0-1.357,4.659c-.044.185-.074.373-.12.565A26.455,26.455,0,0,0,3.25,30.3l-.028.97c-.01.34-.017.589,0,.94a11.5,11.5,0,0,0,.817,3.887A10.585,10.585,0,0,0,5,37.84a10.158,10.158,0,0,0,.879,1.117,14.119,14.119,0,0,0,4.736,3.333A16.888,16.888,0,0,0,15.477,43.5l5.109.28H24.04a.709.709,0,0,0,.313-.052l.138-.233a5.271,5.271,0,0,0-.4-1.454l-.267-.845c-.245-.746-.47-1.519-.7-2.266s-.48-1.489-.7-2.265c-.109-.384-.252-.766-.353-1.13-.213-.773-.474-1.5-.7-2.265-.294-1-.737-2.471-1.049-3.4-.374-1.112-.671-2.289-1.047-3.4-.255-.753-.449-1.5-.7-2.267s-.845-2.654-1.051-3.4c-.1-.369-.243-.744-.353-1.13l-1.05-3.4c-.5-1.51-.9-3.024-1.4-4.534-.37-1.125-.688-2.286-1.041-3.407a9.317,9.317,0,0,1-.374-1.108c-.036-.242,1.051-.372,1.282-.371.331,0,1.385-.047,1.606-.076a9.029,9.029,0,0,0,.99-.151,10.415,10.415,0,0,0,1.649-.574,6.924,6.924,0,0,0,.726-.386,8.953,8.953,0,0,0,1.325-.928c.35-.289.729-.569,1.068-.871.067-.06.074-.072.152-.133s.087-.083.148-.137l.3-.266A15.288,15.288,0,0,0,23.842,2.1a8.334,8.334,0,0,0,.963-1.29c-.163.078-1.36.246-1.646.293-.559.093-1.093.19-1.685.253-.262.028-.641.038-.9.073-.236.032-1.506.008-1.874.008A20.69,20.69,0,0,1,14.33.94C13.534.76,11.65,0,11.4-.04h-.428A4.655,4.655,0,0,0,8,1.264a4.005,4.005,0,0,0-.881,1.258,4.951,4.951,0,0,0-.31,1.829Z" transform="translate(0 0.04)" fill="#fff" fill-rule="evenodd"/>
    <path id="Path_5" data-name="Path 5" d="M1906.844,816.755a10.925,10.925,0,0,0,.26,3.275c.254.822.709,2.05.937,2.883.039.142.082.29.131.439.142.424.376,1.243.5,1.694q.476,1.695.973,3.418l.741,2.537c.25.842.516,1.69.792,2.516.2.594.338,1.083.513,1.682l.487,1.708c.206.734.526,1.731.768,2.511.336,1.086.669,2.324,1.012,3.379.311.955.411,1.63.752,2.555a5.872,5.872,0,0,0,.945-.737,3.98,3.98,0,0,0,.288-.282l1.145-1.107a1.719,1.719,0,0,0,.265-.276l1.983-1.98c.233-.224,1.2-1.172,1.385-1.409l.534-.607a40.427,40.427,0,0,0,5.953-10.441,21.491,21.491,0,0,0,.957-3.548,14.5,14.5,0,0,0,.23-2.772v-1.16a8.564,8.564,0,0,0-.138-1.316c-.074-.444-.145-.817-.25-1.233a15.555,15.555,0,0,0-1.075-2.945c-.049-.1-.088-.148-.134-.237-.212-.408-.318-.564-.543-.94a11.421,11.421,0,0,0-1.659-1.99,10.919,10.919,0,0,0-3.162-2,15.873,15.873,0,0,0-2.18-.757,14.507,14.507,0,0,0-4.944-.159,15.774,15.774,0,0,0-1.636.474c-.257.09-.522.193-.758.3l-1.239.586a7.915,7.915,0,0,0-2.827,2.733,6.647,6.647,0,0,0-.9,2.266,4.8,4.8,0,0,0-.112.943Z" transform="translate(-1889.109 -801.787)" fill="#fff" fill-rule="evenodd"/>
    <path id="Path_6" data-name="Path 6" d="M460.963,1172.946a12.8,12.8,0,0,0,.783,2.833,10.663,10.663,0,0,0,2.5,3.776,10.811,10.811,0,0,0,1.5,1.208,14.6,14.6,0,0,0,3.682,1.734,21.374,21.374,0,0,0,2.908.686l6.779.358-1.228-1.4a21.842,21.842,0,0,1-1.66-2.1c-.3-.431-.583-.828-.871-1.3a39.039,39.039,0,0,1-2.551-4.975,7.244,7.244,0,0,0-.324-.762c-.119-.385-.307-.8-.451-1.2a33.643,33.643,0,0,1-1.148-3.9,26.219,26.219,0,0,1-.7-5.959,23.058,23.058,0,0,1,.3-3.339,24.873,24.873,0,0,0,.365-3.276,3.981,3.981,0,0,0-.913-2.727c-1.282-1.565-3.662-1.8-4.555.3-.864,2.032.122,4.153-.751,6.547-.168.462-.369.844-.563,1.262-.11.238-.625,1.067-.64,1.171a18.267,18.267,0,0,0-1.29,2.2,14.506,14.506,0,0,0-.922,2.583,15.028,15.028,0,0,0-.247,6.28Z" transform="translate(-456.454 -1140.67)" fill="#fff" fill-rule="evenodd"/>
    <path id="Path_7" data-name="Path 7" d="M1993.009,1096.7c.032.315.123.7.179,1.027.06.342.107.689.16,1.034a50.813,50.813,0,0,1,.578,6.614,30.273,30.273,0,0,1-.311,4.484c-.1.695-.228,1.361-.357,2.038l-.3,2.118c.5-.113,1.407-1.339,1.792-1.764.142-.156.291-.294.431-.453l1.277-1.4c.077-.081.1-.129.2-.23l.612-.728c.465-.532,1.973-2.425,2.372-2.988.5-.7.992-1.308,1.472-2.093a19.525,19.525,0,0,0,2.269-4.861,17.17,17.17,0,0,0,.687-2.893,16.025,16.025,0,0,0-.913-9.157,10.219,10.219,0,0,0-5.285-5.352,10.939,10.939,0,0,0-6.79-.631,5.591,5.591,0,0,0-3.146,2.159,9.746,9.746,0,0,0-1.084,1.568,11.97,11.97,0,0,0-.8,1.855l-.445,2.149c.379.14,1.594-1.338,3.1-.936,1.79.476,2.956,3.4,3.456,5.039A25.78,25.78,0,0,1,1993.009,1096.7Z" transform="translate(-1967.149 -1071.13)" fill="#fff" fill-rule="evenodd"/>
    <path id="Path_8" data-name="Path 8" d="M3448.279,3990.19a3.74,3.74,0,1,1-2.645,1.1A3.728,3.728,0,0,1,3448.279,3990.19Zm2.263,1.475a3.2,3.2,0,1,0,.938,2.264A3.19,3.19,0,0,0,3450.542,3991.665Z" transform="translate(-3412.513 -3953.091)" fill="#fff"/>
    <path id="Path_9" data-name="Path 9" d="M3681.791,4189.307v-3.847h1.636a2.769,2.769,0,0,1,.9.1.878.878,0,0,1,.448.368,1.11,1.11,0,0,1,.167.606,1.029,1.029,0,0,1-.254.715,1.223,1.223,0,0,1-.761.354,1.784,1.784,0,0,1,.416.324,4.4,4.4,0,0,1,.442.625l.47.75h-.929l-.562-.837a5.613,5.613,0,0,0-.41-.566.612.612,0,0,0-.234-.161,1.333,1.333,0,0,0-.391-.042h-.156v1.606h-.778Zm.778-2.22h.574a3.008,3.008,0,0,0,.7-.047.42.42,0,0,0,.218-.164.5.5,0,0,0,.078-.287.463.463,0,0,0-.1-.314.484.484,0,0,0-.293-.152c-.063-.007-.252-.012-.567-.012h-.606Z" transform="translate(-3647.559 -4146.546)" fill="#fff"/>
    <path id="Path_10" data-name="Path 10" d="M460.963,1172.946a12.8,12.8,0,0,0,.783,2.833,10.663,10.663,0,0,0,2.5,3.776,10.811,10.811,0,0,0,1.5,1.208,14.6,14.6,0,0,0,3.682,1.734,21.374,21.374,0,0,0,2.908.686l6.779.358-1.228-1.4a21.842,21.842,0,0,1-1.66-2.1c-.3-.431-.583-.828-.871-1.3a39.039,39.039,0,0,1-2.551-4.975,7.244,7.244,0,0,0-.324-.762c-.119-.385-.307-.8-.451-1.2a33.643,33.643,0,0,1-1.148-3.9,26.219,26.219,0,0,1-.7-5.959,23.058,23.058,0,0,1,.3-3.339,24.873,24.873,0,0,0,.365-3.276,3.981,3.981,0,0,0-.913-2.727c-1.282-1.565-3.662-1.8-4.555.3-.864,2.032.122,4.153-.751,6.547-.168.462-.369.844-.563,1.262-.11.238-.625,1.067-.64,1.171a18.267,18.267,0,0,0-1.29,2.2,14.506,14.506,0,0,0-.922,2.583,15.028,15.028,0,0,0-.247,6.28Z" transform="translate(-456.454 -1140.67)" fill="#fff" fill-rule="evenodd"/>
    <path id="Path_11" data-name="Path 11" d="M1993.009,1096.7c.032.315.123.7.179,1.027.06.342.107.689.16,1.034a50.813,50.813,0,0,1,.578,6.614,30.273,30.273,0,0,1-.311,4.484c-.1.695-.228,1.361-.357,2.038l-.3,2.118c.5-.113,1.407-1.339,1.792-1.764.142-.156.291-.294.431-.453l1.277-1.4c.077-.081.1-.129.2-.23l.612-.728c.465-.532,1.973-2.425,2.372-2.988.5-.7.992-1.308,1.472-2.093a19.525,19.525,0,0,0,2.269-4.861,17.17,17.17,0,0,0,.687-2.893,16.025,16.025,0,0,0-.913-9.157,10.219,10.219,0,0,0-5.285-5.352,10.939,10.939,0,0,0-6.79-.631,5.591,5.591,0,0,0-3.146,2.159,9.746,9.746,0,0,0-1.084,1.568,11.97,11.97,0,0,0-.8,1.855l-.445,2.149c.379.14,1.594-1.338,3.1-.936,1.79.476,2.956,3.4,3.456,5.039A25.78,25.78,0,0,1,1993.009,1096.7Z" transform="translate(-1967.149 -1071.13)" fill="#fff" fill-rule="evenodd"/>
  </g>
</svg>
