<?xml version="1.0" encoding="UTF-8"?>
<svg version="1.1" xmlns="http://www.w3.org/2000/svg" width="267" height="364">
<path d="M0 0 C1.52568814 -0.00435654 3.0513741 -0.0095428 4.57705688 -0.01548767 C8.69087568 -0.02878863 12.80460211 -0.02946627 16.9184382 -0.02692437 C20.36731352 -0.02584844 23.81617062 -0.03075392 27.26504201 -0.03552979 C35.40994444 -0.04659452 43.55480074 -0.04707973 51.69970703 -0.04101562 C60.06861619 -0.03497999 68.43735706 -0.04728341 76.80623752 -0.06858569 C84.02191585 -0.08626911 91.23754093 -0.09219242 98.4532401 -0.08894795 C102.74937886 -0.08714543 107.04539759 -0.08966707 111.34151649 -0.10366249 C115.38575626 -0.11634634 119.429736 -0.11419836 123.47397232 -0.1012516 C124.94681707 -0.09890892 126.41968073 -0.10153618 127.89250374 -0.10987473 C147.42933761 -0.21239296 165.03362904 4.32565719 179.6237793 17.8371582 C190.28147948 29.0054069 196.66335097 43.6246201 196.70172119 59.05921936 C196.70617787 60.06360657 196.70617787 60.06360657 196.71072459 61.08828443 C196.71937429 63.32498236 196.72091669 65.56162653 196.72241211 67.79833984 C196.72704306 69.40520338 196.7320681 71.01206583 196.73745728 72.618927 C196.75055978 76.98086738 196.75702247 81.34279237 196.76146793 85.70474935 C196.76440318 88.43377274 196.76850892 91.16279198 196.77297211 93.89181328 C196.78664369 102.44120357 196.79631103 110.9905843 196.800174 119.53998476 C196.80464884 129.38803339 196.8221715 139.23594282 196.85117459 149.08394915 C196.87284557 156.70880573 196.88288122 164.33362331 196.88421512 171.95851034 C196.88525961 176.50619358 196.89109094 181.05374592 196.90903473 185.60139656 C196.92560848 189.88519836 196.92762616 194.16877217 196.91889572 198.45259476 C196.9181302 200.01658301 196.92240336 201.580584 196.93235397 203.14454079 C197.0424202 221.53692369 192.96403457 237.58040027 179.79956055 251.09887695 C179.06092773 251.81688477 178.32229492 252.53489258 177.5612793 253.2746582 C176.93608398 253.92047852 176.31088867 254.56629883 175.66674805 255.23168945 C162.89296715 267.57519563 145.347572 269.73648142 128.42651367 269.6628418 C126.83831931 269.66691617 125.25012778 269.67226287 123.66194153 269.67877197 C119.38298538 269.69234854 115.10424833 269.68718724 110.82528877 269.67763472 C106.32659482 269.66998766 101.8279184 269.67709764 97.32922363 269.68179321 C89.7774726 269.68723617 82.22580986 269.68009764 74.67407227 269.66577148 C65.96938611 269.64944779 57.26491083 269.65473734 48.56022978 269.6712507 C41.05835792 269.68490734 33.55654919 269.68676488 26.0546689 269.67893469 C21.58647491 269.67428106 17.11837973 269.6735692 12.65019226 269.68354416 C8.4475242 269.69227266 4.24512545 269.68608569 0.04248619 269.66886139 C-1.49085864 269.66492773 -3.02422652 269.66597638 -4.55756187 269.67264938 C-22.57065875 269.7437554 -40.22207512 265.31805188 -53.4387207 252.2746582 C-67.17151123 236.68174053 -70.74438005 221.38719966 -70.72924805 201.23095703 C-70.73524274 199.62822154 -70.74205043 198.02548892 -70.74960327 196.42276001 C-70.76717632 192.09395503 -70.771955 187.76522927 -70.77323484 183.43639207 C-70.77466213 180.72423064 -70.77894264 178.01208898 -70.78422928 175.29993248 C-70.80270193 165.81615306 -70.8109035 156.33242963 -70.80932617 146.84863281 C-70.80812604 138.04404295 -70.82921022 129.23969871 -70.8608135 120.43517095 C-70.88706965 112.84667567 -70.89768955 105.25826016 -70.89641535 97.66971987 C-70.89590839 93.15048642 -70.90144298 88.63147143 -70.92277145 84.11228371 C-70.94231173 79.85624596 -70.94217199 75.60063155 -70.92773819 71.34457779 C-70.92566828 69.79474574 -70.93024056 68.24488606 -70.94245911 66.69510078 C-71.08565398 47.25181569 -66.14776535 31.13943307 -52.2902832 17.00512695 C-37.44457193 2.78985 -19.84032009 -0.0377737 0 0 Z " fill="#00A3FF" transform="translate(70.438720703125,-0.274658203125)"/>
<path d="M0 0 C5.13571132 1.16594527 9.22278575 4.97456775 13.3125 8.125 C14.42334961 8.96998047 14.42334961 8.96998047 15.55664062 9.83203125 C17.37501609 11.21634289 19.18924674 12.60574226 21 14 C20.60167969 14.70125 20.20335937 15.4025 19.79296875 16.125 C14.54788027 25.51766453 10.91601875 33.79102502 10.84228516 44.72314453 C10.82689194 46.37614059 10.82689194 46.37614059 10.81118774 48.06253052 C10.80388641 49.24072357 10.79658508 50.41891663 10.7890625 51.6328125 C10.76098492 54.15625639 10.7323204 56.6796938 10.703125 59.203125 C10.66197735 63.15917719 10.62506608 67.11510967 10.59863281 71.07128906 C10.57083474 74.90454733 10.52495695 78.73726598 10.4765625 82.5703125 C10.47330963 83.73636017 10.47005676 84.90240784 10.46670532 86.10379028 C10.27821747 98.85714196 7.72009138 111.98444219 -1.0625 121.75 C-12.28356961 132.04812449 -27.23132946 134.65398168 -41.89453125 134.21875 C-52.69238755 133.72218268 -61.99976906 130.87582915 -72 127 C-71.35502791 123.3291482 -70.68202781 119.6641356 -70 116 C-69.76603516 114.66388672 -69.76603516 114.66388672 -69.52734375 113.30078125 C-69.37394531 112.50027344 -69.22054687 111.69976562 -69.0625 110.875 C-68.92972656 110.15054688 -68.79695313 109.42609375 -68.66015625 108.6796875 C-68.44230469 108.12539062 -68.22445312 107.57109375 -68 107 C-65 106 -65 106 -63.01953125 106.70703125 C-62.29121094 107.07183594 -61.56289063 107.43664062 -60.8125 107.8125 C-51.07952071 112.32747755 -40.583415 113.81653417 -30.0625 110.9375 C-25.42729944 109.13113507 -22.6217761 106.1645219 -20 102 C-18.14765034 97.76605793 -17.54902824 93.57523535 -17 89 C-17.65742187 89.433125 -18.31484375 89.86625 -18.9921875 90.3125 C-28.8358286 96.07463138 -38.97442964 96.8449587 -50.05859375 94.296875 C-52.53952329 93.38345944 -54.7142698 92.32440324 -57 91 C-57.77601562 90.57589844 -58.55203125 90.15179688 -59.3515625 89.71484375 C-69.15881556 83.8272119 -75.57733985 74.02333085 -78.58325195 63.08349609 C-81.30644578 49.46912229 -79.84224847 35.20295936 -72.390625 23.46484375 C-65.35217317 13.79504411 -55.97673102 6.33865162 -44 4 C-33.39874918 2.92040684 -22.42962717 5.29952712 -14 12 C-13.21625 12.5775 -12.4325 13.155 -11.625 13.75 C-11.08875 14.1625 -10.5525 14.575 -10 15 C-9.95875 14.34 -9.9175 13.68 -9.875 13 C-8.28423165 7.5459371 -4.69272195 3.1284813 0 0 Z " fill="#FCFEFF" transform="translate(117,68)"/>
<path d="M0 0 C11.92963094 -0.54105951 23.29693095 1.65923514 32.703125 9.578125 C41.21222467 17.66560261 47.33884275 27.1569601 47.7109375 39.19140625 C48.10630066 55.64597844 46.39612002 67.7634309 34.6640625 80.08984375 C24.83151419 89.46086428 12.49464721 92.63244575 -0.77734375 92.41015625 C-14.39132502 91.74982899 -25.24605175 87.43539085 -34.5625 77.2265625 C-41.71638314 67.54226654 -44.08278642 58.25775494 -44 46.3515625 C-44.01998047 45.33964844 -44.03996094 44.32773438 -44.06054688 43.28515625 C-44.05272231 31.06318743 -39.72220127 21.27257615 -31.5625 12.2265625 C-22.22708836 4.00468852 -12.17920137 0.77455447 0 0 Z " fill="#FCFEFF" transform="translate(181.5625,71.7734375)"/>
<path d="M0 0 C0 3.96 0 7.92 0 12 C-1.093125 11.95875 -2.18625 11.9175 -3.3125 11.875 C-7.08892229 11.67925334 -7.08892229 11.67925334 -10 14 C-10.73606499 17.56769552 -10.73606499 17.56769552 -11 21 C-6.71 21 -2.42 21 2 21 C2.0928125 18.7725 2.0928125 18.7725 2.1875 16.5 C2.73972594 11.01662979 4.41368359 7.17901296 8 3 C12.29372364 -0.24647397 16.2539841 -1.14296452 21.5625 -1.125 C22.70912109 -1.12886719 22.70912109 -1.12886719 23.87890625 -1.1328125 C26 -1 26 -1 29 0 C29 3.96 29 7.92 29 12 C27.906875 11.95875 26.81375 11.9175 25.6875 11.875 C21.91107771 11.67925334 21.91107771 11.67925334 19 14 C17.7811879 17.55672179 17.7811879 17.55672179 17 21 C20.96 21 24.92 21 29 21 C29 24.63 29 28.26 29 32 C25.04 32 21.08 32 17 32 C17.01571045 33.24088379 17.0314209 34.48176758 17.04760742 35.76025391 C17.10204088 40.37835155 17.13639892 44.996421 17.16479492 49.61474609 C17.17985098 51.61088841 17.20030027 53.60699781 17.22631836 55.60302734 C17.26284161 58.47762185 17.27975837 61.35177772 17.29296875 64.2265625 C17.30845261 65.11429352 17.32393646 66.00202454 17.33988953 66.91665649 C17.34169689 73.62005126 16.13105962 77.81938085 11.3125 82.75 C6.29284837 86.58273893 1.17224817 87.28388991 -5 86.625 C-6.32 86.41875 -7.64 86.2125 -9 86 C-8.67 82.04 -8.34 78.08 -8 74 C-3.545 73.505 -3.545 73.505 1 73 C1.33 59.47 1.66 45.94 2 32 C-2.29 32 -6.58 32 -11 32 C-10.98952637 33.04341553 -10.97905273 34.08683105 -10.96826172 35.16186523 C-10.93178811 39.07003282 -10.90900094 42.97818566 -10.89013672 46.88647461 C-10.88014103 48.57107075 -10.86653996 50.25564981 -10.84912109 51.94018555 C-10.82458724 54.37553141 -10.81345242 56.81064592 -10.8046875 59.24609375 C-10.79436493 59.98709824 -10.78404236 60.72810272 -10.77340698 61.49156189 C-10.77201304 68.13607748 -11.10251771 75.880647 -15.875 80.9375 C-16.36742187 81.48277344 -16.85984375 82.02804687 -17.3671875 82.58984375 C-21.92571232 86.52675155 -27.1531294 86.95277164 -33 87 C-36.125 86.0625 -36.125 86.0625 -38 85 C-37.85892253 83.54119891 -37.71197585 82.08296449 -37.5625 80.625 C-37.48128906 79.81289063 -37.40007812 79.00078125 -37.31640625 78.1640625 C-37 76 -37 76 -36 74 C-33.67843403 73.59270772 -31.3431213 73.25561323 -29 73 C-27.12690255 68.22195844 -26.665772 63.83499409 -26.5859375 58.7578125 C-26.56657135 57.98944061 -26.5472052 57.22106873 -26.5272522 56.42941284 C-26.46785883 53.99471862 -26.42123372 51.55997607 -26.375 49.125 C-26.33678307 47.46612614 -26.29772921 45.80727133 -26.2578125 44.1484375 C-26.16219093 40.09911458 -26.07801299 36.04969887 -26 32 C-28.31 32 -30.62 32 -33 32 C-33 28.37 -33 24.74 -33 21 C-30.69 21 -28.38 21 -26 21 C-26.03480469 20.41992188 -26.06960937 19.83984375 -26.10546875 19.2421875 C-26.34055726 12.45820489 -25.14101795 8.5460754 -20.6875 3.25 C-14.84520525 -1.64122351 -7.14221045 -2.38073682 0 0 Z " fill="#00A3FF" transform="translate(238,276)"/>
<path d="M0 0 C5.02692063 0.45699278 8.14896261 2.99241748 12 6 C11.53454426 9.0720079 10.81618321 11.39066981 9.48242188 14.2253418 C7.85192345 17.971358 7.61721119 21.22765601 7.59375 25.33203125 C7.58291382 26.00868332 7.57207764 26.68533539 7.56091309 27.38249207 C7.52696405 29.52592611 7.51113593 31.66883396 7.5 33.8125 C7.38623244 55.54952308 7.38623244 55.54952308 1.8125 62.875 C-5.73955658 68.5809983 -13.471837 70.93073115 -23 70 C-33.16170213 67.91914894 -33.16170213 67.91914894 -37 66 C-36.01 62.04 -35.02 58.08 -34 54 C-32.515 54.495 -31.03 54.99 -29.5 55.5 C-23.72170447 57.2163254 -18.91928335 58.14232827 -13.125 55.875 C-10.44333239 53.50882269 -9.83819654 51.42898584 -9 48 C-9.639375 48.33 -10.27875 48.66 -10.9375 49 C-17.66519196 51.19679737 -23.60910997 50.4481748 -29.921875 47.3359375 C-34.9608664 44.09658589 -38.19316305 39.68095582 -40 34 C-40.98458213 24.93148042 -40.8138268 16.45505063 -35 9 C-29.02242006 3.32478792 -24.04629352 1.6666205 -15.875 1.69921875 C-11.5493663 2.15176467 -8.6990956 3.76658379 -5 6 C-3.35 4.02 -1.7 2.04 0 0 Z M-24 19 C-25.69873108 24.09619323 -25.67173165 28.90922656 -23.6875 33.875 C-22.20697799 37.20041937 -22.20697799 37.20041937 -19 39 C-16.04230823 39.50010524 -16.04230823 39.50010524 -13 39 C-10.15219381 36.76793569 -9.15002334 35.45007001 -8 32 C-7.8552037 30.04524991 -7.77932498 28.0848862 -7.75 26.125 C-7.72421875 25.09632813 -7.6984375 24.06765625 -7.671875 23.0078125 C-8.04792142 19.5607203 -8.93898486 17.76407171 -11 15 C-17.32981349 10.78012434 -19.89862622 13.18972048 -24 19 Z " fill="#00A3FF" transform="translate(42,294)"/>
<path d="M0 0 C5.50664315 3.38316638 9.49991072 8.28125043 11.4375 14.4375 C12.24710421 22.75947812 12.55202297 31.41034379 7.4375 38.4375 C3.38358027 42.74427991 -0.17332242 46.2299008 -6.3046875 46.60546875 C-7.33851563 46.61191406 -8.37234375 46.61835938 -9.4375 46.625 C-10.46617187 46.63917969 -11.49484375 46.65335937 -12.5546875 46.66796875 C-15.5625 46.4375 -15.5625 46.4375 -20.5625 44.4375 C-20.5625 51.3675 -20.5625 58.2975 -20.5625 65.4375 C-25.8425 65.4375 -31.1225 65.4375 -36.5625 65.4375 C-36.61219116 59.19361512 -36.64835699 52.94984712 -36.67236328 46.70581055 C-36.68237844 44.58469638 -36.69599446 42.46359587 -36.71337891 40.3425293 C-36.73782525 37.28170384 -36.74902825 34.22106203 -36.7578125 31.16015625 C-36.76813507 30.22228775 -36.77845764 29.28441925 -36.78909302 28.31813049 C-36.79051897 19.82019362 -36.10671497 12.21376274 -30.5625 5.4375 C-22.73212106 -2.32816507 -10.25566099 -4.63094769 0 0 Z M-17.875 11.25 C-20.64182423 14.83662401 -20.74664745 17.91135452 -20.8125 22.3125 C-20.83828125 23.34117187 -20.8640625 24.36984375 -20.890625 25.4296875 C-20.51457858 28.8767797 -19.62351514 30.67342829 -17.5625 33.4375 C-14.31423326 35.60301116 -13.33155843 35.98906953 -9.5625 35.4375 C-5.86852207 32.69340211 -4.60314824 29.86025503 -3.5625 25.4375 C-2.90835838 19.55022541 -4.31831325 15.29194002 -7.5625 10.4375 C-11.35781479 8.53984261 -14.53571965 8.63272621 -17.875 11.25 Z " fill="#00A3FF" transform="translate(141.5625,297.5625)"/>
<path d="M0 0 C5.31765537 3.96242767 8.48927768 8.22796463 10.296875 14.63671875 C11.32154528 23.03901503 10.27845491 31.22132642 4.984375 38.07421875 C-0.60957981 43.84554285 -6.53741966 45.4367729 -14.453125 45.69921875 C-22.08286086 45.4607895 -26.45887484 43.67491888 -32.203125 38.82421875 C-37.96735803 31.90713911 -39.08967528 24.93075241 -38.390625 16.19921875 C-36.98560169 9.10965158 -32.64138621 3.04894432 -26.6484375 -0.96875 C-18.72600168 -4.5899492 -7.46870983 -4.54825278 0 0 Z M-21.390625 13.19921875 C-23.22875065 18.71359569 -23.11372868 24.27094228 -21.078125 29.69921875 C-19.47269979 32.41844406 -19.47269979 32.41844406 -16.390625 34.19921875 C-11.4287384 34.06540195 -11.4287384 34.06540195 -7.515625 31.32421875 C-4.90429711 26.39171052 -4.9067857 21.65726557 -5.390625 16.19921875 C-6.93290966 12.08645966 -7.72733907 10.64140937 -11.390625 8.19921875 C-16.41235094 7.27416397 -18.26278476 9.46318735 -21.390625 13.19921875 Z " fill="#00A3FF" transform="translate(91.390625,298.80078125)"/>
<path d="M0 0 C5.75587183 2.72095759 8.70123051 6.8278256 11.0859375 12.65234375 C12.20298837 16.74342321 12.38389729 20.46529088 12.375 24.6875 C12.37258301 25.8779895 12.37258301 25.8779895 12.37011719 27.0925293 C12.1933235 35.61069191 10.32981821 43.86798861 4 50 C-0.72571848 52.88279123 -5.63485982 52.71433878 -11 52 C-15.8924531 50.15412941 -18.21661354 47.09224092 -20.375 42.4375 C-24.08983616 33.11810668 -25.26620063 20.09348135 -21.3125 10.6875 C-16.27526781 1.577612 -10.00198223 -1.14635899 0 0 Z " fill="#02A4FF" transform="translate(189,92)"/>
<path d="M0 0 C5.32837115 2.57635528 7.84459171 7.07323053 10.02734375 12.421875 C12.54232257 21.8132516 12.36893959 34.62528342 8.02734375 43.421875 C5.20404277 47.76229461 2.2549742 51.27434637 -2.97265625 52.421875 C-8.81782333 53.07133801 -12.39632473 51.87980131 -16.97265625 48.421875 C-22.95218141 42.77454568 -24.08165157 35.03669543 -24.37963867 27.15454102 C-24.49324087 18.84340433 -24.14478561 10.93781012 -18.21875 4.5234375 C-12.63262292 -0.44460036 -7.42785049 -2.176875 0 0 Z " fill="#02A4FF" transform="translate(89.97265625,92.578125)"/>
<path d="M0 0 C4.95 0 9.9 0 15 0 C15.04898438 2.03542969 15.09796875 4.07085937 15.1484375 6.16796875 C15.20408724 8.15049079 15.25980372 10.13301157 15.31738281 12.11547852 C15.35554288 13.48778581 15.39041796 14.86018871 15.421875 16.23266602 C15.46780682 18.2113229 15.52673637 20.18966442 15.5859375 22.16796875 C15.6173584 23.35672607 15.6487793 24.5454834 15.68115234 25.77026367 C16.01393096 29.14111233 16.51069791 32.51069791 19 35 C22.51745287 34.74751373 22.51745287 34.74751373 26 34 C27.47206013 31.05587973 27.23807192 28.03714085 27.31640625 24.8046875 C27.33718735 24.09724396 27.35796844 23.38980042 27.37937927 22.66091919 C27.44481078 20.39904575 27.50372974 18.13705538 27.5625 15.875 C27.60569133 14.34243578 27.64930582 12.80988343 27.69335938 11.27734375 C27.80128289 7.51834732 27.90040283 3.75926325 28 0 C33.28 0 38.56 0 44 0 C44.0693672 4.10807974 44.1289454 8.2146423 44.16479492 12.32299805 C44.17975938 13.71662328 44.20013851 15.11020244 44.22631836 16.50366211 C44.55251341 34.32926203 44.55251341 34.32926203 39.38671875 41.12109375 C38.82597656 41.55550781 38.26523438 41.98992187 37.6875 42.4375 C37.13449219 42.88996094 36.58148438 43.34242188 36.01171875 43.80859375 C29.16571818 47.86302127 21.71249151 47.71314134 14 47 C8.59250846 45.46566574 5.0325778 42.78214191 2 38 C-0.11414131 33.77219119 -0.2640654 29.92882579 -0.1953125 25.29296875 C-0.1924826 24.56757401 -0.18965271 23.84217926 -0.18673706 23.09480286 C-0.17559799 20.79219632 -0.15050566 18.48998773 -0.125 16.1875 C-0.11496206 14.62044835 -0.10583763 13.05339057 -0.09765625 11.48632812 C-0.077386 7.65727775 -0.0382271 3.82908104 0 0 Z " fill="#00A3FF" transform="translate(157,297)"/>
</svg>
