<svg xmlns="http://www.w3.org/2000/svg" width="125" height="39" viewBox="0 0 125 39">
  <g id="gray-app-store" transform="translate(0.249 0.372)">
    <g id="Group_37" data-name="Group 37">
      <rect id="Rectangle_28" data-name="Rectangle 28" width="125" height="39" rx="5" transform="translate(-0.249 -0.372)" fill="#5b6063"/>
      <path id="Path_15" data-name="Path 15" d="M25.932,18.4a5.817,5.817,0,0,1,2.712-4.873,5.8,5.8,0,0,0-4.593-2.533c-1.932-.207-3.806,1.179-4.791,1.179-1,0-2.519-1.159-4.152-1.125a6.106,6.106,0,0,0-5.148,3.2c-2.224,3.93-.564,9.706,1.568,12.882,1.067,1.557,2.313,3.294,3.944,3.232,1.6-.066,2.192-1.037,4.118-1.037,1.909,0,2.468,1.038,4.133,1,1.712-.028,2.791-1.563,3.82-3.133A12.922,12.922,0,0,0,29.29,23.56,5.6,5.6,0,0,1,25.931,18.4ZM23.626,8.744A5.439,5.439,0,0,0,24.832,4.9a5.326,5.326,0,0,0-3.467,1.828,5.168,5.168,0,0,0-1.236,3.7,4.394,4.394,0,0,0,3.5-1.684Z" transform="translate(1.561 0.859)" fill="#fff" fill-rule="evenodd"/>
    </g>
    <g id="Group_38" data-name="Group 38" transform="translate(35.82 16.03)">
      <path id="Path_16" data-name="Path 16" d="M41.391,26.969H39.184L37.976,23.11h-4.2l-1.152,3.859H30.476l4.161-13.134h2.572l4.184,13.134Zm-3.78-5.477-1.093-3.43q-.173-.525-.651-2.474h-.039q-.194.837-.615,2.474l-1.073,3.43Zm14.484.625a5.443,5.443,0,0,1-1.287,3.82,3.736,3.736,0,0,1-2.856,1.246A2.843,2.843,0,0,1,45.3,25.838h-.038v4.989H43.194V20.613q0-1.516-.076-3.115H44.94l.118,1.5h.038a3.65,3.65,0,0,1,5.9-.373,5.28,5.28,0,0,1,1.1,3.491Zm-2.112.076a3.948,3.948,0,0,0-.614-2.28,2.109,2.109,0,0,0-1.8-.936,2.144,2.144,0,0,0-1.39.517,2.4,2.4,0,0,0-.815,1.355,2.813,2.813,0,0,0-.094.642V23.07a2.551,2.551,0,0,0,.623,1.744,2.05,2.05,0,0,0,1.62.712,2.108,2.108,0,0,0,1.822-.917,4.078,4.078,0,0,0,.652-2.417Zm12.834-.076a5.438,5.438,0,0,1-1.287,3.82,3.732,3.732,0,0,1-2.856,1.246,2.838,2.838,0,0,1-2.647-1.345h-.039v4.989H53.917V20.613q0-1.516-.078-3.115h1.822l.115,1.5h.039a3.651,3.651,0,0,1,5.9-.373,5.292,5.292,0,0,1,1.1,3.491Zm-2.111.076a3.948,3.948,0,0,0-.615-2.28,2.106,2.106,0,0,0-1.8-.936,2.147,2.147,0,0,0-1.392.517,2.4,2.4,0,0,0-.815,1.355,2.88,2.88,0,0,0-.094.642V23.07a2.561,2.561,0,0,0,.621,1.744,2.055,2.055,0,0,0,1.622.712,2.107,2.107,0,0,0,1.822-.917,4.078,4.078,0,0,0,.653-2.417Zm14.1,1.092a3.523,3.523,0,0,1-1.147,2.727,5.033,5.033,0,0,1-3.521,1.152,6.084,6.084,0,0,1-3.35-.819l.478-1.755a5.617,5.617,0,0,0,2.995.839,2.791,2.791,0,0,0,1.822-.536,1.763,1.763,0,0,0,.652-1.434,1.846,1.846,0,0,0-.537-1.348A4.978,4.978,0,0,0,70.413,21.1q-3.4-1.287-3.394-3.766a3.359,3.359,0,0,1,1.189-2.656,4.649,4.649,0,0,1,3.165-1.034,6.187,6.187,0,0,1,2.935.625l-.517,1.716a5.008,5.008,0,0,0-2.475-.605,2.478,2.478,0,0,0-1.7.545,1.578,1.578,0,0,0-.517,1.191,1.618,1.618,0,0,0,.592,1.287,6.713,6.713,0,0,0,1.881,1.013,6.367,6.367,0,0,1,2.456,1.6,3.364,3.364,0,0,1,.784,2.275Zm6.85-4.209H79.369v4.6q0,1.754,1.208,1.754a3.65,3.65,0,0,0,.92-.1l.059,1.6a4.687,4.687,0,0,1-1.61.232,2.468,2.468,0,0,1-1.921-.759,3.784,3.784,0,0,1-.691-2.554V19.076h-1.36V17.5h1.36V15.762l2.033-.623V17.5h2.285Zm10.3,3.078a5.244,5.244,0,0,1-1.228,3.585,4.35,4.35,0,0,1-3.416,1.443A4.135,4.135,0,0,1,84.042,25.8a5.082,5.082,0,0,1-1.219-3.488,5.183,5.183,0,0,1,1.258-3.6,4.309,4.309,0,0,1,3.383-1.4,4.225,4.225,0,0,1,3.3,1.383,5.029,5.029,0,0,1,1.192,3.467Zm-2.151.068a4.332,4.332,0,0,0-.552-2.247,2.046,2.046,0,0,0-1.862-1.133,2.071,2.071,0,0,0-1.9,1.133,4.394,4.394,0,0,0-.556,2.287,4.3,4.3,0,0,0,.556,2.245,2.1,2.1,0,0,0,3.74-.018,4.319,4.319,0,0,0,.574-2.266Zm8.883-2.875a3.519,3.519,0,0,0-.653-.059,1.944,1.944,0,0,0-1.688.839A3.185,3.185,0,0,0,95.827,22v4.969H93.756l.019-6.488q0-1.64-.078-2.982h1.8l.078,1.81h.056a3.246,3.246,0,0,1,1.034-1.5,2.487,2.487,0,0,1,1.5-.508,3.265,3.265,0,0,1,.517.039v2.005Zm9.262,2.438a5.013,5.013,0,0,1-.075.954h-6.213a2.764,2.764,0,0,0,.9,2.144,3.039,3.039,0,0,0,2.033.663,6.758,6.758,0,0,0,2.513-.449l.324,1.461a7.627,7.627,0,0,1-3.124.588,4.5,4.5,0,0,1-3.406-1.3,4.838,4.838,0,0,1-1.236-3.479,5.488,5.488,0,0,1,1.152-3.566,3.951,3.951,0,0,1,3.259-1.519,3.458,3.458,0,0,1,3.052,1.52,5.185,5.185,0,0,1,.823,2.981Zm-1.975-.547a2.886,2.886,0,0,0-.4-1.617,1.8,1.8,0,0,0-1.65-.879,1.957,1.957,0,0,0-1.649.858,3.179,3.179,0,0,0-.611,1.636h4.314Z" transform="translate(-30.476 -13.639)" fill="#fff" fill-rule="evenodd"/>
    </g>
    <g id="Group_39" data-name="Group 39" transform="translate(37.05 4.838)">
      <path id="Path_17" data-name="Path 17" d="M36.744,7.524a3.261,3.261,0,0,1-1.028,2.623,4.039,4.039,0,0,1-2.7.813,12.032,12.032,0,0,1-1.489-.076V4.538A10.754,10.754,0,0,1,33.277,4.4a3.736,3.736,0,0,1,2.515.738,3,3,0,0,1,.952,2.384Zm-1.074.029a2.383,2.383,0,0,0-.588-1.732,2.3,2.3,0,0,0-1.721-.6,4.395,4.395,0,0,0-.819.067v4.826a5.219,5.219,0,0,0,.686.028,2.384,2.384,0,0,0,1.8-.661,2.669,2.669,0,0,0,.635-1.924Zm6.765.986a2.577,2.577,0,0,1-.6,1.763,2.147,2.147,0,0,1-1.677.708,2.032,2.032,0,0,1-1.608-.682,2.488,2.488,0,0,1-.6-1.712,2.552,2.552,0,0,1,.618-1.77,2.118,2.118,0,0,1,1.663-.69,2.077,2.077,0,0,1,1.622.678,2.49,2.49,0,0,1,.584,1.7Zm-1.055.033a2.154,2.154,0,0,0-.274-1.1,1,1,0,0,0-.913-.556,1.02,1.02,0,0,0-.934.557,2.154,2.154,0,0,0-.273,1.121,2.133,2.133,0,0,0,.273,1.1,1.026,1.026,0,0,0,.924.556,1.012,1.012,0,0,0,.914-.567,2.114,2.114,0,0,0,.282-1.113Zm8.687-2.321-1.432,4.654H47.7l-.594-2.022a15.39,15.39,0,0,1-.368-1.5h-.019a11.236,11.236,0,0,1-.368,1.5l-.63,2.022h-.943L43.433,6.252h1.046L45,8.464c.127.523.229,1.023.313,1.493h.019c.076-.388.2-.884.378-1.483l.65-2.221h.831l.623,2.174q.226.793.367,1.531H48.2a15.465,15.465,0,0,1,.31-1.531l.556-2.174h1ZM55.344,10.9H54.327V8.239c0-.82-.306-1.232-.923-1.232a.916.916,0,0,0-.736.338,1.214,1.214,0,0,0-.282.8V10.9H51.369V7.582c0-.408-.012-.851-.038-1.33h.893l.049.726H52.3a1.461,1.461,0,0,1,.529-.561,1.688,1.688,0,0,1,.921-.262,1.448,1.448,0,0,1,1.066.423,2.058,2.058,0,0,1,.527,1.54v2.788Zm2.809,0H57.136V4.117h1.017ZM64.147,8.54a2.577,2.577,0,0,1-.6,1.763,2.149,2.149,0,0,1-1.678.708,2.027,2.027,0,0,1-1.608-.682,2.487,2.487,0,0,1-.6-1.712,2.546,2.546,0,0,1,.617-1.77,2.113,2.113,0,0,1,1.661-.69,2.079,2.079,0,0,1,1.622.678,2.49,2.49,0,0,1,.584,1.7Zm-1.058.033a2.153,2.153,0,0,0-.27-1.1,1.007,1.007,0,0,0-.914-.556,1.017,1.017,0,0,0-.933.557A2.154,2.154,0,0,0,60.7,8.591a2.133,2.133,0,0,0,.273,1.1,1.026,1.026,0,0,0,.924.556,1.011,1.011,0,0,0,.912-.567,2.114,2.114,0,0,0,.282-1.113ZM69.074,10.9h-.913l-.076-.536h-.028a1.56,1.56,0,0,1-1.338.642,1.367,1.367,0,0,1-1.046-.423,1.329,1.329,0,0,1-.357-.946,1.452,1.452,0,0,1,.7-1.3A3.61,3.61,0,0,1,67.994,7.9V7.811q0-.917-.952-.917a2.1,2.1,0,0,0-1.193.343l-.207-.679a2.912,2.912,0,0,1,1.571-.4c1.2,0,1.8.639,1.8,1.923V9.8a7.458,7.458,0,0,0,.065,1.11Zm-1.058-1.6V8.589q-1.682-.032-1.683.937a.652.652,0,0,0,.692.725,1.012,1.012,0,0,0,.623-.215A.889.889,0,0,0,68,9.486a1,1,0,0,0,.015-.182Zm6.844,1.6h-.905l-.047-.748H73.88a1.514,1.514,0,0,1-1.469.853,1.714,1.714,0,0,1-1.375-.661,2.6,2.6,0,0,1-.547-1.714,2.727,2.727,0,0,1,.594-1.829A1.813,1.813,0,0,1,72.5,6.156a1.366,1.366,0,0,1,1.289.631h.02V4.116h1.019V9.65c0,.454.012.87.035,1.254ZM73.8,8.942V8.166a1.527,1.527,0,0,0-.028-.326,1.2,1.2,0,0,0-.368-.626.989.989,0,0,0-.682-.254,1.042,1.042,0,0,0-.9.458A2.007,2.007,0,0,0,71.5,8.6a1.863,1.863,0,0,0,.314,1.119,1.041,1.041,0,0,0,.89.458.974.974,0,0,0,.8-.382,1.288,1.288,0,0,0,.294-.852Zm9.762-.4a2.577,2.577,0,0,1-.6,1.763,2.146,2.146,0,0,1-1.678.708,2.035,2.035,0,0,1-1.607-.682,2.487,2.487,0,0,1-.6-1.712,2.546,2.546,0,0,1,.617-1.77,2.115,2.115,0,0,1,1.664-.69,2.079,2.079,0,0,1,1.62.678,2.49,2.49,0,0,1,.584,1.7Zm-1.055.033a2.131,2.131,0,0,0-.273-1.1,1,1,0,0,0-.914-.556,1.022,1.022,0,0,0-.933.557,2.165,2.165,0,0,0-.27,1.121,2.132,2.132,0,0,0,.27,1.1,1.029,1.029,0,0,0,.925.556,1.017,1.017,0,0,0,.914-.567,2.114,2.114,0,0,0,.282-1.113ZM89.041,10.9H88.024V8.239c0-.82-.306-1.232-.924-1.232a.913.913,0,0,0-.736.338,1.214,1.214,0,0,0-.282.8V10.9H85.063V7.582q0-.612-.035-1.33h.893l.047.726H86a1.516,1.516,0,0,1,.529-.561,1.7,1.7,0,0,1,.924-.262,1.448,1.448,0,0,1,1.065.423,2.059,2.059,0,0,1,.529,1.54v2.788Zm6.852-3.879h-1.12v2.26c0,.576.2.862.594.862a1.816,1.816,0,0,0,.454-.047l.026.784a2.265,2.265,0,0,1-.791.115,1.206,1.206,0,0,1-.94-.373,1.844,1.844,0,0,1-.341-1.255V7.026H93.1V6.25h.67V5.4l1-.306V6.253h1.12v.776Zm5.39,3.879h-1.019V8.26q0-1.252-.923-1.253a.975.975,0,0,0-.972.726,1.342,1.342,0,0,0-.047.371v2.8H97.3V4.118h1.018v2.8h.019a1.531,1.531,0,0,1,1.375-.764,1.408,1.408,0,0,1,1.048.42,2.143,2.143,0,0,1,.517,1.561v2.767Zm5.561-2.547a2.524,2.524,0,0,1-.039.47h-3.054a1.364,1.364,0,0,0,.443,1.052,1.5,1.5,0,0,0,1,.326,3.323,3.323,0,0,0,1.234-.22l.16.717a3.765,3.765,0,0,1-1.537.289,2.2,2.2,0,0,1-1.673-.637,2.365,2.365,0,0,1-.609-1.709,2.7,2.7,0,0,1,.564-1.751,1.94,1.94,0,0,1,1.6-.746,1.694,1.694,0,0,1,1.5.746,2.511,2.511,0,0,1,.408,1.463Zm-.972-.267a1.4,1.4,0,0,0-.2-.795.885.885,0,0,0-.811-.431.963.963,0,0,0-.809.421,1.575,1.575,0,0,0-.3.805h2.12Z" transform="translate(-31.523 -4.116)" fill="#fff" fill-rule="evenodd"/>
    </g>
  </g>
</svg>
