<svg width="24" height="21" viewBox="0 0 24 21" fill="none" xmlns="http://www.w3.org/2000/svg">
<path d="M9.21094 18.417C9.64982 18.7588 10.0728 19.0708 10.4893 19.3154C10.8425 19.523 11.178 19.6727 11.5 19.752V20.4502C11.0352 20.3618 10.5847 20.1607 10.1514 19.9062C9.69623 19.6389 9.24109 19.3019 8.79102 18.9512L9.21094 18.417ZM15.208 18.9512C14.7581 19.3018 14.3036 19.6391 13.8486 19.9062C13.4153 20.1607 12.9648 20.3618 12.5 20.4502V19.752C12.822 19.6727 13.1575 19.523 13.5107 19.3154C13.927 19.0709 14.3494 18.7586 14.7881 18.417L15.208 18.9512ZM1.1875 7.90918C1.31469 10.2881 2.34421 12.1519 3.74219 13.7344C5.13133 15.3067 6.85977 16.5788 8.42383 17.7998L8.00293 18.335C6.463 17.1338 4.67373 15.8128 3.24023 14.1904C1.76388 12.5195 0.641388 10.5016 0.512695 7.90918H1.1875ZM23.4873 7.90918C23.3586 10.5016 22.2361 12.5195 20.7598 14.1904C19.3261 15.813 17.5361 17.1337 15.9961 18.335L15.5752 17.7998C17.1394 16.5786 18.8685 15.3069 20.2578 13.7344C21.6558 12.1519 22.6853 10.2881 22.8125 7.90918H23.4873ZM12.7461 2.17871C15.0811 0.300354 17.5854 0.116243 19.6045 1.04395C21.7575 2.03319 23.3085 4.2673 23.4834 6.90918H22.8076C22.6341 4.52926 21.232 2.54182 19.3262 1.66602C17.5785 0.863029 15.3622 0.977403 13.2236 2.66992L12.9648 2.39941C12.8927 2.32411 12.8189 2.25092 12.7461 2.17871ZM4.39551 1.04395C6.41444 0.11632 8.91809 0.300801 11.2529 2.17871C11.1803 2.25076 11.1071 2.32428 11.0352 2.39941L10.7754 2.66992C8.63696 0.977851 6.42133 0.863104 4.67383 1.66602C2.76798 2.54181 1.3659 4.52925 1.19238 6.90918H0.516602C0.691526 4.26728 2.24251 2.03318 4.39551 1.04395Z" fill="black" stroke="black"/>
</svg>
