<?xml version="1.0" encoding="UTF-8"?>
<svg version="1.1" xmlns="http://www.w3.org/2000/svg" width="325" height="380">
<path d="M0 0 C12.77164723 5.84777196 23.82405237 15.39454342 34.828125 23.98828125 C35.42737793 24.45435791 36.02663086 24.92043457 36.64404297 25.40063477 C37.77213784 26.28003961 38.89637801 27.16441873 40.01611328 28.05444336 C42.68720148 30.33522147 42.68720148 30.33522147 46 31 C46.03738281 29.90300781 46.07476562 28.80601563 46.11328125 27.67578125 C46.17896653 26.22132143 46.24541299 24.76689584 46.3125 23.3125 C46.34633789 22.2306543 46.34633789 22.2306543 46.38085938 21.12695312 C46.60001191 16.76382541 46.79667749 13.2404984 50 10 C56.57741254 7.98122579 64.02208833 9.14231766 70.75 9.75 C71.76449219 9.82476562 72.77898437 9.89953125 73.82421875 9.9765625 C79.89554513 10.50311643 84.38827088 10.98862033 88.56555176 15.80511475 C90.16876925 18.25823807 90.55777087 19.9001297 90.93554688 22.79003906 C91.06578247 23.73913147 91.19601807 24.68822388 91.3302002 25.66607666 C91.45842163 26.68892761 91.58664307 27.71177856 91.71875 28.765625 C91.86276245 29.83182068 92.0067749 30.89801636 92.15515137 31.996521 C92.61477828 35.41294817 93.05819957 38.83122587 93.5 42.25 C95.74688741 59.74629079 95.74688741 59.74629079 98.47265625 77.171875 C98.67383057 78.34331055 98.87500488 79.51474609 99.08227539 80.72167969 C100.52110993 85.86152277 103.17718394 90.19496832 106.36328125 94.47265625 C106.79205566 95.05160645 107.22083008 95.63055664 107.66259766 96.22705078 C108.10394043 96.81212402 108.5452832 97.39719727 109 98 C109.44520996 98.59151855 109.89041992 99.18303711 110.34912109 99.79248047 C112.26389511 102.32723787 114.18244285 104.85897256 116.11254883 107.38208008 C120.72189176 113.47271114 124.94661567 119.79552503 129.125 126.1875 C130.10267334 127.67624634 130.10267334 127.67624634 131.10009766 129.19506836 C131.70901855 130.13487549 132.31793945 131.07468262 132.9453125 132.04296875 C133.48687988 132.87852295 134.02844727 133.71407715 134.58642578 134.57495117 C137.18003663 139.02440481 138.7577832 142.80377235 138 148 C135.72791121 151.36737822 134.29433431 152.6873112 130.30981445 153.64990234 C127.02127261 154.09625031 123.74521876 154.41828897 120.4375 154.6875 C118.18558627 154.89314839 115.93423955 155.10512934 113.68359375 155.32421875 C112.68900146 155.40760498 111.69440918 155.49099121 110.66967773 155.5769043 C108.02433814 155.99614284 106.25316577 156.57102958 104 158 C102.79770239 160.40459522 102.82597203 162.01383756 102.75048828 164.70117188 C102.7200795 165.68813049 102.68967072 166.67508911 102.65834045 167.69195557 C102.62929123 168.77329773 102.600242 169.85463989 102.5703125 170.96875 C102.49851581 173.29851458 102.42631429 175.62826671 102.35375977 177.95800781 C102.31678986 179.18861938 102.27981995 180.41923096 102.24172974 181.68713379 C101.65369416 200.89475874 100.92240824 220.08030715 99.5625 239.25 C99.47926483 240.48012817 99.47926483 240.48012817 99.39434814 241.73510742 C98.77275929 250.80034637 97.86055614 259.79844321 96.58984375 268.796875 C96.4780629 269.62825989 96.36628204 270.45964478 96.25111389 271.31622314 C95.42023408 276.86281223 94.22612079 281.70144578 90.19921875 285.859375 C87.25722743 287.38523906 85.12044453 287.32756025 81.8125 287.25 C80.58917969 287.22421875 79.36585938 287.1984375 78.10546875 287.171875 C71.06343433 286.90242262 64.03067173 286.47665571 57 286 C55.98571509 282.95714527 55.97094321 281.43282694 56.22192383 278.29638672 C56.29568741 277.33173996 56.36945099 276.3670932 56.44544983 275.37321472 C56.5317717 274.31935074 56.61809357 273.26548676 56.70703125 272.1796875 C56.88279731 269.89089295 57.05823847 267.60207343 57.23339844 265.31323242 C57.32810425 264.10154388 57.42281006 262.88985535 57.52038574 261.64144897 C61.36534404 212.06550791 65.31339046 161.07632468 60.125 111.4375 C60.05877441 110.75220215 59.99254883 110.0669043 59.92431641 109.36083984 C59.43650369 105.25551617 58.51674134 102.30054399 56 99 C53.19833907 97.65776386 53.19833907 97.65776386 50 98 C44.43612066 101.79111226 41.46585883 106.4881018 38.125 112.25 C37.60397705 113.13824463 37.0829541 114.02648926 36.54614258 114.94165039 C20.1289297 143.32768822 10.53044001 175.12168617 10.73925781 208.04663086 C10.75016373 210.09322577 10.73918218 212.13897509 10.7265625 214.18554688 C10.72914063 215.49716797 10.73171875 216.80878906 10.734375 218.16015625 C10.73775879 219.91791382 10.73775879 219.91791382 10.74121094 221.71118164 C11.01057993 225.134455 11.67498763 227.83726447 13 231 C17.14720698 233.58506592 22.5380688 233.88641396 27.3125 234.625 C28.14845703 234.7590625 28.98441406 234.893125 29.84570312 235.03125 C31.89631318 235.35934761 33.94805121 235.68038181 36 236 C36.2011266 245.77455847 35.70525684 255.32454276 34.77319336 265.04541016 C34.55880026 267.28871226 34.35593621 269.53286263 34.15429688 271.77734375 C33.14081902 282.71836196 33.14081902 282.71836196 32 285 C10.88 285 -10.24 285 -32 285 C-33.31374509 273.83316676 -34.56690041 262.80663464 -35.2800293 251.61132812 C-35.3864942 250.01484981 -35.50431696 248.41909472 -35.63256836 246.82421875 C-35.82087946 244.47234842 -35.9747189 242.12043174 -36.12109375 239.765625 C-36.18437363 239.0573053 -36.2476535 238.3489856 -36.31285095 237.61920166 C-36.51448053 233.66839795 -36.18470101 232.22144859 -33.61206055 229.13696289 C-32.75008057 228.43176514 -31.88810059 227.72656738 -31 227 C-21.13652612 216.9151012 -19.91523106 207.35148538 -19.71875 193.671875 C-19.70061249 192.66508698 -19.68247498 191.65829895 -19.66378784 190.6210022 C-19.60521533 187.33072368 -19.55253993 184.0403799 -19.5 180.75 C-19.42113495 176.15361248 -19.33954069 171.55727489 -19.2578125 166.9609375 C-19.23756012 165.79926056 -19.21730774 164.63758362 -19.19644165 163.44070435 C-19.0577908 155.65998043 -18.88266676 147.88086065 -18.6796875 140.1015625 C-18.65396667 139.09899414 -18.62824585 138.09642578 -18.60174561 137.06347656 C-18.50284842 133.22332486 -18.40359882 129.38321714 -18.29467773 125.54333496 C-18.22077783 122.93262982 -18.15280078 120.32183075 -18.0859375 117.7109375 C-18.06207977 116.93738922 -18.03822205 116.16384094 -18.01364136 115.36685181 C-17.97032187 113.57841999 -17.97931515 111.78883679 -18 110 C-19.0595877 108.71677453 -19.0595877 108.71677453 -21.5 108.875 C-23.9404123 108.71677453 -23.9404123 108.71677453 -25 110 C-25.52077066 114.25160422 -25.72267762 118.53899443 -26 122.8125 C-26.13245117 124.78561157 -26.13245117 124.78561157 -26.26757812 126.79858398 C-26.76116926 134.47253237 -27.09523608 142.14054217 -27.28125 149.828125 C-27.30106934 150.64121628 -27.32088867 151.45430756 -27.34130859 152.29203796 C-27.4345879 156.28742689 -27.51175243 160.28251968 -27.5703125 164.27856445 C-27.5988777 165.74951329 -27.62751978 167.22046063 -27.65625 168.69140625 C-27.67494141 169.98248291 -27.69363281 171.27355957 -27.71289062 172.60375977 C-28.08516416 177.00741386 -28.85819257 179.85819257 -32 183 C-39.19532771 183.57105775 -39.19532771 183.57105775 -41.9375 181.625 C-43.93539702 178.5693928 -44.12832607 176.66397273 -44.1328125 173.03125 C-44.13474609 171.99798584 -44.13667969 170.96472168 -44.13867188 169.90014648 C-44.13416016 168.77809814 -44.12964844 167.6560498 -44.125 166.5 C-44.12306641 165.34250244 -44.12113281 164.18500488 -44.11914062 162.99243164 C-44.07398986 153.71081372 -43.76192015 144.45219656 -43.3581543 135.18017578 C-42.98560949 126.44718842 -42.89045475 117.7392766 -43 109 C-44.98 108.67 -46.96 108.34 -49 108 C-50.13734159 120.52721416 -50.99946338 133.03644066 -51.47265625 145.60546875 C-51.51177124 146.61306747 -51.55088623 147.6206662 -51.59118652 148.65879822 C-51.78777446 153.75935746 -51.96821305 158.85977875 -52.12646484 163.96166992 C-52.19702889 165.86769668 -52.26813165 167.77370359 -52.33984375 169.6796875 C-52.3727224 171.00162361 -52.3727224 171.00162361 -52.40626526 172.3502655 C-52.5500208 175.86581277 -52.68844848 178.38629343 -54.29516602 181.55126953 C-56.66510052 183.56518781 -58.93857967 183.48460238 -61.96484375 183.53125 C-64.90680762 182.76329014 -66.08051373 181.32534165 -68 179 C-68.4699707 176.49584961 -68.4699707 176.49584961 -68.42578125 173.65234375 C-68.41804688 172.58532227 -68.4103125 171.51830078 -68.40234375 170.41894531 C-68.37269531 169.27006836 -68.34304687 168.12119141 -68.3125 166.9375 C-68.29703125 165.74608398 -68.2815625 164.55466797 -68.265625 163.32714844 C-68.11347512 153.66309546 -67.75922672 144.00283542 -67.35888672 134.34619141 C-67.02226568 126.2226449 -66.8774396 118.1298402 -67 110 C-68.65 109.67 -70.3 109.34 -72 109 C-74.09042848 112.13564271 -74.27514272 113.0310876 -74.41064453 116.63110352 C-74.45050476 117.57791489 -74.49036499 118.52472626 -74.53143311 119.50022888 C-74.56488831 120.53269241 -74.59834351 121.56515594 -74.6328125 122.62890625 C-74.67464661 123.71031387 -74.71648071 124.7917215 -74.75958252 125.90589905 C-74.89273343 129.45779593 -75.01025652 133.00996348 -75.125 136.5625 C-75.16602844 137.76984802 -75.20705688 138.97719604 -75.24932861 140.22113037 C-75.77437455 155.79680511 -76.23326271 171.37839538 -76.35247803 186.96310425 C-76.36731767 188.71701678 -76.38852469 190.47088873 -76.41656494 192.22463989 C-76.57935945 203.31384236 -76.32714839 213.43321426 -70 223.03515625 C-69.34 223.70417969 -68.68 224.37320313 -68 225.0625 C-67.01 226.10083984 -67.01 226.10083984 -66 227.16015625 C-64.04877917 229.04335309 -64.04877917 229.04335309 -61.8125 230.49609375 C-59.14458949 232.70976949 -59.10583233 234.9742926 -58.75912476 238.33451843 C-58.70503448 239.19309952 -58.65094421 240.0516806 -58.59521484 240.9362793 C-58.53200043 241.91376633 -58.46878601 242.89125336 -58.40365601 243.89836121 C-58.3400589 244.9463942 -58.27646179 245.99442719 -58.2109375 247.07421875 C-58.14339264 248.15379349 -58.07584778 249.23336823 -58.0062561 250.34565735 C-57.86489476 252.62428237 -57.72548675 254.90302928 -57.58789062 257.18188477 C-57.37516055 260.68485631 -57.15277494 264.18712774 -56.9296875 267.68945312 C-56.79368526 269.90100573 -56.65824895 272.11259323 -56.5234375 274.32421875 C-56.45579193 275.37832443 -56.38814636 276.43243011 -56.31845093 277.51847839 C-56.23308578 278.97052422 -56.23308578 278.97052422 -56.14599609 280.4519043 C-56.09349701 281.3080986 -56.04099792 282.16429291 -55.98690796 283.0464325 C-56 285 -56 285 -57 286 C-65.91307684 287.136088 -74.97423946 287.27031663 -83.95068359 287.35009766 C-85.33138628 287.36687532 -86.71199497 287.3944407 -88.09228516 287.43212891 C-90.1244618 287.48689814 -92.15468564 287.50873297 -94.1875 287.5234375 C-95.37730469 287.54325684 -96.56710938 287.56307617 -97.79296875 287.58349609 C-101.97450607 286.82269568 -103.41206668 285.30919937 -106 282 C-106.79541016 279.87646484 -106.79541016 279.87646484 -107.0390625 277.7109375 C-107.14299316 276.86942139 -107.24692383 276.02790527 -107.35400391 275.16088867 C-107.44343262 274.24154541 -107.53286133 273.32220215 -107.625 272.375 C-107.73634277 271.39442627 -107.84768555 270.41385254 -107.96240234 269.40356445 C-108.341012 265.93825642 -108.67508221 262.4707538 -109 259 C-109.06445312 258.31939514 -109.12890625 257.63879028 -109.1953125 256.93756104 C-111.65474429 230.90586489 -113.15270375 205.04254986 -113.47680664 178.89086914 C-113.51630804 175.83459648 -113.5677758 172.77871468 -113.62109375 169.72265625 C-113.6295079 168.78841324 -113.63792206 167.85417023 -113.64659119 166.89161682 C-113.67155418 165.5976725 -113.67155418 165.5976725 -113.69702148 164.27758789 C-113.70732895 163.52135635 -113.71763641 162.76512482 -113.72825623 161.98597717 C-113.89615179 159.68259421 -113.89615179 159.68259421 -116 157 C-118.83105326 156.27488818 -118.83105326 156.27488818 -122.1796875 155.97265625 C-123.41847656 155.81990234 -124.65726563 155.66714844 -125.93359375 155.50976562 C-128.5530488 155.21251329 -131.17284179 154.91822347 -133.79296875 154.62695312 C-135.03433594 154.47291016 -136.27570313 154.31886719 -137.5546875 154.16015625 C-139.26374268 153.96885132 -139.26374268 153.96885132 -141.00732422 153.77368164 C-144.4701796 152.8784468 -145.77588179 151.75053866 -148 149 C-149.46556718 146.06886564 -149.35075812 144.28128564 -149 141 C-147.67121157 138.03083473 -145.95049815 135.35349163 -144.1875 132.625 C-143.69266113 131.83915527 -143.19782227 131.05331055 -142.68798828 130.24365234 C-132.43417126 114.0925119 -121.26496221 98.68594171 -109 84 C-108.58134171 83.49592117 -108.16268341 82.99184235 -107.7313385 82.4724884 C-100.32466356 73.57887163 -92.51961305 65.20297869 -84.30883789 57.0480957 C-82.42811472 55.17816859 -80.55843181 53.29767362 -78.68945312 51.41601562 C-71.76625913 44.4847984 -64.71955124 38.04520311 -57 32 C-55.74491125 30.97569311 -54.49201673 29.94868659 -53.2421875 28.91796875 C-44.75720076 22.01049336 -36.03672136 15.51751319 -26.98974609 9.36328125 C-25.12817605 8.08782026 -23.29269527 6.78105449 -21.45703125 5.46875 C-14.39233902 0.67455026 -8.55890953 -2.26184582 0 0 Z " fill="#FF8000" transform="translate(168,3)"/>
<path d="M0 0 C1.216875 -0.01933594 2.43375 -0.03867187 3.6875 -0.05859375 C7 0.4375 7 0.4375 9.07104492 1.82397461 C11.9978551 5.78948568 12.39895222 9.95037641 13.17578125 14.75 C13.43720161 16.25880737 13.43720161 16.25880737 13.7039032 17.7980957 C14.06843547 19.92172139 14.42517758 22.04669702 14.7746582 24.17285156 C15.31102971 27.42857548 15.8731728 30.67904667 16.43945312 33.9296875 C16.79059165 35.99453221 17.14025136 38.05962906 17.48828125 40.125 C17.65588455 41.09800049 17.82348785 42.07100098 17.99617004 43.07348633 C18.14350082 43.98122803 18.2908316 44.88896973 18.44262695 45.82421875 C18.57490189 46.62045654 18.70717682 47.41669434 18.84346008 48.23706055 C19 50.4375 19 50.4375 18 54.4375 C14.04 54.4375 10.08 54.4375 6 54.4375 C4 49.4375 4 49.4375 4 42.4375 C-2.27 42.4375 -8.54 42.4375 -15 42.4375 C-15.99 45.4075 -16.98 48.3775 -18 51.4375 C-18.66 52.4275 -19.32 53.4175 -20 54.4375 C-23.0390625 54.73046875 -23.0390625 54.73046875 -26.625 54.625 C-27.81351563 54.59792969 -29.00203125 54.57085937 -30.2265625 54.54296875 C-31.14179688 54.50816406 -32.05703125 54.47335937 -33 54.4375 C-32.60357433 47.42076571 -29.60292925 41.90187264 -26.5 35.6875 C-25.40541735 33.46134671 -24.31167634 31.23477941 -23.21875 29.0078125 C-22.67476562 27.90469727 -22.13078125 26.80158203 -21.5703125 25.66503906 C-20.12117006 22.68654667 -18.7198284 19.6924972 -17.34375 16.6796875 C-16.74530273 15.37596191 -16.74530273 15.37596191 -16.13476562 14.04589844 C-15.3965266 12.43028583 -14.6656455 10.81128392 -13.94335938 9.18847656 C-10.66611651 2.08354129 -8.14487354 0.00862804 0 0 Z M-2 13.4375 C-3.16887501 16.08237789 -4.33519547 18.72833024 -5.5 21.375 C-5.83386719 22.12974609 -6.16773438 22.88449219 -6.51171875 23.66210938 C-8.23087116 26.93693173 -8.23087116 26.93693173 -9 30.4375 C-5.37 30.4375 -1.74 30.4375 2 30.4375 C1.71943562 27.79004679 1.42614369 25.14512036 1.125 22.5 C1.04636719 21.74525391 0.96773438 20.99050781 0.88671875 20.21289062 C0.66116192 18.27830701 0.33741026 16.35573981 0 14.4375 C-0.66 14.1075 -1.32 13.7775 -2 13.4375 Z " fill="#FF7F00" transform="translate(263,312.5625)"/>
<path d="M0 0 C1.12775345 0.00212242 1.12775345 0.00212242 2.27828979 0.00428772 C4.6829626 0.0098916 7.08754277 0.02244468 9.4921875 0.03515625 C11.12109241 0.04017075 12.74999877 0.04473375 14.37890625 0.04882812 C18.37503577 0.05986228 22.37109592 0.07712946 26.3671875 0.09765625 C26.39430816 1.53505138 26.41363817 2.97259488 26.4296875 4.41015625 C26.44128906 5.21066406 26.45289063 6.01117188 26.46484375 6.8359375 C26.3671875 9.09765625 26.3671875 9.09765625 25.3671875 12.09765625 C22.51212701 13.04934308 20.45781468 13.28775085 17.48046875 13.4140625 C16.54267578 13.45595703 15.60488281 13.49785156 14.63867188 13.54101562 C13.66220703 13.58033203 12.68574219 13.61964844 11.6796875 13.66015625 C10.19758789 13.72493164 10.19758789 13.72493164 8.68554688 13.79101562 C6.24623204 13.89707279 3.80681637 13.99913339 1.3671875 14.09765625 C1.0371875 16.07765625 0.7071875 18.05765625 0.3671875 20.09765625 C6.3071875 20.42765625 12.2471875 20.75765625 18.3671875 21.09765625 C20.3671875 25.09765625 20.3671875 25.09765625 18.3671875 33.09765625 C11.4371875 33.09765625 4.5071875 33.09765625 -2.6328125 33.09765625 C-2.9628125 36.06765625 -3.2928125 39.03765625 -3.6328125 42.09765625 C3.9571875 42.09765625 11.5471875 42.09765625 19.3671875 42.09765625 C20.3671875 46.09765625 20.3671875 46.09765625 18.3671875 54.09765625 C6.4871875 54.09765625 -5.3928125 54.09765625 -17.6328125 54.09765625 C-18.75796513 48.4718931 -18.75796513 48.4718931 -18.13549805 44.76977539 C-18.00173264 43.94864761 -17.86796722 43.12751984 -17.73014832 42.2815094 C-17.57814468 41.40743942 -17.42614105 40.53336945 -17.26953125 39.6328125 C-17.11748734 38.72188339 -16.96544342 37.81095428 -16.80879211 36.87242126 C-16.48590017 34.94946816 -16.15866807 33.02723947 -15.82739258 31.10571289 C-15.322982 28.17566302 -14.83324792 25.24344509 -14.34570312 22.31054688 C-14.02951315 20.43865537 -13.71248347 18.56690548 -13.39453125 16.6953125 C-13.24860031 15.82326675 -13.10266937 14.95122101 -12.95231628 14.05274963 C-12.17801194 9.59642299 -11.36543819 5.30188895 -9.6328125 1.09765625 C-6.56686656 -0.43531672 -3.36169397 -0.0236583 0 0 Z " fill="#FF7F00" transform="translate(207.6328125,312.90234375)"/>
<path d="M0 0 C0.7940625 -0.01417969 1.588125 -0.02835937 2.40625 -0.04296875 C4.5 0.1875 4.5 0.1875 6.5 2.1875 C6.3675284 4.71048179 6.12112506 7.07303672 5.75 9.5625 C5.65219238 10.27986328 5.55438477 10.99722656 5.45361328 11.73632812 C4.85063379 16.07006236 4.13541173 20.37850021 3.375 24.6875 C1.72100913 33.28284603 1.72100913 33.28284603 4.5 41.1875 C6.60081297 41.62713554 6.60081297 41.62713554 8.9375 41.5 C10.11119141 41.49419922 10.11119141 41.49419922 11.30859375 41.48828125 C13.78860104 41.31028119 13.78860104 41.31028119 16.5 39.1875 C18.80694895 33.54829146 19.52608613 27.14954862 20.47265625 21.16015625 C20.64289307 20.08781738 20.81312988 19.01547852 20.98852539 17.91064453 C21.32718091 15.73516672 21.65337586 13.55770948 21.96655273 11.37841797 C22.19967163 9.85885498 22.19967163 9.85885498 22.4375 8.30859375 C22.57027344 7.3952124 22.70304687 6.48183105 22.83984375 5.54077148 C23.57881004 2.90656435 24.35421192 1.84738569 26.5 0.1875 C28.4375 -0.17578125 28.4375 -0.17578125 30.5 -0.125 C31.5209375 -0.11919922 31.5209375 -0.11919922 32.5625 -0.11328125 C34.5 0.1875 34.5 0.1875 37.5 2.1875 C36.561967 11.60485762 35.31700631 20.93651515 33.625 30.25 C33.47579102 31.11713623 33.32658203 31.98427246 33.17285156 32.87768555 C31.88893612 39.68650705 29.94726941 46.26501331 24.6875 51.0625 C17.8564176 55.61655493 10.51017585 56.03964637 2.5 55.1875 C-3.31835498 53.50323935 -7.25977135 50.3337455 -10.5 45.1875 C-13.71295644 36.53141736 -11.78019549 28.01745794 -10.1875 19.25 C-9.94437525 17.82774455 -9.70282731 16.40521862 -9.46289062 14.98242188 C-7.73531583 4.8934475 -7.73531583 4.8934475 -6.5 1.1875 C-4.14653604 0.01076802 -2.6193967 0.02126134 0 0 Z " fill="#FF8000" transform="translate(47.5,312.8125)"/>
<path d="M0 0 C0.78503906 -0.00773437 1.57007812 -0.01546875 2.37890625 -0.0234375 C6.66037609 -0.00899747 9.97209978 0.27503844 13.875 2.25 C14.04202456 6.59263862 14.00499997 9.45960634 11.875 13.25 C11.31514404 13.24476318 10.75528809 13.23952637 10.1784668 13.23413086 C7.63982263 13.21333309 5.10119641 13.20033096 2.5625 13.1875 C1.68142578 13.17912109 0.80035156 13.17074219 -0.10742188 13.16210938 C-0.95498047 13.15888672 -1.80253906 13.15566406 -2.67578125 13.15234375 C-3.45606689 13.14710693 -4.23635254 13.14187012 -5.0402832 13.13647461 C-7.3211555 13.16862137 -7.3211555 13.16862137 -10.125 14.25 C-10.125 15.57 -10.125 16.89 -10.125 18.25 C-9.12339844 18.61351562 -8.12179688 18.97703125 -7.08984375 19.3515625 C9.53546026 25.57092051 9.53546026 25.57092051 12.875 32.25 C13.3988576 37.50575165 13.54005372 41.89526095 11.1875 46.6875 C5.39451667 53.1067518 0.53853437 54.87451706 -7.953125 55.4375 C-15.18446754 55.58894173 -22.04302368 54.65634991 -29.125 53.25 C-29.30585487 48.63820072 -28.97170417 45.45961305 -27.125 41.25 C-26.44397217 41.26047363 -25.76294434 41.27094727 -25.0612793 41.28173828 C-21.97839034 41.32328878 -18.89556029 41.34932311 -15.8125 41.375 C-14.74064453 41.39175781 -13.66878906 41.40851563 -12.56445312 41.42578125 C-11.02241211 41.43544922 -11.02241211 41.43544922 -9.44921875 41.4453125 C-8.0274231 41.46102295 -8.0274231 41.46102295 -6.5769043 41.47705078 C-3.86810751 41.42223875 -3.86810751 41.42223875 -1.125 39.25 C-1.455 38.26 -1.785 37.27 -2.125 36.25 C-4.70958254 35.14358624 -7.21513906 34.19521793 -9.875 33.3125 C-21.27530882 29.5089797 -21.27530882 29.5089797 -24.4375 23.9375 C-25.99135917 17.86332323 -25.30335525 13.43539218 -22.3203125 8.04296875 C-19.44659216 3.73238824 -16.0650331 1.99111484 -11.16040039 0.65576172 C-7.45286384 -0.08334416 -3.76753124 -0.03748787 0 0 Z " fill="#FF8000" transform="translate(112.125,312.75)"/>
<path d="M0 0 C0.83350479 -0.00095673 1.66700958 -0.00191345 2.52577209 -0.00289917 C4.29021276 -0.00358025 6.05465593 -0.00173098 7.8190918 0.00244141 C10.52072791 0.00778397 13.22219725 0.00249747 15.92382812 -0.00390625 C17.63671912 -0.00324532 19.34961001 -0.00196386 21.0625 0 C21.87194565 -0.00202423 22.6813913 -0.00404846 23.5153656 -0.00613403 C26.79881931 0.00759078 29.46074662 0.08717596 32.59765625 1.1328125 C32.48306932 2.57118001 32.35556509 4.00852216 32.22265625 5.4453125 C32.15304687 6.24582031 32.0834375 7.04632813 32.01171875 7.87109375 C31.59765625 10.1328125 31.59765625 10.1328125 29.59765625 13.1328125 C26.33984375 13.42578125 26.33984375 13.42578125 22.47265625 13.3203125 C20.55066406 13.27970703 20.55066406 13.27970703 18.58984375 13.23828125 C17.60242188 13.20347656 16.615 13.16867187 15.59765625 13.1328125 C15.4996875 13.94878906 15.40171875 14.76476562 15.30078125 15.60546875 C14.25338325 23.90338915 12.96367988 32.14167777 11.53515625 40.3828125 C11.36081055 41.39480713 11.18646484 42.40680176 11.00683594 43.44946289 C10.75595215 44.87826782 10.75595215 44.87826782 10.5 46.3359375 C10.35038818 47.18833008 10.20077637 48.04072266 10.04663086 48.91894531 C9.59765625 51.1328125 9.59765625 51.1328125 8.59765625 54.1328125 C6.19219987 55.33554069 4.64768672 55.23352722 1.97265625 55.1953125 C0.74675781 55.18177734 0.74675781 55.18177734 -0.50390625 55.16796875 C-1.13039063 55.15636719 -1.756875 55.14476562 -2.40234375 55.1328125 C-4.78399617 51.81385758 -4.38001229 49.14748778 -3.73979187 45.24215698 C-3.60136368 44.48162018 -3.46293549 43.72108337 -3.3203125 42.9375 C-3.18667801 42.14884552 -3.05304352 41.36019104 -2.9153595 40.54763794 C-2.63115928 38.8840706 -2.34078628 37.22154762 -2.04467773 35.56005859 C-1.59061266 33.01212715 -1.15398803 30.46169558 -0.72070312 27.91015625 C-0.44241157 26.29409739 -0.16314789 24.67820557 0.1171875 23.0625 C0.249543 22.29791473 0.3818985 21.53332947 0.51826477 20.74557495 C1.47926334 15.36959832 1.47926334 15.36959832 2.59765625 13.1328125 C-1.69234375 13.1328125 -5.98234375 13.1328125 -10.40234375 13.1328125 C-12.66772373 8.60205255 -12.66772373 8.60205255 -11.65234375 4.9453125 C-11.471875 4.25050781 -11.29140625 3.55570312 -11.10546875 2.83984375 C-9.36289968 -1.39072672 -3.8639364 -0.00963868 0 0 Z " fill="#FF7F00" transform="translate(292.40234375,312.8671875)"/>
<path d="M0 0 C1.25025719 -0.0049926 1.25025719 -0.0049926 2.52577209 -0.01008606 C4.29020637 -0.01515286 6.05465025 -0.01749446 7.8190918 -0.01733398 C10.52083094 -0.01951966 13.22216131 -0.03767551 15.92382812 -0.05664062 C17.63671735 -0.05957473 19.34960852 -0.06155941 21.0625 -0.0625 C21.87194565 -0.06968552 22.6813913 -0.07687103 23.5153656 -0.08427429 C27.40011198 -0.06842517 29.29035723 -0.03689726 32.59765625 2.16796875 C32.28983129 3.81468287 31.97626391 5.46032451 31.66015625 7.10546875 C31.48613281 8.02199219 31.31210938 8.93851562 31.1328125 9.8828125 C30.59765625 12.16796875 30.59765625 12.16796875 29.59765625 13.16796875 C27.2445207 13.24068616 24.88931957 13.25167743 22.53515625 13.23046875 C21.24480469 13.22144531 19.95445312 13.21242188 18.625 13.203125 C17.62597656 13.19152344 16.62695312 13.17992187 15.59765625 13.16796875 C15.4996875 13.98394531 15.40171875 14.79992187 15.30078125 15.640625 C14.25338325 23.9385454 12.96367988 32.17683402 11.53515625 40.41796875 C11.36081055 41.42996338 11.18646484 42.44195801 11.00683594 43.48461914 C10.75595215 44.91342407 10.75595215 44.91342407 10.5 46.37109375 C10.35038818 47.22348633 10.20077637 48.07587891 10.04663086 48.95410156 C9.59765625 51.16796875 9.59765625 51.16796875 8.59765625 54.16796875 C6.24419229 55.34470073 4.71705295 55.33420741 2.09765625 55.35546875 C1.30359375 55.36964844 0.50953125 55.38382812 -0.30859375 55.3984375 C-2.40234375 55.16796875 -2.40234375 55.16796875 -4.40234375 53.16796875 C-4.30078125 50.5 -4.30078125 50.5 -3.77734375 46.98046875 C-3.68396729 46.34278564 -3.59059082 45.70510254 -3.49438477 45.0480957 C-3.14874873 42.75145287 -2.77840086 40.45983038 -2.40234375 38.16796875 C-2.2439502 37.20213867 -2.08555664 36.23630859 -1.92236328 35.24121094 C-1.40330268 32.11113307 -0.87444802 28.9829281 -0.33984375 25.85546875 C-0.16565918 24.83493408 0.00852539 23.81439941 0.18798828 22.76293945 C0.35540527 21.80734131 0.52282227 20.85174316 0.6953125 19.8671875 C0.84492432 19.00955811 0.99453613 18.15192871 1.14868164 17.26831055 C1.59765625 15.16796875 1.59765625 15.16796875 2.59765625 13.16796875 C-1.69234375 13.16796875 -5.98234375 13.16796875 -10.40234375 13.16796875 C-12.66772373 8.6372088 -12.66772373 8.6372088 -11.65234375 4.98046875 C-11.471875 4.28566406 -11.29140625 3.59085937 -11.10546875 2.875 C-9.36595137 -1.34816165 -3.86311967 0.00529776 0 0 Z " fill="#FF7F00" transform="translate(141.40234375,312.83203125)"/>
<path d="M0 0 C2.00958118 0.02393942 4.01898131 0.07447876 6.02734375 0.1484375 C7.55584961 0.16970703 7.55584961 0.16970703 9.11523438 0.19140625 C16.59831942 0.34017534 16.59831942 0.34017534 18.96484375 1.5234375 C19.08296124 6.54241595 18.67932338 11.28790143 17.828125 16.22265625 C17.7068071 16.93895706 17.5854892 17.65525787 17.460495 18.39326477 C17.20220979 19.90229558 16.9406678 21.41077225 16.67602539 22.91870117 C16.28183077 25.18513922 15.90910309 27.454437 15.53710938 29.72460938 C13.52697423 41.53532502 11.18934664 54.01961778 0.96484375 61.5234375 C-3.57103002 64.32559952 -7.73286891 64.84806734 -13.03515625 64.5234375 C-16.0699855 58.21099266 -16.0699855 58.21099266 -15.9296875 55.44140625 C-14.33453755 52.02123757 -10.80416637 51.35537031 -7.48046875 49.96484375 C-3.47967472 47.60654823 -2.2969407 44.52590488 -1.14379883 40.11010742 C-0.90814209 38.83756104 -0.67248535 37.56501465 -0.4296875 36.25390625 C-0.23629036 35.23240227 -0.23629036 35.23240227 -0.03898621 34.19026184 C0.36742018 32.03210219 0.76006793 29.87170543 1.15234375 27.7109375 C1.42682678 26.24006472 1.70220823 24.76935929 1.97851562 23.29882812 C2.65102985 19.70890862 3.31123596 16.11685323 3.96484375 12.5234375 C0.00484375 12.5234375 -3.95515625 12.5234375 -8.03515625 12.5234375 C-8.2392721 9.05346798 -8.22433318 6.14952305 -7.21484375 2.80859375 C-4.56244117 0.02784911 -3.73622859 0.14849665 0 0 Z " fill="#FF7F00" transform="translate(16.03515625,312.4765625)"/>
</svg>
