<svg id="Layer_x0020_1" xmlns="http://www.w3.org/2000/svg" xmlns:xlink="http://www.w3.org/1999/xlink" width="275.078" height="61.727" viewBox="0 0 275.078 61.727">
  <defs>
    <linearGradient id="linear-gradient" x1="0.475" y1="0.302" x2="0.5" y2="1.366" gradientUnits="objectBoundingBox">
      <stop offset="0" stop-color="#fff"/>
      <stop offset="1" stop-color="#fff" stop-opacity="0"/>
    </linearGradient>
    <linearGradient id="linear-gradient-2" x1="0.558" y1="0.322" x2="0.528" y2="1.24" xlink:href="#linear-gradient"/>
  </defs>
  <g id="_1625820680176" transform="translate(0 0)">
    <path id="Path_1" data-name="Path 1" d="M5225.17,780.63v5.377h-.525a8.494,8.494,0,0,0-1.04-2.673,3.941,3.941,0,0,0-1.569-1.294,4.913,4.913,0,0,0-1.944-.265h-1.478v15.311a6.376,6.376,0,0,0,.165,1.9,1.533,1.533,0,0,0,.658.665,2.634,2.634,0,0,0,1.341.29h.658v.54h-10.393v-.54h.659a2.743,2.743,0,0,0,1.39-.31,1.383,1.383,0,0,0,.6-.7,5.854,5.854,0,0,0,.165-1.844V781.774h-1.439a4.162,4.162,0,0,0-2.915.849,5.615,5.615,0,0,0-1.608,3.383h-.555v-5.377h17.83Zm11.335,14.2h-7.012l-.836,1.934a4.284,4.284,0,0,0-.408,1.594,1.317,1.317,0,0,0,.673,1.229,5.546,5.546,0,0,0,1.945.355v.54h-6.6v-.54a2.958,2.958,0,0,0,1.755-.889,11.581,11.581,0,0,0,1.7-2.993l7.1-15.841h.279l7.156,16.281a9.891,9.891,0,0,0,1.685,2.913,2.312,2.312,0,0,0,1.409.53v.54h-9.605v-.54h.4a2.994,2.994,0,0,0,1.624-.325.781.781,0,0,0,.324-.675,1.742,1.742,0,0,0-.09-.54c-.019-.09-.165-.455-.439-1.1l-1.053-2.474Zm-.5-1.084-2.954-6.836L5230,793.747Zm17.646-2.314V797a6.2,6.2,0,0,0,.193,2.024,1.46,1.46,0,0,0,.7.67,4.728,4.728,0,0,0,1.864.25v.54h-10.164v-.54a4.484,4.484,0,0,0,1.868-.26,1.517,1.517,0,0,0,.691-.665,6.158,6.158,0,0,0,.193-2.019V784.117a6.254,6.254,0,0,0-.193-2.029,1.446,1.446,0,0,0-.7-.664,4.586,4.586,0,0,0-1.858-.25v-.545h9.225a20.209,20.209,0,0,1,5.271.5,5.324,5.324,0,0,1,2.724,1.839,4.939,4.939,0,0,1,1.055,3.138,4.7,4.7,0,0,1-1.585,3.633,6.5,6.5,0,0,1-2.822,1.359l4.771,6.721a10.327,10.327,0,0,0,1.331,1.624,2.485,2.485,0,0,0,1.394.5v.54h-6.252l-6.4-9.05h-1.3Zm0-9.735v8.7h.832a9.316,9.316,0,0,0,3.044-.37,3.031,3.031,0,0,0,1.59-1.349,4.939,4.939,0,0,0,.579-2.539,3.859,3.859,0,0,0-4.482-4.438Zm24.665,18.245v.54h-10.379v-.54h.66a2.741,2.741,0,0,0,1.39-.31,1.31,1.31,0,0,0,.583-.7,5.85,5.85,0,0,0,.166-1.844V784.028a6.39,6.39,0,0,0-.166-1.9,1.422,1.422,0,0,0-.649-.664,2.632,2.632,0,0,0-1.324-.285h-.66v-.545h10.379v.545h-.659a2.735,2.735,0,0,0-1.388.3,1.4,1.4,0,0,0-.6.7,6.143,6.143,0,0,0-.159,1.844v13.058a6.383,6.383,0,0,0,.165,1.9,1.531,1.531,0,0,0,.66.665,2.59,2.59,0,0,0,1.324.29Zm15.021.714a5.7,5.7,0,0,0,2.095,2.928,6.12,6.12,0,0,0,3.558.98,6.931,6.931,0,0,0,1.245-.115v.894a16.457,16.457,0,0,1-3.954.555,9.027,9.027,0,0,1-4.867-1.334,8.123,8.123,0,0,1-3.227-3.908,9.74,9.74,0,0,1-5.807-3.528,10.256,10.256,0,0,1-2.206-6.6,9.977,9.977,0,0,1,2.989-7.4,11.181,11.181,0,0,1,15.137.005,10.008,10.008,0,0,1,2.973,7.4,10.309,10.309,0,0,1-2.329,6.721A9.058,9.058,0,0,1,5293.335,800.658Zm-2.6-19.369a4.454,4.454,0,0,0-4.073,2.738,14.425,14.425,0,0,0-1.2,6.546q0,5.09,1.8,7.551a4.393,4.393,0,0,0,6.94.03q1.8-2.414,1.8-7.261,0-4.775-1.125-6.911A4.464,4.464,0,0,0,5290.733,781.289Zm27.289,9.649v6.146a6.335,6.335,0,0,0,.166,1.9,1.524,1.524,0,0,0,.659.665,2.593,2.593,0,0,0,1.325.29h.659v.54h-10.378v-.54h.66a2.735,2.735,0,0,0,1.389-.31,1.3,1.3,0,0,0,.584-.7,5.838,5.838,0,0,0,.165-1.844V784.028a6.379,6.379,0,0,0-.165-1.9,1.451,1.451,0,0,0-.65-.664,2.625,2.625,0,0,0-1.323-.285h-.66v-.545h10.378v.545h-.659a2.74,2.74,0,0,0-1.389.3,1.391,1.391,0,0,0-.6.7,5.946,5.946,0,0,0-.16,1.844v5.622h7.011v-5.622a6.671,6.671,0,0,0-.16-1.9,1.475,1.475,0,0,0-.661-.664,2.677,2.677,0,0,0-1.333-.285h-.645v-.545H5332.6v.545h-.644a2.721,2.721,0,0,0-1.395.3,1.449,1.449,0,0,0-.6.7,6.16,6.16,0,0,0-.159,1.844v13.058a6.676,6.676,0,0,0,.159,1.9,1.471,1.471,0,0,0,.661.665,2.627,2.627,0,0,0,1.334.29h.644v.54h-10.369v-.54h.645a2.727,2.727,0,0,0,1.4-.31,1.424,1.424,0,0,0,.6-.7,6.1,6.1,0,0,0,.16-1.844v-6.146Zm27.594,3.893h-7.011l-.833,1.934a4.257,4.257,0,0,0-.411,1.594,1.318,1.318,0,0,0,.675,1.229,5.543,5.543,0,0,0,1.943.355v.54h-6.6v-.54a2.943,2.943,0,0,0,1.753-.89,11.525,11.525,0,0,0,1.7-2.993l7.1-15.841h.279l7.156,16.281a9.888,9.888,0,0,0,1.684,2.914,2.315,2.315,0,0,0,1.41.53v.54h-9.605v-.54h.4a2.993,2.993,0,0,0,1.623-.325.782.782,0,0,0,.326-.675,1.768,1.768,0,0,0-.089-.539c-.021-.09-.166-.455-.44-1.1l-1.056-2.474Zm-.5-1.084-2.953-6.836-3.047,6.836Zm28.608-.235-.745,6.971h-17.629v-.54h.659a2.731,2.731,0,0,0,1.389-.31,1.331,1.331,0,0,0,.589-.7,6.049,6.049,0,0,0,.16-1.844V784.028a6.608,6.608,0,0,0-.16-1.9,1.464,1.464,0,0,0-.654-.664,2.627,2.627,0,0,0-1.325-.285h-.659v-.545h10.589v.545h-.865a2.766,2.766,0,0,0-1.395.3,1.444,1.444,0,0,0-.6.7,6.1,6.1,0,0,0-.16,1.844v12.648a6.507,6.507,0,0,0,.174,1.939,1.168,1.168,0,0,0,.69.625,6.888,6.888,0,0,0,1.769.13h1.654a5.639,5.639,0,0,0,2.64-.555,4.876,4.876,0,0,0,1.819-1.759,14.165,14.165,0,0,0,1.459-3.543Zm13.543,1.319h-7.011l-.836,1.934a4.276,4.276,0,0,0-.409,1.594,1.317,1.317,0,0,0,.674,1.229,5.549,5.549,0,0,0,1.944.355v.54h-6.6v-.54a2.948,2.948,0,0,0,1.753-.89,11.521,11.521,0,0,0,1.7-2.993l7.1-15.841h.281l7.154,16.281a9.951,9.951,0,0,0,1.685,2.914,2.315,2.315,0,0,0,1.41.53v.54h-9.6v-.54h.395a2.988,2.988,0,0,0,1.624-.325.781.781,0,0,0,.326-.675,1.7,1.7,0,0,0-.092-.539c-.019-.09-.164-.455-.438-1.1l-1.054-2.474Zm-.5-1.084-2.953-6.836-3.048,6.836Zm28.608-.235-.745,6.971H5397v-.54h.659a2.734,2.734,0,0,0,1.389-.31,1.334,1.334,0,0,0,.59-.7,6.076,6.076,0,0,0,.161-1.844V784.028a6.639,6.639,0,0,0-.161-1.9,1.458,1.458,0,0,0-.654-.664,2.63,2.63,0,0,0-1.325-.285H5397v-.545h10.59v.545h-.866a2.761,2.761,0,0,0-1.394.3,1.439,1.439,0,0,0-.6.7,6.153,6.153,0,0,0-.16,1.844v12.648a6.53,6.53,0,0,0,.174,1.939,1.169,1.169,0,0,0,.69.625,6.9,6.9,0,0,0,1.77.13h1.654a5.628,5.628,0,0,0,2.638-.555,4.879,4.879,0,0,0,1.82-1.759,14.154,14.154,0,0,0,1.458-3.543Z" transform="translate(-5140.299 -770.135)" fill="#2b2a29"/>
    <path id="Path_2" data-name="Path 2" d="M5158.84,3097.148l-.091.194-.23.037h-.546l-.259.06-.214-.06-1.126.1-.38-.1a2.161,2.161,0,0,1-.672.184h-.542l-.327-.124c0,.061-.045.1-.134.124a1.65,1.65,0,0,0-.484.072,1.531,1.531,0,0,1-.438.07l-.363-.142-.312.142-.033.115h-.16l-.1.179-.073,1.18.073.166-.036.2.018.523-.055.53v.16a.259.259,0,0,1-.048.173.631.631,0,0,0-.075.288l.142.233-.036.29-.124.091a.571.571,0,0,0,.1.273l-.1.179v.2l-.144.215.092.514-.036.745-.133.469a.29.29,0,0,1,.037.106.3.3,0,0,1-.034.121.183.183,0,0,0-.006.133.442.442,0,0,1,.021.11.766.766,0,0,1-.088.235c-.06.122-.082.2-.064.228a2.541,2.541,0,0,1,.064.281,1.178,1.178,0,0,0-.092.363,3.281,3.281,0,0,0,.038.4.618.618,0,0,1-.19-.027.785.785,0,0,0-.1-.025c-.094,0-.142-.176-.142-.523l.036-.276a3.666,3.666,0,0,0-.036-.436c-.021-.187-.034-.327-.034-.415l.106-1.277a1.663,1.663,0,0,1-.143-.267.223.223,0,0,1,.087-.169.271.271,0,0,1-.068-.157c0-.036.035-.073.105-.11a.743.743,0,0,1-.07-.239.779.779,0,0,1,.061-.26,1.017,1.017,0,0,0,.064-.19l-.018-.294a1.941,1.941,0,0,1,.166-.4c-.1,0-.147-.078-.147-.239,0-.276.033-.433.105-.47v-.743l-.105-.364.105-.763-.105-.541.105-.423c-.048-.167-.129-.248-.248-.248a.207.207,0,0,0-.169.087l-.257.028a.588.588,0,0,0-.284.1l-.222-.019-.211.019v.06h-.151a.9.9,0,0,1-.488-.115l-.036.115-.381-.115-1.054-.033-.418.125c-.315-.272-.468-.454-.468-.542a1.93,1.93,0,0,1,.07-.293h.292l1.284.256.311-.106.85.037.8.069.533-.2h.143l.147-.418.248.079.055.177.115-.054a1.034,1.034,0,0,0,.418.311l.29-.1a.646.646,0,0,1,.5.239l.108-.143.672-.133.418.037a.837.837,0,0,0,.327.079h.092a.779.779,0,0,1,.272-.061l.257.042a.107.107,0,0,0,.109-.06l.364-.054.415.1a.229.229,0,0,0,.252.033.82.82,0,0,1,.219-.058l.327.061.9-.019.4.073h.383Zm6.72,8.679a1.319,1.319,0,0,1,.016.23c0,.278-.134.417-.4.417-.179,0-.3-.151-.366-.453l-.125-.558v-.169a2.018,2.018,0,0,0,.019-.3.87.87,0,0,0-.184-.478l.124-.29-.072-.436.072-.212v-.293l.042-.257-.078-.286.078-.166v-.675l.019-.868-.132-.578.072-.24-.161-.69v-.221l-.292-.124-.327.3a.693.693,0,0,1-.179.115l-.308.133-.5.727-.207.053-.45.745v.088h-.124l-.056.16-.193.188a.817.817,0,0,0-.168.344l-.187.63-.275.354a.986.986,0,0,0-.122.3l-.18.167-.08.472-.381.363-.036.506h-.068l-.125.345-.293.523a3.3,3.3,0,0,0-.417.533l-.088-.037h-.114l-.055-.1-.158-.612-.036-1-.054-.293.054-.364-.019-.63.088-.036.124-1.543.055-.29-.019-.224.1-.052-.043-.124.078-.639.088-.257-.051-.266.051-.133-.051-.106.051-.6-.088-.091.054-.124-.017-.69-.115-.312h.115v-.157l-.17-.748v-.364l-.069-.166-.091-.579a3.372,3.372,0,0,0-.289-.744l.2-.293-.036-.052a.193.193,0,0,1,.215.221l.257.229.07.215a1.14,1.14,0,0,0,.221.3l-.042.161.115.326-.115.161.167.133-.015.469.015.9.108.46-.072.2.018.345-.069.293.051.451-.125.453.074.124-.037,1.108.037.17-.074.087-.078.675-.091.194.072.221-.036.106-.036.6-.175.521a.722.722,0,0,1,.193.312l-.142.257a.951.951,0,0,1,.09.433l.167-.131.072-.233.285-.583.133-.418a.365.365,0,0,0,.29-.381,1.7,1.7,0,0,0,.267-.433l.079-.23a.993.993,0,0,1,.177-.294l.02-.239-.056-.055.125-.105.037.054.292-.363a.238.238,0,0,0,.144-.224v-.07c.156-.024.238-.133.238-.329l.051-.033v-.091l.152-.034.018-.239h.124l-.019-.142h.125v-.115a.5.5,0,0,1,.152-.091c.012,0,.018.011.018.037v.036l.018-.16h.051c.142,0,.215-.115.215-.345l.22-.178.037.073a.736.736,0,0,0,.167-.364l.124-.054.056-.152.141-.017a.394.394,0,0,1,.2-.091.965.965,0,0,0,.143-.033l-.037-.07a1.664,1.664,0,0,1,.454-.206c.076,0,.173.083.291.242a.137.137,0,0,1,.132.158l.161.133a1.868,1.868,0,0,0,.293.612v1.418l-.036.745.07.179v1.329l-.035.239v.454l.035.381-.07.451a1.2,1.2,0,0,1,.1.542l.18.221v.221l.149.072Zm7.243-1.526a.682.682,0,0,1,.133.3.81.81,0,0,1-.164.3,2.06,2.06,0,0,0-.255.488l-.133.018-.193.381-.222.037-.489.327-.087.2-.151-.018-.159.185h-.257l-.054.09-.125-.018a.441.441,0,0,0-.344.175l-.115-.088a.737.737,0,0,1-.3.088.538.538,0,0,1-.327-.088,1.259,1.259,0,0,1-.239.019l-.108-.088a.793.793,0,0,1-.655-.276v-.221l-.294-.16-.068-.188a.784.784,0,0,0-.2-.23v-.142l-.2-.86.034-.611.072-.345v-.382l.1-.329-.037-.239a.34.34,0,0,0,.125-.2,1.047,1.047,0,0,1,.109-.269,4.314,4.314,0,0,1-.073-.451l.161-.134-.161-.179a.8.8,0,0,0,.123-.257l-.087-.542a1.41,1.41,0,0,1,.053-.381.3.3,0,0,0,.239.16,2.145,2.145,0,0,0,.347-.07.406.406,0,0,1-.017-.124.275.275,0,0,1,.142-.223,3.362,3.362,0,0,1,.4-.833.434.434,0,0,0,.167-.363h.091l.087-.177.105-.044a.678.678,0,0,1,.188-.266,1.223,1.223,0,0,0,.487-.417.393.393,0,0,0,.148.018c.019,0,.067-.069.143-.2.208-.072.318-.109.33-.109a.212.212,0,0,1,.157.109l.17-.037.087.07h.108a.365.365,0,0,0,.363.294H5172a.293.293,0,0,0,.116.185l-.079.036c.206.1.312.336.312.7l-.055.2.055.506-.091.079-.2.542-.364.45-.017.257a5.508,5.508,0,0,1-1.066.73c-.021.069-.06.1-.114.1a.574.574,0,0,1-.144-.036l-.4.275h-.243l-.345.161-.151-.091a1.552,1.552,0,0,0-.372-.07.877.877,0,0,0-.275.666l-.124.148a1.9,1.9,0,0,1-.088.472l-.1.052.1.657-.1.087.02.206-.02.248a3.033,3.033,0,0,0,.047.335c.026.186.077.291.14.321-.028.082.03.181.174.3a1.248,1.248,0,0,0,.463.249v.105l.472.073.672.037.453-.054a1.944,1.944,0,0,1,.4-.24l.14-.212h.169l.018-.091a1.537,1.537,0,0,0,.431-.182.145.145,0,0,0,.039-.094.176.176,0,0,1,.161-.1l.054-.115a.587.587,0,0,0,.5-.523A.339.339,0,0,1,5172.8,3104.3Zm-1.49-4.14c.045-.006.127-.081.24-.22l.052-.214a3.372,3.372,0,0,0,.256-.476.763.763,0,0,0,.037-.25,2.135,2.135,0,0,0-.124-.533l-.365-.124a.927.927,0,0,1-.187.036l-.106-.036c-.087,0-.146.055-.184.161a1.493,1.493,0,0,0-.488.133l-.053.123a.177.177,0,0,0-.071-.017.114.114,0,0,0-.048.009.122.122,0,0,0-.042.027.243.243,0,0,0-.032.039.167.167,0,0,0-.035.057c-.01.025-.016.049-.025.076s-.016.052-.027.079a.637.637,0,0,1-.111.154l-.134.161-.256.488-.133.115a.443.443,0,0,0-.1.233,3.815,3.815,0,0,1-.477.85l.123.07.061.152.3.087a1.54,1.54,0,0,1,.551-.239l.052-.107a.474.474,0,0,0,.142.037.226.226,0,0,0,.17-.106l.211-.037.133-.221h.125l.087-.2a.623.623,0,0,0,.454-.22Zm9.317-1.331-.054.224-.532.07-.345.256-.23.037-.294.176-.292.134a1.1,1.1,0,0,1-.346.229v.091l-.267.133-.184.29h-.2l-.1.284-.2.133a.528.528,0,0,0-.2.194l-.176.33a.557.557,0,0,0-.239.488l-.09-.036-.033.116-.133.09-.125.31a.864.864,0,0,0-.2.417l-.17.07v.381a.548.548,0,0,0-.087.2l.036.06-.178.073.054.142a2.694,2.694,0,0,1-.276.654l.087.233-.175.291a1.452,1.452,0,0,1,.033.275l-.033.294.079.318a.546.546,0,0,0,.079.106l.132.134a.979.979,0,0,1-.22.311l-.24-.088.037.157-.4-.07v-.238l-.054-.161.054-.293-.054-.124.036-.62-.036-.415c-.082-.031-.124-.067-.124-.109a.455.455,0,0,1,.124-.22v-.267a1.74,1.74,0,0,0-.018-.309l.072-.09-.072-.345.054-.275-.054-.167.054-.487-.088-.143.052-.17-.106-.362.037-.284a2.083,2.083,0,0,0-.037-.327l.054-.091-.1-.621-.133-.087.133-.309a1,1,0,0,1-.187-.606v-.248a.551.551,0,0,1-.107-.166.947.947,0,0,1,.451-.293l.132.036a.966.966,0,0,0,.2.423l-.036.454.178,1.374a.335.335,0,0,1-.11.239l.092.381-.054.276.054.291-.037.233.133.273-.078.054.061.417.142.033.063-.354a1.051,1.051,0,0,1,.212-.317.592.592,0,0,0,.229-.454v-.106l.116-.052c.018,0,.033-.024.044-.066s.031-.067.063-.067h.054l.106-.357.274-.185.019-.106h.123l-.054-.206.276-.125.018-.22.257-.037a.844.844,0,0,0,.267-.345l.167-.036a1.88,1.88,0,0,1,.329-.327.09.09,0,0,0,.087-.055l.295-.157.069-.133.161-.091a1.508,1.508,0,0,1,.638-.345h.07a.373.373,0,0,0,.257-.087l.161.051a.393.393,0,0,1,.2-.088A.965.965,0,0,1,5180.63,3098.83Zm5.46,5.471a.67.67,0,0,1,.134.3.8.8,0,0,1-.165.3,2.054,2.054,0,0,0-.253.488l-.134.018-.193.381-.221.037-.49.327-.088.2-.151-.018-.158.185h-.258l-.053.09-.125-.018a.442.442,0,0,0-.345.175l-.115-.088a.746.746,0,0,1-.3.088.54.54,0,0,1-.326-.088,1.3,1.3,0,0,1-.238.018l-.11-.088a.79.79,0,0,1-.654-.276v-.22l-.292-.161-.07-.188a.786.786,0,0,0-.2-.23v-.142l-.2-.86.034-.611.073-.345v-.381l.1-.329-.036-.24a.34.34,0,0,0,.125-.2,1.026,1.026,0,0,1,.109-.269,4.36,4.36,0,0,1-.072-.451l.16-.134-.16-.179a.791.791,0,0,0,.124-.257l-.087-.542a1.471,1.471,0,0,1,.051-.381.3.3,0,0,0,.238.16,2.093,2.093,0,0,0,.349-.07.388.388,0,0,1-.019-.123.279.279,0,0,1,.143-.224,3.3,3.3,0,0,1,.4-.833.435.435,0,0,0,.166-.363h.091l.088-.177.106-.044a.684.684,0,0,1,.187-.266,1.226,1.226,0,0,0,.487-.417.392.392,0,0,0,.149.018c.018,0,.066-.069.143-.2.208-.072.316-.109.329-.109a.21.21,0,0,1,.157.109l.17-.037.088.07h.108a.367.367,0,0,0,.364.295h.051a.294.294,0,0,0,.115.184l-.079.036c.206.1.312.336.312.7l-.055.2.055.506-.091.079-.2.542-.364.45-.019.257a5.448,5.448,0,0,1-1.065.73c-.021.069-.06.1-.114.1a.569.569,0,0,1-.144-.036l-.4.276H5183l-.344.16-.152-.091a1.54,1.54,0,0,0-.372-.07.883.883,0,0,0-.276.666l-.124.149a1.776,1.776,0,0,1-.087.471l-.1.052.1.657-.1.087.018.207-.018.248a2.832,2.832,0,0,0,.045.336c.027.185.075.291.139.321-.026.082.031.182.176.3a1.254,1.254,0,0,0,.463.25v.105l.472.072.67.037.454-.054a1.918,1.918,0,0,1,.4-.24l.139-.212h.17l.018-.091a1.521,1.521,0,0,0,.431-.182.15.15,0,0,0,.039-.093.175.175,0,0,1,.16-.106l.055-.115a.587.587,0,0,0,.5-.523A.331.331,0,0,1,5186.091,3104.3Zm-1.489-4.139c.044-.006.127-.081.239-.221l.051-.214a3.458,3.458,0,0,0,.259-.475.792.792,0,0,0,.035-.251,2.119,2.119,0,0,0-.123-.533l-.364-.124a.976.976,0,0,1-.188.036l-.105-.036c-.087,0-.148.054-.184.161a1.493,1.493,0,0,0-.488.133l-.054.124a.153.153,0,0,0-.068-.018.111.111,0,0,0-.049.009.132.132,0,0,0-.043.027.4.4,0,0,0-.033.04.219.219,0,0,0-.033.056c-.009.025-.016.049-.024.077l-.028.078a.577.577,0,0,1-.111.154l-.133.161-.258.488-.134.115a.457.457,0,0,0-.1.233,3.794,3.794,0,0,1-.479.85l.125.07.061.152.3.087a1.554,1.554,0,0,1,.552-.239l.05-.107a.5.5,0,0,0,.143.037.224.224,0,0,0,.169-.106l.211-.037.134-.22h.125l.087-.2a.624.624,0,0,0,.454-.22v-.089Zm10.292-5.756a.648.648,0,0,1-.311.3v.115l-.16.179c-.051.07-.1.105-.144.105a.313.313,0,0,1-.1-.036l-.487.585-.124.2-.437.134-.22.327-.2.091a1.745,1.745,0,0,0-.4.345l-.1-.072-.018-.221.416-.185c.059-.3.134-.463.226-.5s.137-.064.137-.076v-.069l.088-.054.037.018.042-.134h.072l-.072-.159h.285v-.258l.131-.033.089-.142.142-.054.134-.24c.048,0,.084-.037.105-.105h.109l.016-.187a.638.638,0,0,0,.225-.363A.717.717,0,0,1,5194.893,3094.406Zm1.8,9.134-.032.177-.17.124-.072.221-.25.069a.88.88,0,0,1-.256.454l-.222.079-.192.212a1.6,1.6,0,0,0-.313.33h-.125a.508.508,0,0,1-.4.2c-.129.161-.2.255-.221.285a.929.929,0,0,1-.342.127c-.139.027-.224.048-.26.057l-.071.109h-.292l-.16.125-.451-.339-.256-.585-.037-.941-.054-.185.179-1.489.114-.09-.054-.929a.951.951,0,0,1,.052-.314,3.032,3.032,0,0,0,.091-.405l.071-.043a1.164,1.164,0,0,0-.123-.506l.069-.239v-.339l.089-.116a2.1,2.1,0,0,0-.06-.287,1.491,1.491,0,0,1-.045-.182c0-.093.024-.142.072-.142a.05.05,0,0,0,.033.019,1.382,1.382,0,0,1-.124-.364c0-.088.042-.133.124-.133a.287.287,0,0,1,.121.049.3.3,0,0,0,.137.048.336.336,0,0,0,.09-.037c0-.1.04-.148.124-.148s.109.012.118.039a2.467,2.467,0,0,1,.048.342l.2.088-.16.2-.183,1.162.146.293a.431.431,0,0,1-.167.345l-.053.23.053.206-.213.744.017.088-.087.6v.436l-.132.291.035.248-.035.418a1.932,1.932,0,0,0,.151.816l-.019.1.16.106.185-.053.215.09.258-.124a.778.778,0,0,1,.309-.133l.123-.124.038.052.1-.143.188-.051a1.045,1.045,0,0,1,.452-.239.314.314,0,0,1,.257-.142l.107-.17.2-.018-.042-.194h.078l.037-.1.381-.2.037-.221.344.018A.648.648,0,0,1,5196.691,3103.54Zm7.27.992-.125.142c-.026.043-.108.224-.238.551l-.257.185.019.107h-.241l-.228.257h-.313l-.2.105a.283.283,0,0,0-.192.109.574.574,0,0,0-.242-.055.644.644,0,0,0-.231.055v.107l-.327-.037-.257.037-.24-.037-.036.054-.088-.054-.16.054h-.115a.869.869,0,0,0-.266.042l-.185-.06-.142.1-.074-.078-.132.078a.814.814,0,0,0-.382-.133.384.384,0,0,0-.155.054.81.81,0,0,0-.313-.082l-.4-.042a.916.916,0,0,0-.291.034l-.035-.07-.161.106a.156.156,0,0,0-.133-.071l-.051-.109c-.375-.015-.561-.282-.561-.8l.382-.054-.018-.134.088-.123.054.105h.105v.091l.169-.091c.094.018.143.064.143.133a.4.4,0,0,1-.056.161l.161.018v.275l.461.07.178.16.05-.087,2.325-.143.8-.15.043-.089.2-.036.052-.072a1.865,1.865,0,0,0,.727-.29l.053.051.036-.105.133-.106.02-.061-.091-.123.036-.161-.2-.169-.038-.143a.363.363,0,0,1-.177-.106l-.079.036-.179-.169h-.07l-.078-.107h-.18a.2.2,0,0,0-.2-.142l-.124.019a.86.86,0,0,1-.542-.188h-.188l-.229-.139-.115.069-.054-.088h-.125l-.2-.169-.542-.23-.2-.188-.612-.106-.018-.051-.514-.363-.23-.587-.187-.284-.051-.842.051-.087a1.053,1.053,0,0,1,.188-.621c.224-.129.339-.256.346-.381l.124.018a.947.947,0,0,1,.339-.436l.22-.194,1.052-.454.533-.1.523-.16.817.054.034.105h.055a.315.315,0,0,1,.238.1v.16l.222.161a4.792,4.792,0,0,0-.1.478.142.142,0,0,1-.16.161c-.046,0-.134-.127-.258-.382l-.486-.036-.125.036a1.378,1.378,0,0,0-.327-.214.048.048,0,0,0-.054.054l-.17.124a.707.707,0,0,0-.486.16.769.769,0,0,0-.47.221h-.2l-.151.115a1.58,1.58,0,0,1-.355.123l-.072.089-.1.054-.248.239-.17.266c-.169.112-.261.184-.267.221l-.185.743.087.054v.052a.619.619,0,0,0,.3.514v.091l.487.291h.114l.267.266h.363l.221.188.417.051.125.106.779.239c0,.073.047.109.135.109a.786.786,0,0,1,.408.106,1.128,1.128,0,0,0,.354.133l.019.088.159.088h.347l.309.206a.59.59,0,0,0,.238.327l-.019.055.092.124.157.032-.071.134A.576.576,0,0,1,5203.961,3104.531Zm12.119-2.917-.124.381.07.16-.061.427a.95.95,0,0,1-.133.282v.214l-.134.363-.109.157a2.144,2.144,0,0,0-.175.463l-.134.052-.069.242-.2.124-.152.326-.266.124-.023.239-.233.089c-.113.147-.185.241-.215.284a.547.547,0,0,1-.239.124,1.1,1.1,0,0,0-.255.106c-.031.19-.2.3-.5.321a.326.326,0,0,1-.257.133.487.487,0,0,1-.143-.037,1.027,1.027,0,0,1-.46.266l-.142.221-.239-.143-.054.107-.268-.107-.638-.061a2.707,2.707,0,0,0-.468-.647l.071-.24-.258-.656.106-.212-.106-.5.106-.285c0-.03-.009-.109-.026-.236a2.141,2.141,0,0,1-.028-.242.346.346,0,0,1,.188-.3v-.1a.838.838,0,0,1,.1-.4h.106a.509.509,0,0,0,.133-.345l-.055-.124.055-.276v-.179a.619.619,0,0,0,.161-.4l-.053-.29a.369.369,0,0,1,.053-.215c.182-.094.276-.185.276-.272a.331.331,0,0,0-.072-.188l.178-.309a.291.291,0,0,1,.109-.117.451.451,0,0,0,.094-.06l-.037-.179q.285-.027.285-.291a1.184,1.184,0,0,0-.05-.329.781.781,0,0,0,.795-.621h.116c.083-.081.14-.124.177-.124a1.025,1.025,0,0,1,.155.045,1.471,1.471,0,0,0,.429.043l.284-.124v.124a1.066,1.066,0,0,1,.461.206h.248c.06.118.117.176.169.176l.036-.015a1.423,1.423,0,0,0,.417.45l.088.222.167.073.285.415.293.835v.166Zm-.579.5a.364.364,0,0,0,.107-.22.179.179,0,0,0-.061-.127c-.042-.045-.063-.073-.063-.085h.105a.327.327,0,0,0-.125-.188l.036-.051-.123-.293.037-.4-.169-.284c-.131-.082-.195-.146-.195-.185v-.054a.094.094,0,0,0-.066-.095c-.045-.012-.067-.039-.067-.073v-.017a1.519,1.519,0,0,1,.079-.231l-.114-.09-.176-.018-.072-.133.072-.106-.242-.124-.175-.166-.515-.214-.211-.042c-.352,0-.52.1-.517.29l.026.605-.363.015-.568.348-.055.194-.2.133-.086.523-.179.125c-.036.018-.054.1-.054.257a1.19,1.19,0,0,0,.036.327l-.221.124c-.047.025-.073.139-.073.348a.36.36,0,0,1-.166.273v.178l-.162.258v.16l-.053.115.037.248-.24.585.078.2v.423l-.078.3.019.441.266.349a.906.906,0,0,0,.318.193l.054.088.124-.034.116.034.212-.088.435.018.2-.054.053-.124.186.018c.19,0,.285-.061.285-.185l.256.069.054-.142.166-.018.092-.2a.517.517,0,0,0,.211-.249h.294l.088-.187.309-.273.118-.169a.529.529,0,0,1,.158-.152l.256-.133a2.385,2.385,0,0,1,.161-.506l-.036-.16.257-.115-.036-.089c.073-.1.137-.187.2-.257h-.087a.309.309,0,0,0,.071-.16.463.463,0,0,0-.028-.134.381.381,0,0,1-.028-.105.636.636,0,0,1,.057-.248.73.73,0,0,0,.053-.167A.1.1,0,0,0,5215.5,3102.119Zm12.751,1.057c.024.093-.053.187-.222.284l.025.06c0,.061-.08.185-.24.379a.841.841,0,0,0-.239.438l-.195.052a.4.4,0,0,1-.33.436c-.017.07-.044.106-.087.106h-.037a.177.177,0,0,1-.2.151l-.105.211-.259.054-.21.142a.549.549,0,0,1-.118.043l-.4.073-.143-.019-.133.019-.056-.073-.16-.018-.2-.258h-.087a.253.253,0,0,1-.073-.193.9.9,0,0,1-.291-.5v-.142l-.125-.239v-.106l.089-.054-.071-.257-.131-.328.023-.487-.183-.293v-.45a12.623,12.623,0,0,1-.259-1.616v-.07a.915.915,0,0,1-.036-.206.253.253,0,0,1,.018-.106,1.114,1.114,0,0,1-.212-.5l-.089-.079-.381.4-.185.257-.639.762-.248.452c-.087.2-.161.339-.211.43a2.268,2.268,0,0,1-.358.405l.055.166-.124.345-.142.019v.16h-.1l-.345.417c-.011.2-.091.315-.233.345a1.182,1.182,0,0,0-.139.335c-.042.149-.111.227-.206.234l-.069.069a2.573,2.573,0,0,1-.314.449,3.211,3.211,0,0,1-.412.35c-.041.2-.117.322-.224.363l-.017.088a.458.458,0,0,1-.089.236.808.808,0,0,1-.433.2c-.09-.013-.157-.116-.206-.3s-.117-.305-.211-.345l-.054-.115.142-.233-.019-.221.091-.087-.091-.16.019-.221-.142-.4.123-.24-.069-.249a1.752,1.752,0,0,0,.123-.745v-.1a.653.653,0,0,0-.106-.215.306.306,0,0,0,.143-.22l-.037-.284.107-.69-.07-.133.014-.284-.086-.17.073-.575-.038-.2.052-.331-.052-.469.125-.239a1.333,1.333,0,0,1,.36.133.4.4,0,0,1,.042.164,3.836,3.836,0,0,1,.016.411l.148.239-.051.348.068.745-.124.4.056.469v.222l-.17.265.114.382a2.111,2.111,0,0,0-.132.5l.09.213a2.331,2.331,0,0,0-.142.711l.018.653.052.092.221-.107h.179l.1-.4a.327.327,0,0,0,.249-.206c.018-.139.109-.212.274-.212a.405.405,0,0,1,.125-.274c.05,0,.1-.085.169-.257a1.671,1.671,0,0,0,.292-.382v-.249h.017c.048,0,.1-.042.166-.126a.281.281,0,0,1,.234-.13.728.728,0,0,1,.16-.327l.256-.311.231-.505a1,1,0,0,1-.038-.184.05.05,0,0,1,.057-.055c.243-.157.362-.314.362-.469v-.22c.185-.073.275-.137.275-.2a.341.341,0,0,0-.026-.1.33.33,0,0,1-.029-.084c0-.061.025-.088.073-.088a.267.267,0,0,1,.143.051q.131-.487.405-.487a.548.548,0,0,1,.16.037.568.568,0,0,1,.16-.418c.024-.075.163-.169.425-.275l.089-.142h.07a.845.845,0,0,0,.257.257l.037.124.088.036.036.346.238.142-.077.312.131.565v.523l.125.621.052.647.188.6.033.6c0,.012.039.07.092.176a1.165,1.165,0,0,1,.123.4l.078.051v.275l.159.179-.036.133.124.07v.087a.559.559,0,0,0,.292.109.548.548,0,0,0,.277-.073.2.2,0,0,0,.088.037c.051,0,.1-.048.16-.143.168-.017.257-.063.257-.142v-.043c.015-.042.136-.1.363-.178a1.128,1.128,0,0,1,.186-.179l-.02-.042a.51.51,0,0,1,.067-.1,1.685,1.685,0,0,1,.173-.16.562.562,0,0,0,.169-.19l.1-.194c.08-.106.193-.279.349-.514l.246-.124h.167l.056.257Zm4.989.541a.218.218,0,0,1,.116.167c0,.148-.039.23-.116.248-.142.23-.287.349-.435.349,0,.051-.2.254-.594.6a.539.539,0,0,0-.233.1c-.039.039-.122.115-.244.226a.332.332,0,0,0-.327.213l-.179.054-.069-.036-.054.151h-.056a1.1,1.1,0,0,0-.381.106,3.28,3.28,0,0,1-.307.124l-.189.073h-.124l-.105-.161-.169-.143a1.724,1.724,0,0,0-.272-.477l-.054-.437.017-.211-.086-.115.018-.523-.018-.451.018-.224a.274.274,0,0,0,.052-.139.7.7,0,0,0-.124-.33c.048-.5.072-.781.072-.833a.526.526,0,0,0-.143-.329l.143-.07.052-.694-.037-.29.133-.33-.1-.363a.749.749,0,0,0,.151-.469v-.6l.053-.142-.016-.887.052-.877a1.459,1.459,0,0,1-.089-.685l.053-.547-.053-.2.089-.823a1.852,1.852,0,0,0,.208-.091.613.613,0,0,1,.137-.051.2.2,0,0,1,.073.037l.087.29.187.161-.133.188v.07a.492.492,0,0,0,.06.22c-.012.2-.054.3-.132.3l.055.1a3.357,3.357,0,0,0,.1.763l-.151.468.115.161a1.38,1.38,0,0,0-.2.69.206.206,0,0,0,.16.223l-.124.346a.912.912,0,0,1,.07.211.632.632,0,0,1-.07.24l.033.214-.086.584-.01.275a3.374,3.374,0,0,1-.152.575l.091.381-.054.692-.1.07.116.224-.08.345-.071.539.071.133-.071.054a.67.67,0,0,1,.115.435.58.58,0,0,1-.08.212l.08.2-.044.275.08.2-.037.148.2.6.221.089a1.306,1.306,0,0,1,.418-.161l.105.018.248-.212a.6.6,0,0,1,.222-.1.365.365,0,0,1,.312-.175l.087-.1.133.018.037-.091.175-.051.169-.124.175-.054a1.935,1.935,0,0,0,.176-.161,1.533,1.533,0,0,1,.279-.22c0-.051.04-.1.115-.133a.087.087,0,0,0,.07.036.352.352,0,0,0,.178-.088Z" transform="translate(-5080.993 -3054.077)" fill="#2b2a29" stroke="#2b2a29" stroke-miterlimit="2.613" stroke-width="0.2"/>
    <path id="Path_3" data-name="Path 3" d="M11952.192,3382.521a.415.415,0,0,0-.187.329c0,.046.011.106.018.175l.108.657-.108.711.035.291-.088.249.053.8-.053.115v.647l-.035.515.07.176-.035,1.2.088.221-.088.106.053.33-.088.088.07.275h-.07l-.038.142v.273l-.088.224.037.157-.38.675-.039.345-.094-.015-.161.212a1.856,1.856,0,0,0-.327.46l-.331.2a.527.527,0,0,1-.52.415.091.091,0,0,1,.015.054c0,.042-.021.061-.071.061l-.076.073a.724.724,0,0,0-.306.212h-.2l-.057.072-.238-.054-.366.239-.212-.037-.584.092-.163-.019-.084.019-.534-.092h-.143l-.186-.166-.086.018-.641-.215-.453-.069-.105-.188-.292-.034-.125-.312-.167-.055-.247-.345-.258-.124-.24-.345a.594.594,0,0,0-.15-.133l-.284-.161.095-.23-.164-.184.017-.109a1.236,1.236,0,0,0-.124-.469,1.138,1.138,0,0,1-.035-.257,1.37,1.37,0,0,1,.069-.363l.073-.2v-.054l.122-.07.042-.091.076.019.043-.212a1.446,1.446,0,0,1,.422-.5l.258-.072.438-.382.5.036c.083-.124.156-.184.222-.184.082,0,.123.048.123.148a.211.211,0,0,1-.016.091l-.24.105-.16.134a1.9,1.9,0,0,1-.419.161l-.122.257h-.26a2.669,2.669,0,0,1-.5.63l.019.344a.8.8,0,0,0-.151.46l-.089.055.4.938.365.133.054.215.565.547.215.064a.69.69,0,0,1,.23.133l.257.239h.293l.223.212.289-.036.123.115,1.041-.042.141-.036v.036c0,.064.025.1.07.1.006,0,.02-.012.044-.037a.642.642,0,0,1,.469-.184h.094l.572-.24v.079c.077-.061.117-.1.117-.116h-.061a.149.149,0,0,1,.115-.036.174.174,0,0,1,.087.018c.02-.106.069-.162.161-.162h.06l.035-.105c.083,0,.126-.048.126-.152h.019c.064,0,.113-.042.15-.133s.088-.133.158-.138l.053.042a.515.515,0,0,1,.277-.382.64.64,0,0,0,.212-.5h.1c.185-.391.317-.7.4-.924l-.035-.051.035-.46.09-.055v-.417l.071-.124-.161-.2a.9.9,0,0,0,.161-.179.854.854,0,0,0-.036-.136.987.987,0,0,1-.035-.279v-.073l.035-.744v-1.057l-.086-.2.086-.363-.035-.417v-.956l-.033-.206.068-.194-.068-.17.068-.158-.035-.675-.168-.16.168-.167-.033-.143.033-.274-.09-.107.039-.224-.117-.211a.543.543,0,0,1-.23.142l-.089.221-.15.091-.034.212-.3.2.038.09-.143.2-.123.036-.051.088-.275.088v.239h-.133l-.056.215-.611.566-.418.469-.221.073-.1.169-.418.378-.172.037a3.622,3.622,0,0,1-.328.293l-.052.161-.159.088h-.149l-.088.169-.2.033-.362.363-.329.054-.134.125c-.089.03-.211.072-.361.133l-.055.142a.968.968,0,0,1-.419.052c-.26,0-.421-.052-.486-.157l-.365-.621-.032-.293-.185-.666v-.585l-.074-.178.114-.441-.081-.285.081-.078.019-.233.126-.272-.021-.418.093-.238-.093-.161.179-.833-.055-.55.055-.488-.157-.675.071-.157-.071-.133.143-.357-.071-.148.125-.109v-.239l.2-.018a.8.8,0,0,0,.239.366l-.061.124.116.024-.056.233.141.258-.053.124.053.291.091.072-.125.275.108.469-.215.291.106.125-.106.693v.638l-.078.088-.07.941-.2.258.039.166v.418l.086.248-.086.206.032.309-.071.142.071.161v.221l.2.2.06.215.124-.018.034.105.146-.087.38.034.134-.291.451-.178.017.054a.255.255,0,0,1,.143-.215,1.624,1.624,0,0,0,.307-.215,1.128,1.128,0,0,1,.386-.228l-.021.1c.062-.025.092-.058.092-.1a.323.323,0,0,0-.037-.087,1.423,1.423,0,0,0,.59-.415,1.553,1.553,0,0,1,.847-.457l.221-.363.035.106v-.158a.31.31,0,0,0,.285-.293l.2-.143a.267.267,0,0,0,.179-.257v-.052a1.5,1.5,0,0,1,.458-.239l.037-.143a3.7,3.7,0,0,0,.452-.6.816.816,0,0,0,.384-.363l.326-.69-.019-.417.143-.07v-.347l-.089-.291.055-.266-.161-.1-.019-.055a.421.421,0,0,1,.095-.2.889.889,0,0,0,.119-.235l.07-.051.018-.125a.37.37,0,0,1,.2-.072l.383.381.018.215.009.176a1.745,1.745,0,0,0,.168.347l-.106.115.035.248-.035.2.15.16-.15.019v.257l-.088.327.088.469-.018.347.053.125-.035.326.169.584Zm13.119-.869-.121.382.069.16-.062.427a.979.979,0,0,1-.133.282v.215l-.136.362-.106.158a1.864,1.864,0,0,0-.175.463l-.133.052-.07.242-.2.124-.15.327-.266.124-.023.24-.232.087c-.115.148-.187.242-.215.284a.546.546,0,0,1-.242.125,1.119,1.119,0,0,0-.255.106c-.029.19-.2.3-.5.321a.322.322,0,0,1-.26.133.493.493,0,0,1-.141-.036,1.025,1.025,0,0,1-.461.266l-.139.221-.243-.142-.051.106-.269-.106-.639-.061a2.619,2.619,0,0,0-.469-.647l.072-.239-.257-.657.106-.212-.106-.5.106-.285c0-.03-.011-.109-.026-.235a2.3,2.3,0,0,1-.027-.243.344.344,0,0,1,.187-.3v-.1a.842.842,0,0,1,.106-.4h.1a.5.5,0,0,0,.132-.345l-.054-.125.054-.275v-.178a.606.606,0,0,0,.161-.4l-.051-.291a.4.4,0,0,1,.051-.215c.185-.094.276-.184.276-.271a.327.327,0,0,0-.07-.188l.177-.308a.282.282,0,0,1,.109-.117.522.522,0,0,0,.095-.061l-.038-.178c.191-.018.285-.115.285-.291a1.146,1.146,0,0,0-.053-.331.785.785,0,0,0,.8-.62h.115c.082-.081.141-.124.177-.124a1.1,1.1,0,0,1,.153.045,1.506,1.506,0,0,0,.431.042l.283-.124v.124a1.07,1.07,0,0,1,.462.206h.248c.06.117.117.175.168.175l.038-.014a1.388,1.388,0,0,0,.417.45l.086.221.169.072.282.415.295.835V3381Zm-.576.506a.379.379,0,0,0,.106-.221.183.183,0,0,0-.06-.127c-.044-.045-.063-.073-.063-.084h.1a.329.329,0,0,0-.124-.188l.036-.052-.126-.293.039-.4-.17-.284c-.131-.082-.194-.146-.194-.185v-.054a.1.1,0,0,0-.068-.094.077.077,0,0,1-.064-.073v-.018a1.3,1.3,0,0,1,.078-.231l-.114-.09-.177-.018-.072-.134.072-.106-.24-.124-.176-.166-.514-.215-.214-.042c-.352,0-.521.1-.516.29l.027.6-.362.016-.567.348-.055.194-.205.133-.087.524-.176.124c-.037.018-.057.1-.057.257a1.1,1.1,0,0,0,.038.327l-.222.124c-.048.024-.072.138-.072.347a.356.356,0,0,1-.168.273v.178l-.159.258v.16l-.056.115.039.248-.242.585.078.2v.423l-.078.3.019.442.268.348a.876.876,0,0,0,.318.193l.054.088.123-.033.117.033.212-.088.433.018.2-.054.057-.124.186.019c.188,0,.284-.062.284-.185l.256.069.054-.142.167-.018.09-.2a.523.523,0,0,0,.214-.248h.293l.087-.187.31-.272.117-.17a.539.539,0,0,1,.157-.152l.257-.133a2.24,2.24,0,0,1,.161-.505l-.036-.161.255-.115-.033-.088c.072-.1.137-.187.2-.257h-.09a.309.309,0,0,0,.07-.159.4.4,0,0,0-.027-.133.466.466,0,0,1-.026-.106.7.7,0,0,1,.054-.248.783.783,0,0,0,.055-.167A.092.092,0,0,0,11964.735,3382.158Zm12.749,1.056c.024.094-.053.188-.219.284l.021.061c0,.061-.078.184-.237.378a.844.844,0,0,0-.239.439l-.2.052a.4.4,0,0,1-.329.436c-.019.07-.045.105-.085.105h-.04a.176.176,0,0,1-.2.151l-.106.212-.256.055-.214.142a.477.477,0,0,1-.115.043l-.4.073-.144-.018-.131.018-.055-.073-.158-.018-.2-.258h-.089a.264.264,0,0,1-.072-.194.9.9,0,0,1-.292-.5v-.142l-.124-.24v-.106l.088-.054-.068-.258-.135-.327.025-.486-.184-.294v-.451a12.361,12.361,0,0,1-.256-1.616v-.069a.866.866,0,0,1-.039-.206.27.27,0,0,1,.018-.106,1.078,1.078,0,0,1-.211-.5l-.09-.079-.383.4-.185.257-.637.763-.249.452c-.088.2-.16.338-.211.429a2.227,2.227,0,0,1-.358.406l.054.167-.124.345-.141.018v.16h-.1l-.346.417c-.013.2-.091.315-.233.345a1.121,1.121,0,0,0-.139.336c-.042.148-.113.227-.208.233l-.069.07a2.482,2.482,0,0,1-.312.447,3.223,3.223,0,0,1-.411.351c-.044.2-.118.321-.225.364l-.018.087a.447.447,0,0,1-.088.236.818.818,0,0,1-.435.2c-.091-.011-.156-.114-.2-.3s-.12-.305-.212-.345l-.056-.115.141-.233-.016-.221.088-.089-.088-.16.016-.221-.141-.4.125-.24-.069-.248a1.727,1.727,0,0,0,.124-.744v-.1a.712.712,0,0,0-.107-.215.311.311,0,0,0,.141-.221l-.033-.284.1-.69-.07-.133.016-.285-.088-.169.072-.575-.033-.2.049-.33-.049-.469.122-.239a1.253,1.253,0,0,1,.359.133.391.391,0,0,1,.044.163c.009.085.013.224.013.412l.149.239-.05.348.068.743-.125.4.055.469v.221l-.168.266.113.382a2.266,2.266,0,0,0-.134.5l.091.212a2.342,2.342,0,0,0-.14.71l.017.654.053.091.22-.105h.182l.094-.4a.325.325,0,0,0,.248-.206c.02-.138.108-.211.277-.211a.4.4,0,0,1,.123-.276c.047,0,.1-.084.168-.257a1.572,1.572,0,0,0,.291-.382v-.248h.021c.048,0,.1-.042.164-.127a.28.28,0,0,1,.234-.13.736.736,0,0,1,.158-.327l.258-.311.229-.506a1.24,1.24,0,0,1-.033-.184.048.048,0,0,1,.054-.055c.241-.157.361-.314.361-.469v-.221c.187-.073.277-.136.277-.2a.3.3,0,0,0-.026-.1.247.247,0,0,1-.026-.085c0-.06.022-.087.07-.087a.264.264,0,0,1,.144.052c.088-.324.223-.488.4-.488a.577.577,0,0,1,.163.036.563.563,0,0,1,.158-.418c.023-.075.162-.169.425-.275l.09-.142h.068a.873.873,0,0,0,.259.257l.036.124.086.036.039.345.238.143-.08.311.135.565v.524l.123.621.051.647.188.6.034.6c.006.012.037.069.1.176a1.249,1.249,0,0,1,.119.4l.079.051v.276l.158.178-.036.134.125.07v.087a.552.552,0,0,0,.295.109.544.544,0,0,0,.274-.072.2.2,0,0,0,.087.036c.053,0,.108-.048.161-.142.168-.019.258-.063.258-.142v-.042c.016-.042.137-.1.361-.178a1.226,1.226,0,0,1,.186-.178l-.02-.043a.789.789,0,0,1,.067-.1,1.984,1.984,0,0,1,.175-.16.626.626,0,0,0,.17-.191l.1-.193c.076-.106.193-.279.346-.515l.25-.123h.164l.055.257Zm5.756,1.126a.687.687,0,0,1,.132.3.784.784,0,0,1-.164.3,2.019,2.019,0,0,0-.254.488l-.133.018-.193.381-.224.036-.488.327-.087.2-.152-.019-.158.185h-.257l-.056.091-.123-.019a.445.445,0,0,0-.345.176l-.115-.088a.714.714,0,0,1-.3.088.535.535,0,0,1-.325-.088,1.246,1.246,0,0,1-.239.019l-.11-.088a.793.793,0,0,1-.652-.276v-.221l-.294-.161-.071-.187a.694.694,0,0,0-.194-.23v-.142l-.205-.86.036-.611.073-.345v-.382l.1-.329-.036-.24a.327.327,0,0,0,.122-.2,1.221,1.221,0,0,1,.108-.27c-.021-.106-.048-.258-.069-.45l.159-.134-.159-.178a.774.774,0,0,0,.124-.258l-.09-.541a1.431,1.431,0,0,1,.052-.382.3.3,0,0,0,.239.16,2.037,2.037,0,0,0,.348-.07.405.405,0,0,1-.017-.123.272.272,0,0,1,.143-.224,3.3,3.3,0,0,1,.4-.832.431.431,0,0,0,.164-.363h.093l.087-.178.107-.043a.7.7,0,0,1,.188-.266,1.233,1.233,0,0,0,.486-.418.38.38,0,0,0,.147.018c.021,0,.069-.07.143-.2.207-.072.317-.108.329-.108a.215.215,0,0,1,.158.108l.169-.036.089.069h.108a.364.364,0,0,0,.361.294h.055a.285.285,0,0,0,.113.185l-.079.036c.206.1.311.336.311.7l-.053.2.053.505-.088.079-.205.542-.361.451-.019.257a5.476,5.476,0,0,1-1.063.729c-.021.07-.061.106-.115.106a.585.585,0,0,1-.144-.036l-.4.275h-.243l-.344.16-.154-.09a1.485,1.485,0,0,0-.373-.07.883.883,0,0,0-.272.666l-.125.148a1.953,1.953,0,0,1-.086.472l-.1.052.1.657-.1.086.019.207-.019.247c0,.04.017.155.046.336s.074.291.139.32c-.025.083.03.182.173.3a1.3,1.3,0,0,0,.465.249v.1l.474.073.673.036.451-.055a2.049,2.049,0,0,1,.4-.239l.14-.212h.169l.018-.091a1.548,1.548,0,0,0,.431-.181.152.152,0,0,0,.039-.094.175.175,0,0,1,.16-.106l.054-.115a.59.59,0,0,0,.5-.523A.337.337,0,0,1,11983.24,3384.34Zm-1.491-4.14c.043-.006.126-.082.238-.221l.053-.214a3.615,3.615,0,0,0,.258-.475.8.8,0,0,0,.035-.252,2.076,2.076,0,0,0-.124-.533l-.364-.124a.959.959,0,0,1-.187.037l-.105-.037c-.09,0-.147.054-.184.16a1.489,1.489,0,0,0-.488.134l-.056.124a.158.158,0,0,0-.068-.019.107.107,0,0,0-.049.01.1.1,0,0,0-.041.027.319.319,0,0,0-.033.04.145.145,0,0,0-.034.057c-.01.025-.016.049-.026.076s-.016.051-.026.079a.614.614,0,0,1-.11.154l-.135.161-.257.487-.131.115a.42.42,0,0,0-.1.233,3.988,3.988,0,0,1-.478.85l.121.07.061.151.3.087a1.519,1.519,0,0,1,.551-.239l.051-.106a.462.462,0,0,0,.141.036.221.221,0,0,0,.171-.106l.211-.036.134-.221h.123l.09-.2a.629.629,0,0,0,.453-.221Z" transform="translate(-11789.766 -3334.115)" fill="#2b2a29" stroke="#2b2a29" stroke-miterlimit="2.613" stroke-width="0.2"/>
    <path id="Path_4" data-name="Path 4" d="M9.436,6.04A13.448,13.448,0,0,0,9.791,9.12c-.852,0-1.706.017-2.524.081a22.754,22.754,0,0,0-5.545.93c-1.085.378-1.5.624-1.722,1.318.109.009.206.037.337.058l.73.06c.282,0,1.725.126,1.9.152a14.327,14.327,0,0,1,4.9,1.578A3.907,3.907,0,0,1,8.775,14l.5,1.116c.238,1.109-2.087,2.474-2.927,3.153-.076.061-.11.108-.186.17l-.607.5A6.981,6.981,0,0,0,3.221,25.2a3.664,3.664,0,0,0,.994,1.967,3.57,3.57,0,0,0,.865.636c.233.084,2.311.539,2.54.539a7.536,7.536,0,0,1-.411,1.444A46.56,46.56,0,0,0,5.33,36.242c-.061.256-.1.517-.166.782A36.633,36.633,0,0,0,4.5,41.967l-.038,1.344c-.014.471-.023.815,0,1.3a15.928,15.928,0,0,0,1.132,5.383,14.658,14.658,0,0,0,1.332,2.418,14.067,14.067,0,0,0,1.217,1.546A19.551,19.551,0,0,0,14.7,58.574a23.385,23.385,0,0,0,6.73,1.679l7.074.388h4.784a.982.982,0,0,0,.433-.072l.191-.323a7.3,7.3,0,0,0-.553-2.013l-.369-1.17c-.339-1.032-.651-2.1-.968-3.138-.323-1.054-.664-2.062-.969-3.137-.151-.532-.349-1.061-.488-1.565-.3-1.07-.657-2.071-.97-3.136-.407-1.383-1.02-3.421-1.452-4.707-.517-1.54-.929-3.17-1.45-4.709-.354-1.043-.621-2.08-.967-3.139s-1.171-3.676-1.455-4.7c-.141-.511-.336-1.03-.488-1.565L22.33,22.558c-.7-2.091-1.247-4.188-1.934-6.278-.512-1.558-.952-3.166-1.442-4.717a12.9,12.9,0,0,1-.518-1.535c-.049-.336,1.455-.516,1.776-.514.458,0,1.918-.066,2.224-.106A12.5,12.5,0,0,0,23.807,9.2a14.422,14.422,0,0,0,2.284-.8,9.588,9.588,0,0,0,1-.535A12.4,12.4,0,0,0,28.93,6.583c.485-.4,1.01-.788,1.479-1.206.093-.083.1-.1.211-.184s.121-.115.2-.19l.421-.369a21.171,21.171,0,0,0,1.769-1.7,11.541,11.541,0,0,0,1.333-1.786c-.226.108-1.883.34-2.279.406-.774.129-1.514.264-2.334.351-.363.039-.887.053-1.241.1-.327.045-2.086.011-2.595.011a28.65,28.65,0,0,1-6.056-.695c-1.1-.25-3.711-1.3-4.051-1.358H15.2a6.446,6.446,0,0,0-4.116,1.806,5.546,5.546,0,0,0-1.22,1.742A6.856,6.856,0,0,0,9.436,6.04Z" transform="translate(0 0.04)" fill="#e63833" fill-rule="evenodd"/>
    <path id="Path_5" data-name="Path 5" d="M1906.846,819.619a15.125,15.125,0,0,0,.361,4.535c.352,1.138.981,2.838,1.3,3.992.054.2.113.4.182.608.2.587.52,1.721.7,2.345q.659,2.347,1.348,4.732l1.027,3.513c.346,1.166.715,2.34,1.1,3.484.274.822.468,1.5.71,2.33l.675,2.365c.285,1.017.729,2.4,1.063,3.477.465,1.5.926,3.219,1.4,4.679.431,1.322.569,2.258,1.042,3.538a8.122,8.122,0,0,0,1.309-1.021,5.329,5.329,0,0,0,.4-.391l1.586-1.533a2.381,2.381,0,0,0,.367-.383l2.745-2.742c.323-.311,1.655-1.622,1.918-1.951l.74-.84a55.982,55.982,0,0,0,8.243-14.458,29.758,29.758,0,0,0,1.324-4.913,20.067,20.067,0,0,0,.32-3.839v-1.606a11.865,11.865,0,0,0-.192-1.822c-.1-.615-.2-1.131-.346-1.708a21.537,21.537,0,0,0-1.489-4.078c-.068-.137-.122-.205-.185-.328-.294-.564-.441-.781-.751-1.3a15.829,15.829,0,0,0-2.3-2.756,15.122,15.122,0,0,0-4.378-2.768,21.956,21.956,0,0,0-3.018-1.048,20.088,20.088,0,0,0-6.846-.221,21.814,21.814,0,0,0-2.266.656c-.356.124-.723.267-1.05.411l-1.715.811a10.96,10.96,0,0,0-3.914,3.784,9.2,9.2,0,0,0-1.244,3.138,6.648,6.648,0,0,0-.155,1.306Z" transform="translate(-1882.289 -798.892)" fill="#3b7e48" fill-rule="evenodd"/>
    <path id="Path_6" data-name="Path 6" d="M461.049,1181.244a17.726,17.726,0,0,0,1.084,3.924,14.764,14.764,0,0,0,3.458,5.229,14.955,14.955,0,0,0,2.077,1.673,20.213,20.213,0,0,0,5.1,2.4,29.56,29.56,0,0,0,4.026.95l9.388.5-1.7-1.945a30.279,30.279,0,0,1-2.3-2.914c-.416-.6-.807-1.147-1.206-1.794a54.058,54.058,0,0,1-3.533-6.89,10.013,10.013,0,0,0-.448-1.055c-.165-.533-.425-1.11-.624-1.665a46.6,46.6,0,0,1-1.589-5.4,36.308,36.308,0,0,1-.976-8.252,31.931,31.931,0,0,1,.421-4.623,34.453,34.453,0,0,0,.505-4.536,5.512,5.512,0,0,0-1.265-3.776c-1.776-2.167-5.071-2.488-6.307.417-1.2,2.814.169,5.751-1.04,9.066-.233.639-.512,1.168-.78,1.747-.153.33-.865,1.478-.886,1.622a25.271,25.271,0,0,0-1.786,3.05,20.079,20.079,0,0,0-1.277,3.576,20.81,20.81,0,0,0-.342,8.7Z" transform="translate(-454.806 -1136.552)" fill="#d8d8da" fill-rule="evenodd"/>
    <path id="Path_7" data-name="Path 7" d="M1995.855,1102.665c.044.436.171.975.248,1.423.082.473.148.955.221,1.432a70.389,70.389,0,0,1,.8,9.158,41.915,41.915,0,0,1-.431,6.209c-.139.962-.316,1.884-.494,2.822l-.412,2.933c.69-.156,1.948-1.853,2.482-2.443.2-.217.4-.408.6-.628l1.768-1.943c.106-.112.145-.178.274-.318l.848-1.009c.644-.737,2.731-3.358,3.285-4.137.691-.972,1.374-1.811,2.038-2.9a27.042,27.042,0,0,0,3.141-6.731,23.792,23.792,0,0,0,.95-4.007c.69-4.543.485-8.774-1.264-12.68a14.152,14.152,0,0,0-7.318-7.411,15.148,15.148,0,0,0-9.4-.873,7.745,7.745,0,0,0-4.357,2.99,13.519,13.519,0,0,0-1.5,2.172,16.568,16.568,0,0,0-1.1,2.569l-.616,2.975c.525.194,2.207-1.853,4.3-1.3,2.478.66,4.093,4.71,4.786,6.978A35.7,35.7,0,0,1,1995.855,1102.665Z" transform="translate(-1960.047 -1067.262)" fill="#d8d8da" fill-rule="evenodd"/>
    <path id="Path_8" data-name="Path 8" d="M3449.718,3990.19a5.179,5.179,0,1,1-3.661,1.517A5.164,5.164,0,0,1,3449.718,3990.19Zm3.135,2.042a4.433,4.433,0,1,0,1.3,3.135A4.421,4.421,0,0,0,3452.853,3992.233Z" transform="translate(-3400.193 -3938.818)" fill="#2b2a29"/>
    <path id="Path_9" data-name="Path 9" d="M3681.791,4190.787v-5.327h2.265a3.839,3.839,0,0,1,1.24.145,1.226,1.226,0,0,1,.621.509,1.544,1.544,0,0,1,.232.84,1.425,1.425,0,0,1-.352.991,1.692,1.692,0,0,1-1.055.491,2.462,2.462,0,0,1,.577.449,6.1,6.1,0,0,1,.612.864l.651,1.039h-1.287l-.778-1.159a7.728,7.728,0,0,0-.567-.783.846.846,0,0,0-.324-.223,1.8,1.8,0,0,0-.541-.059h-.218v2.224h-1.077Zm1.076-3.074h.8a4.132,4.132,0,0,0,.968-.065.58.58,0,0,0,.3-.226.694.694,0,0,0,.108-.4.64.64,0,0,0-.143-.435.67.67,0,0,0-.406-.21c-.086-.01-.348-.017-.784-.017h-.839Z" transform="translate(-3634.389 -4131.575)" fill="#2b2a29"/>
    <path id="Path_10" data-name="Path 10" d="M461.049,1181.244a17.726,17.726,0,0,0,1.084,3.924,14.764,14.764,0,0,0,3.458,5.229,14.955,14.955,0,0,0,2.077,1.673,20.213,20.213,0,0,0,5.1,2.4,29.56,29.56,0,0,0,4.026.95l9.388.5-1.7-1.945a30.279,30.279,0,0,1-2.3-2.914c-.416-.6-.807-1.147-1.206-1.794a54.058,54.058,0,0,1-3.533-6.89,10.013,10.013,0,0,0-.448-1.055c-.165-.533-.425-1.11-.624-1.665a46.6,46.6,0,0,1-1.589-5.4,36.308,36.308,0,0,1-.976-8.252,31.931,31.931,0,0,1,.421-4.623,34.453,34.453,0,0,0,.505-4.536,5.512,5.512,0,0,0-1.265-3.776c-1.776-2.167-5.071-2.488-6.307.417-1.2,2.814.169,5.751-1.04,9.066-.233.639-.512,1.168-.78,1.747-.153.33-.865,1.478-.886,1.622a25.271,25.271,0,0,0-1.786,3.05,20.079,20.079,0,0,0-1.277,3.576,20.81,20.81,0,0,0-.342,8.7Z" transform="translate(-454.806 -1136.552)" fill-rule="evenodd" fill="url(#linear-gradient)"/>
    <path id="Path_11" data-name="Path 11" d="M1995.855,1102.665c.044.436.171.975.248,1.423.082.473.148.955.221,1.432a70.389,70.389,0,0,1,.8,9.158,41.915,41.915,0,0,1-.431,6.209c-.139.962-.316,1.884-.494,2.822l-.412,2.933c.69-.156,1.948-1.853,2.482-2.443.2-.217.4-.408.6-.628l1.768-1.943c.106-.112.145-.178.274-.318l.848-1.009c.644-.737,2.731-3.358,3.285-4.137.691-.972,1.374-1.811,2.038-2.9a27.042,27.042,0,0,0,3.141-6.731,23.792,23.792,0,0,0,.95-4.007c.69-4.543.485-8.774-1.264-12.68a14.152,14.152,0,0,0-7.318-7.411,15.148,15.148,0,0,0-9.4-.873,7.745,7.745,0,0,0-4.357,2.99,13.519,13.519,0,0,0-1.5,2.172,16.568,16.568,0,0,0-1.1,2.569l-.616,2.975c.525.194,2.207-1.853,4.3-1.3,2.478.66,4.093,4.71,4.786,6.978A35.7,35.7,0,0,1,1995.855,1102.665Z" transform="translate(-1960.047 -1067.262)" fill-rule="evenodd" fill="url(#linear-gradient-2)"/>
  </g>
</svg>
