<svg width="23" height="23" viewBox="0 0 23 23" fill="none" xmlns="http://www.w3.org/2000/svg">
<path d="M18.5123 18.7145C17.8834 16.2213 15.6283 14.375 12.9375 14.375H10.0625C7.37168 14.375 5.1166 16.2213 4.4877 18.7145C2.60547 16.8861 1.4375 14.3301 1.4375 11.5C1.4375 5.94316 5.94316 1.4375 11.5 1.4375C17.0568 1.4375 21.5625 5.94316 21.5625 11.5C21.5625 14.3301 20.3945 16.8861 18.5123 18.7145ZM17.232 19.7656C15.6104 20.8977 13.6338 21.5625 11.5 21.5625C9.36621 21.5625 7.38965 20.8977 5.76348 19.7701C5.94316 17.5555 7.79844 15.8125 10.0625 15.8125H12.9375C15.2016 15.8125 17.0523 17.5555 17.2365 19.7701L17.232 19.7656ZM11.5 23C14.55 23 17.4751 21.7884 19.6317 19.6317C21.7884 17.4751 23 14.55 23 11.5C23 8.45001 21.7884 5.52494 19.6317 3.36827C17.4751 1.2116 14.55 0 11.5 0C8.45001 0 5.52494 1.2116 3.36827 3.36827C1.2116 5.52494 0 8.45001 0 11.5C0 14.55 1.2116 17.4751 3.36827 19.6317C5.52494 21.7884 8.45001 23 11.5 23ZM11.5 11.5C10.9281 11.5 10.3797 11.2728 9.9753 10.8684C9.57093 10.4641 9.34375 9.91562 9.34375 9.34375C9.34375 8.77188 9.57093 8.22343 9.9753 7.81905C10.3797 7.41468 10.9281 7.1875 11.5 7.1875C12.0719 7.1875 12.6203 7.41468 13.0247 7.81905C13.4291 8.22343 13.6562 8.77188 13.6562 9.34375C13.6562 9.91562 13.4291 10.4641 13.0247 10.8684C12.6203 11.2728 12.0719 11.5 11.5 11.5ZM7.90625 9.34375C7.90625 10.2969 8.28488 11.211 8.95883 11.8849C9.63279 12.5589 10.5469 12.9375 11.5 12.9375C12.4531 12.9375 13.3672 12.5589 14.0412 11.8849C14.7151 11.211 15.0938 10.2969 15.0938 9.34375C15.0938 8.39063 14.7151 7.47654 14.0412 6.80259C13.3672 6.12863 12.4531 5.75 11.5 5.75C10.5469 5.75 9.63279 6.12863 8.95883 6.80259C8.28488 7.47654 7.90625 8.39063 7.90625 9.34375Z" fill="black"/>
</svg>
