<?xml version="1.0" encoding="UTF-8"?>
<svg version="1.1" xmlns="http://www.w3.org/2000/svg" width="325" height="284">
<path d="M0 0 C1.51837542 -0.00406902 3.03674787 -0.00941276 4.55511475 -0.01593018 C8.66455048 -0.02956914 12.77375944 -0.02431965 16.88319898 -0.01479292 C21.18987451 -0.00717994 25.49653107 -0.01424635 29.8032074 -0.01895142 C37.03339106 -0.02440361 44.26348267 -0.01723082 51.49365234 -0.00292969 C59.84674149 0.01340199 68.19961101 0.00810244 76.55269486 -0.0084089 C83.73250727 -0.02203168 90.91225365 -0.02393975 98.09207481 -0.0160929 C102.3768298 -0.01142153 106.66148162 -0.01077689 110.94622993 -0.02070236 C114.97399279 -0.02938152 119.00147294 -0.02333294 123.02920532 -0.00601959 C124.50540129 -0.00206007 125.98162114 -0.00317967 127.45780754 -0.00980759 C129.47626254 -0.01803331 131.49476967 -0.00587838 133.51319885 0.00723267 C135.20580007 0.00892928 135.20580007 0.00892928 136.93259525 0.01066017 C143.08618922 0.75064439 147.10452585 3.77731029 151.07202148 8.38818359 C153.79329044 12.95081351 154.44449935 16.27650515 154.43278503 21.56356812 C154.43534831 22.26289857 154.43791158 22.96222902 154.44055253 23.6827513 C154.44547313 26.01367429 154.42902676 28.3439419 154.41259766 30.67480469 C154.41175101 32.35054509 154.41222726 34.02628661 154.41392517 35.70202637 C154.41478508 40.24294642 154.39716006 44.7836282 154.3762033 49.32449293 C154.35743575 54.07305661 154.35568599 58.8216259 154.35212708 63.57022095 C154.34280685 72.55864625 154.31819334 81.54696194 154.28807861 90.535339 C154.25453393 100.76985079 154.23804841 111.00436784 154.2229923 121.23892093 C154.19164379 142.2887363 154.13888369 163.33845304 154.07202148 184.38818359 C132.17536555 184.48167148 110.27874259 184.55218468 88.38192749 184.59543228 C78.21459273 184.61604764 68.04738206 184.64414868 57.88012695 184.68994141 C49.0171834 184.72984053 40.15432973 184.75562387 31.29129887 184.76453757 C26.59941034 184.7697471 21.90777893 184.78197006 17.2159729 184.81110382 C12.79679544 184.8383215 8.3779802 184.84661578 3.95872688 184.84061432 C2.33983451 184.84171172 0.72092961 184.84962781 -0.89789009 184.86500549 C-17.87698005 185.01833822 -17.87698005 185.01833822 -24.42974854 179.01153946 C-29.07032579 173.94812238 -30.17627168 168.62727899 -30.18867493 161.94325256 C-30.19575974 160.66616928 -30.20284454 159.389086 -30.21014404 158.07330322 C-30.20785055 156.67053187 -30.2053409 155.26776086 -30.20263672 153.86499023 C-30.20698706 152.37794235 -30.21217129 150.8908967 -30.21812439 149.40385437 C-30.23149052 145.37491717 -30.23209576 141.34607392 -30.22956109 137.31711888 C-30.22848983 133.9498502 -30.23337869 130.58260041 -30.23816651 127.21533579 C-30.2492533 119.26976346 -30.24970367 111.32423842 -30.24365234 103.37866211 C-30.23761151 95.18978444 -30.24992822 87.00107854 -30.27122241 78.81223017 C-30.28885108 71.77340574 -30.2948378 64.73463592 -30.29158467 57.69579023 C-30.2897738 53.49537352 -30.29238847 49.29507936 -30.30629921 45.09468269 C-30.31889369 41.14409682 -30.31691826 37.19377836 -30.30388832 33.24319649 C-30.30152656 31.79644174 -30.30424286 30.34966807 -30.31251144 28.90293503 C-30.36148602 19.6652792 -29.98667339 13.80629842 -24.67797852 6.13818359 C-17.59545131 -0.94434361 -9.4562327 -0.04252111 0 0 Z " fill="#592C7A" transform="translate(99.927978515625,-0.38818359375)"/>
<path d="M0 0 C7.60788598 6.36746979 13.03734742 13.23704227 16.1875 22.6875 C17.16883478 34.15785576 15.40873788 42.19014782 8 51.0625 C3.86253835 55.4188026 -0.12083431 57.87028144 -5.8125 59.6875 C-7.2975 60.1825 -7.2975 60.1825 -8.8125 60.6875 C-17.56626426 61.54691585 -24.55923819 60.90406692 -31.8125 55.6875 C-36.81677461 51.22394151 -40.36018529 45.87769322 -41.09375 39.08203125 C-41.38347095 30.33004413 -39.56210624 23.70166567 -33.53515625 17.23046875 C-28.04792498 12.31560174 -22.97635117 11.24083158 -15.71875 11.546875 C-15.0896875 11.59328125 -14.460625 11.6396875 -13.8125 11.6875 C-14.29589844 12.75484375 -14.29589844 12.75484375 -14.7890625 13.84375 C-16.43887247 18.4279548 -16.40535299 22.87960687 -15.8125 27.6875 C-13.79229262 31.22286291 -11.72811075 33.45687948 -7.8125 34.6875 C-3.62674941 35.1525834 -1.35145262 34.95697631 2.4375 33.0625 C6.05666163 29.93686041 7.74445575 27.34084277 8.5390625 22.58203125 C8.87736284 17.40959715 7.8595845 13.76333731 4.85546875 9.5390625 C-1.6309455 2.33868697 -10.14737917 -0.54780483 -19.5703125 -1.62890625 C-30.06165808 -2.09219929 -39.11563107 1.65036269 -46.8125 8.6875 C-54.94711204 16.5390049 -57.90407705 25.67333241 -58.125 36.8125 C-58.14797256 47.2586345 -55.07511889 56.07346407 -47.8125 63.6875 C-38.27772776 72.2134063 -29.1242252 75.08404444 -16.44921875 74.96484375 C-6.16478454 74.18053137 3.45961583 68.98355795 10.4375 61.4375 C16.36022297 53.93538424 18.98998614 46.0888775 20.1875 36.6875 C24.99560747 43.8996612 23.96661569 54.62018062 22.69140625 62.9140625 C18.55284553 80.63739032 9.34491611 95.80128385 -5.6875 106.3125 C-21.16053847 115.54538304 -37.99705925 118.17926286 -55.7109375 114.984375 C-72.55340334 110.26368386 -86.62479314 99.51353804 -95.8125 84.6875 C-97.73616932 80.7649078 -99.32867044 76.79335769 -100.8125 72.6875 C-101.34037109 71.49447266 -101.34037109 71.49447266 -101.87890625 70.27734375 C-106.69574654 56.91514663 -104.71211507 38.14754594 -99.1875 25.3515625 C-90.26696323 8.0680225 -76.09217044 -4.03154104 -57.6875 -10.3125 C-39.00346982 -14.61345762 -15.51797451 -11.50741691 0 0 Z " fill="#FDFCFD" transform="translate(203.8125,38.3125)"/>
<path d="M0 0 C3.96 0 7.92 0 12 0 C12 27.72 12 55.44 12 84 C8.04 84 4.08 84 0 84 C-0.33 82.68 -0.66 81.36 -1 80 C-1.60328125 80.34933594 -2.2065625 80.69867188 -2.828125 81.05859375 C-3.62734375 81.51363281 -4.4265625 81.96867187 -5.25 82.4375 C-6.03890625 82.88996094 -6.8278125 83.34242188 -7.640625 83.80859375 C-14.80626725 87.42700582 -23.21153059 86.873958 -30.6875 84.4375 C-39.6307885 80.78874035 -45.1995956 74.82411493 -49 66 C-51.57483307 58.02792069 -50.81369368 48.80545561 -47.3203125 41.28125 C-42.85073147 33.5586603 -36.6793387 28.16177767 -28.1171875 25.390625 C-17.76455558 23.48054531 -9.61253499 25.25831001 -1 31 C-0.67 20.77 -0.34 10.54 0 0 Z M-33.75 43.9375 C-37.47338338 49.00543849 -38.63265198 52.67348016 -38 59 C-36.02235071 66.17210787 -32.41281411 70.31296109 -26 74 C-20.62563291 75.7914557 -15.93205434 75.71176628 -10.8125 73.375 C-6.06463083 70.73522205 -3.32044474 67.38937619 -0.6875 62.625 C1.04697032 56.00247697 0.26793815 50.97243868 -3 45 C-6.62294823 40.80500731 -10.29091681 37.40472172 -15.90234375 36.56640625 C-23.97720211 36.5560139 -28.27715192 37.83377606 -33.75 43.9375 Z " fill="#4C5051" transform="translate(243,198)"/>
<path d="M0 0 C0.33 -1.32 0.66 -2.64 1 -4 C4.96 -4 8.92 -4 13 -4 C13 14.81 13 33.62 13 53 C9.04 53 5.08 53 1 53 C0.505 51.02 0.505 51.02 0 49 C-1.299375 49.928125 -1.299375 49.928125 -2.625 50.875 C-10.07578706 55.5662363 -17.39056964 55.79233815 -26 55 C-29.30127037 54.07315998 -32.06089774 52.74642308 -35 51 C-36.051875 50.443125 -37.10375 49.88625 -38.1875 49.3125 C-44.54409992 44.08596229 -48.50018711 36.90514042 -49.3359375 28.703125 C-49.45858678 17.86092896 -47.61479583 9.79840332 -40.0625 1.7578125 C-28.25235017 -8.30765611 -12.70442765 -8.46961843 0 0 Z M-35 14.625 C-37.24955751 19.96769909 -38.13047015 25.49231262 -36.31640625 31.12109375 C-33.6767831 36.91512132 -30.21802694 40.22161669 -24.625 43.3125 C-18.41288572 44.93948231 -13.46862008 44.48464226 -7.89453125 41.40625 C-3.40370807 38.07285547 -0.03274883 33.53020342 1 28 C1.79872838 21.34393021 -0.26820371 16.40152422 -4 11 C-8.03076687 6.82959917 -12.22807574 5.65390323 -17.9375 5.3125 C-25.36154414 5.63201582 -30.53415306 8.76357589 -35 14.625 Z " fill="#4C5051" transform="translate(172,229)"/>
<path d="M0 0 C7.89857731 6.49438579 12.13878194 12.96356765 13.6875 23.0625 C14.30503169 31.60283184 12.15133342 39.95456457 6.6171875 46.5625 C-0.17571848 53.14956034 -7.48808052 56.59297334 -17 56.625 C-27.55926118 56.40339956 -33.31501113 54.06845212 -41.015625 46.7265625 C-47.42579424 39.60159022 -48.5648525 31.97882835 -48.4609375 22.69921875 C-47.76462938 14.07494533 -43.75183567 6.90710427 -37.1875 1.3125 C-25.12012652 -6.26731897 -12.6132392 -6.67759722 0 0 Z M-31.1875 12.3125 C-35.7306329 18.13702936 -37.02064484 23.072354 -36.1875 30.3125 C-34.0509962 37.16152075 -30.03841007 41.18436549 -23.8125 44.625 C-17.67576868 46.23223916 -12.59416712 45.85329085 -7.08203125 42.765625 C-2.19154199 39.01456932 0.88778412 33.82032743 1.875 27.75 C2.06861298 23.11135557 1.32255822 19.25345129 -1.1875 15.3125 C-6.02401629 10.20948179 -9.69676076 7.17168889 -16.8125 6.9375 C-22.85980382 6.99550771 -26.73474103 8.19235676 -31.1875 12.3125 Z " fill="#4C5051" transform="translate(48.1875,227.6875)"/>
<path d="M0 0 C6.0440456 5.07229975 9.75573252 11.0028592 11.1875 18.8125 C12.01644257 29.38151774 10.93741509 36.93167356 4 45.125 C-1.66488035 51.06666604 -7.6568387 54.41641015 -15.9140625 55.05078125 C-26.98217943 55.2839234 -34.95380604 53.45685981 -43.125 45.73046875 C-48.98062365 39.07511872 -51.12871793 30.64801243 -50.75 21.9375 C-49.79654869 13.24684606 -46.19132226 6.2226979 -39.7734375 0.28125 C-27.97323399 -8.55714944 -11.86508691 -8.61842134 0 0 Z M-34.5625 12.6875 C-38.35521217 17.95515579 -39.33419911 22.15924335 -38.4140625 28.50390625 C-36.97897249 34.01129712 -34.12900909 37.78562291 -29.6875 41.25 C-25.07598512 43.75625809 -21.00249281 44.47051695 -15.8125 43.8125 C-8.9707742 41.61157718 -5.0191562 37.70041807 -1.5 31.5 C0.17562871 24.94981506 -0.27523306 19.45426774 -3.60546875 13.53515625 C-6.19656956 9.83717742 -9.69980389 7.52733442 -13.8125 5.8125 C-22.98906292 4.71335737 -28.11221263 5.94401775 -34.5625 12.6875 Z " fill="#4C5051" transform="translate(313.8125,229.1875)"/>
<path d="M0 0 C-0.57634139 4.75481646 -2.55068521 7.97048212 -5 12 C-5.52207031 11.6390625 -6.04414062 11.278125 -6.58203125 10.90625 C-12.75781754 7.01258439 -17.75537145 5.98597734 -25 7 C-30.28923987 8.76307996 -32.80008936 11.61155112 -36 16 C-37.63614885 20.90844654 -37.49525341 25.87785852 -37 31 C-35.43559628 34.51662056 -35.43559628 34.51662056 -33 37 C-32.38125 37.7425 -31.7625 38.485 -31.125 39.25 C-27.56632843 42.18067071 -24.14498611 42.87277932 -19.625 43.375 C-15.66299206 42.96513711 -13.28086185 41.86127946 -9.89453125 39.875 C-8 39 -8 39 -4 39 C0 45.625 0 45.625 0 49 C-1.58074564 49.81752303 -3.16471223 50.62881997 -4.75 51.4375 C-5.63171875 51.88996094 -6.5134375 52.34242188 -7.421875 52.80859375 C-14.42151611 56.04327638 -22.49113576 56.03327292 -29.8125 53.75 C-38.10544293 50.55360814 -45.15718357 44.6222417 -48.9375 36.4375 C-51.72811671 27.59473331 -51.0913772 17.33304354 -47.12109375 9.0078125 C-43.15960494 1.9130207 -37.16121929 -2.23948415 -29.75 -5.375 C-18.66359319 -7.22273447 -9.44042436 -6.29361624 0 0 Z " fill="#4C5051" transform="translate(119,229)"/>
</svg>
