<svg xmlns="http://www.w3.org/2000/svg" width="118" height="41" viewBox="0 0 118 41">
  <g id="Group_1099" data-name="Group 1099" transform="translate(-248 -88)">
    <g id="Rectangle_888" data-name="Rectangle 888" transform="translate(248 88)" fill="#fff" stroke="#b2b2b2" stroke-width="1">
      <rect width="118" height="41" rx="20.5" stroke="none"/>
      <rect x="0.5" y="0.5" width="117" height="40" rx="20" fill="none"/>
    </g>
    <g id="Group_974" data-name="Group 974" transform="translate(-1)">
      <g id="Group_973" data-name="Group 973" transform="translate(9 7)">
        <text id="Powered_by" data-name="Powered by" transform="translate(315 94)" fill="#413c3c" font-size="10" font-family="Lato-Regular, Lato"><tspan x="-25" y="0">Powered by</tspan></text>
        <g id="Opayo-by-Elavon" transform="translate(177.98 -52.15)">
          <g id="Group_972" data-name="Group 972" transform="translate(94.02 146.149)">
            <path id="Path_2532" data-name="Path 2532" d="M97.164,148.353a9.062,9.062,0,1,1-3.144,6.9v-.079a9.934,9.934,0,0,1,.246-2.01A9.076,9.076,0,0,1,97.164,148.353Zm5.3.769a6.142,6.142,0,1,0,4.071,1.023,6.14,6.14,0,0,0-4.071-1.023Z" transform="translate(-94.02 -146.149)" fill="#0c2074"/>
            <path id="Path_2533" data-name="Path 2533" d="M218.711,178.606a6.063,6.063,0,0,1,4.268.347,5.97,5.97,0,0,1,2.452,2.2,6.883,6.883,0,0,1,1.031,3.812,6.28,6.28,0,0,1-2.31,4.984,6.108,6.108,0,0,1-3.791,1.258,5.176,5.176,0,0,1-3.921-1.589v7.055h-2.63V178.516h2.629v1.475A5.179,5.179,0,0,1,218.711,178.606Zm.7,2.282a3.53,3.53,0,0,0-2.182,1.281,4.389,4.389,0,0,0-.868,3.135,3.726,3.726,0,0,0,5.877,2.776,3.707,3.707,0,0,0,1.5-2.411,4.7,4.7,0,0,0-.234-2.475,3.7,3.7,0,0,0-1.624-1.9,3.811,3.811,0,0,0-2.474-.4h0Z" transform="translate(-194.042 -173.053)" fill="#0c2074"/>
            <path id="Path_2534" data-name="Path 2534" d="M302.128,179.708a5.941,5.941,0,0,1,5.547-1.035,5.009,5.009,0,0,1,2.1,1.365c.012-.5,0-.99,0-1.5h2.639v12.532h-2.56c0-.5.008-.99,0-1.485a5.059,5.059,0,0,1-2.342,1.419,6.424,6.424,0,0,1-3.692-.127,5.744,5.744,0,0,1-2.715-1.944,6.378,6.378,0,0,1-1.256-3.215,7.382,7.382,0,0,1,.4-3.353A6.192,6.192,0,0,1,302.128,179.708Zm3.3,1.218a3.546,3.546,0,0,0-1.868,1.023,4.179,4.179,0,0,0-1.1,2.913,3.979,3.979,0,0,0,.964,2.725,3.812,3.812,0,0,0,4.875.525,3.7,3.7,0,0,0,1.447-2.236,4.8,4.8,0,0,0-.147-2.541,3.553,3.553,0,0,0-4.169-2.408Z" transform="translate(-265.842 -173.069)" fill="#0c2074"/>
            <path id="Path_2535" data-name="Path 2535" d="M466.9,178.407a6.416,6.416,0,1,1-4.309,2.439A6.415,6.415,0,0,1,466.9,178.407Zm0,2.5a3.952,3.952,0,1,0,3.6,1.117A3.953,3.953,0,0,0,466.9,180.9Z" transform="translate(-400.644 -173.045)" fill="#0c2074"/>
            <path id="Path_2536" data-name="Path 2536" d="M384.85,179.31h2.777c1.145,2.545,2.3,5.086,3.434,7.636-.355.977-.777,1.936-1.155,2.909a.945.945,0,0,1-.165.315c-.356-.85-.759-1.682-1.13-2.525C387.36,184.866,386.091,182.094,384.85,179.31Z" transform="translate(-336.855 -173.838)" fill="#0c2074"/>
            <path id="Path_2537" data-name="Path 2537" d="M407.4,180.841c.215-.523.411-1.055.642-1.571.964.012,1.927,0,2.891,0-1.1,2.774-2.229,5.537-3.339,8.307q-1.98,4.919-3.961,9.841H400.75Q404.062,189.128,407.4,180.841Z" transform="translate(-350.132 -173.804)" fill="#0c2074"/>
          </g>
        </g>
      </g>
      <path id="lock-circle-svgrepo-com" d="M12,22a7,7,0,0,0,5-11.894V7A5,5,0,0,0,7,7v3.106A7,7,0,0,0,12,22Zm1-6.277V18a1,1,0,0,1-2,0V15.723a2,2,0,1,1,2,0ZM9,7a3,3,0,0,1,6,0V8.683a6.93,6.93,0,0,0-6,0Z" transform="translate(255.995 97)" fill="#0c2074"/>
    </g>
  </g>
</svg>
