<svg xmlns="http://www.w3.org/2000/svg" width="35.435" height="35.435" viewBox="0 0 35.435 35.435">
  <g id="halal" transform="translate(-4.951 -4.815)">
    <path id="Path_1611" data-name="Path 1611" d="M37.6,55.186V52.732h-.449v1.017H35.928V52.732h-.449v2.454h.449V54.138h1.227v1.047ZM39.639,52.7l1.017,2.454h-.479L40,54.707H38.8l-.18.449h-.509L39.13,52.7Zm.18,1.646L39.37,53.3l-.449,1.047ZM41.165,52.7v2.454h1.706v-.419H41.614V52.672h-.449Zm3.082,0h.509l1.017,2.454h-.509l-.18-.449h-1.2l-.18.449H43.2Zm.269.6-.449,1.047h.868Zm1.765-.6v2.454h1.706v-.419H46.731V52.672h-.449Zm5.147-5.326a.524.524,0,0,0-.449-.3,5.938,5.938,0,0,1-2.035-.987c-.987-.628-1.945-1.227-2.753-1.047a1.215,1.215,0,0,0-.778.658.523.523,0,1,0,.9.539v-.03c.06-.12.12-.12.15-.15.359-.09,1.257.479,1.915.9a10.308,10.308,0,0,0,1.586.9A5.7,5.7,0,0,1,46.731,48.9a4.01,4.01,0,0,1-2.6-.509c-.419-.419-.09-3.082.239-4.489.12-.449.419-1.676.509-1.885a.556.556,0,0,0-.3-.688.543.543,0,0,0-.688.3c-.269.928-.479,1.765-.509,1.975A10.891,10.891,0,0,1,42.6,45.76a22.662,22.662,0,0,0-2.783-3.351.531.531,0,0,0-.688.808,23.24,23.24,0,0,1,2.932,3.621,4.117,4.117,0,0,1-1.915,2.035,1.756,1.756,0,0,1-1.287-.209.519.519,0,0,0-.569.868,2.788,2.788,0,0,0,2.184.329A4.744,4.744,0,0,0,42.9,47.5a2.666,2.666,0,0,0,.449,1.616c.569.628,1.706.838,3.441.838.958-.06,3.351-.359,4.608-2.065a.506.506,0,0,0,.03-.509Zm-13.2-5.536a.524.524,0,0,0-1.047.03c.06,3.74-.269,5.685-1.107,6.553a1.871,1.871,0,0,1-1.5.539,1.049,1.049,0,0,1-.9-.329c-.329-.449-.06-1.406.06-1.706a.531.531,0,0,0-.987-.389,3.218,3.218,0,0,0,.06,2.663,1.97,1.97,0,0,0,1.765.778,3,3,0,0,0,2.244-.868C38.053,47.854,38.262,45.311,38.232,41.84Z" transform="translate(-19.291 -25.568)" fill="#060606"/>
    <g id="Group_776" data-name="Group 776" transform="translate(4.951 4.815)">
      <path id="Path_1612" data-name="Path 1612" d="M22.668,40.25A17.717,17.717,0,1,1,40.386,22.532,17.738,17.738,0,0,1,22.668,40.25Zm0-34.388a16.67,16.67,0,1,0,16.67,16.67A16.689,16.689,0,0,0,22.668,5.862Z" transform="translate(-4.951 -4.815)" fill="#060606"/>
    </g>
    <g id="Group_777" data-name="Group 777" transform="translate(7.624 7.488)">
      <path id="Path_1613" data-name="Path 1613" d="M28.928,43.837A15.045,15.045,0,1,1,43.973,28.792,15.062,15.062,0,0,1,28.928,43.837Zm0-29.042a14,14,0,1,0,14,14A14.013,14.013,0,0,0,28.928,14.794Z" transform="translate(-13.883 -13.747)" fill="#060606"/>
    </g>
  </g>
</svg>
