<svg xmlns="http://www.w3.org/2000/svg" xmlns:xlink="http://www.w3.org/1999/xlink" width="218" height="67.395" viewBox="0 0 218 67.395">
  <defs>
    <pattern id="pattern" preserveAspectRatio="none" width="100%" height="100%" viewBox="0 0 138 65">
      <image width="138" height="65" xlink:href="Layer_x0020_1-image.png"/>
    </pattern>
    <pattern id="pattern-2" preserveAspectRatio="none" width="100%" height="100%" viewBox="0 0 441 74">
      <image width="441" height="74" xlink:href="Layer_x0020_1-image2.png"/>
    </pattern>
  </defs>
  <g id="Layer_x0020_1" transform="translate(0 -22.12)">
    <g id="_785211216" transform="translate(0 22.12)">
      <g id="Group_914" data-name="Group 914" transform="translate(165.969 34.705)">
        <rect id="Rectangle_831" data-name="Rectangle 831" width="52.031" height="24.423" fill="url(#pattern)"/>
      </g>
      <path id="Path_2522" data-name="Path 2522" d="M328.738,1135.932h-2.353c-.541,0-.641.4-.641.7,0,.6,1.5,2.094,1.5,4.147,0,2.089-.8,2.842-.8,3.489,0,.248.248.442.6.442h1.04c2.341,0,4.981-8.775.653-8.775Zm4.53,13.044c0-3.225,6.2-2.924,9.761-.494a2.129,2.129,0,0,0,.945.4c.5,0,.8-.2.8-.9v-1.631a1.218,1.218,0,0,0-.757-1.286c-6.438-2.68-15.062-1.237-15.062,5.745,0,7.881,12.485,6.246,12.485,10.517,0,3.407-5.905,3.767-10.154.5a1.472,1.472,0,0,0-.946-.4c-.493,0-.784.2-.784.9v1.931a1.261,1.261,0,0,0,.739,1.287c5.493,2.478,15.612,2.532,15.612-6.587,0-7.832-12.645-6.05-12.645-9.967Zm10.766-3.907c.013.007.044.018.083.033C344.09,1145.092,344.062,1145.081,344.034,1145.068Zm.162.064.086.034Zm-134.583-1.508a15.112,15.112,0,0,0-7.107,2.234l-.1-1.141a.578.578,0,0,0-.6-.6h-4.627a.564.564,0,0,0-.5.6v21.09a.561.561,0,0,0,.5.6h4.771a.58.58,0,0,0,.606-.6V1148.8a10.436,10.436,0,0,1,4.623-1.551c3.292,0,3.49,2,3.49,3.689v14.87a.561.561,0,0,0,.488.6h4.781a.58.58,0,0,0,.6-.6v-15.371c0-4.03-2.144-6.813-6.922-6.813Zm91.233.365a7.583,7.583,0,0,0-2.195-.248c-2.755,0-4.986,2.282-5.933,3.667l-.1-2.671a.573.573,0,0,0-.593-.594H287.41a.554.554,0,0,0-.494.594v21.01a.559.559,0,0,0,.494.6h4.764a.578.578,0,0,0,.593-.6v-13.376c0-4.265,4.048-4.416,6.74-3.875a7.7,7.7,0,0,0,1.676.356.71.71,0,0,0,.652-.692v-3.128a1.112,1.112,0,0,0-.989-1.043Zm0,0,.231.055Zm-18.791.152h-4.749a.557.557,0,0,0-.5.594v14.421c0,3.224-.983,4.958-4.069,4.958-2.526,0-4.017-1.431-4.017-3.766v-15.613a.571.571,0,0,0-.593-.594h-4.758a.556.556,0,0,0-.5.594V1159.2c0,5.547,4.955,7.636,9.867,7.636,4.961,0,9.91-2.089,9.91-8.229v-13.876a.575.575,0,0,0-.594-.594Zm-93.28-8.422c-2.177,0-3.222,1.291-3.222,2.778a2.933,2.933,0,0,0,3.222,2.98,2.859,2.859,0,0,0,3.126-2.98C191.9,1137.01,190.854,1135.72,188.774,1135.72Zm2.429,8.483h-4.759a.555.555,0,0,0-.5.587v21.017a.558.558,0,0,0,.5.6H191.2a.571.571,0,0,0,.59-.6V1144.79A.569.569,0,0,0,191.2,1144.2Zm57.242,20.092a5.028,5.028,0,0,1-2.673-.547,1.378,1.378,0,0,1-.7-1.282v-13.393a6.362,6.362,0,0,1,3.821-1.532c4.5,0,4.966,5.853,4.966,7.925,0,5.561-2.247,8.828-5.418,8.828Zm3.134-20.422a9.892,9.892,0,0,0-6.5,2.525v-9.865a.574.574,0,0,0-.6-.592h-4.753a.553.553,0,0,0-.489.592v25.583a2.7,2.7,0,0,0,.894,2.278,12.773,12.773,0,0,0,7.923,2.574c6.545,0,11.852-5.049,11.852-12.69,0-5.941-3.22-10.4-8.326-10.4Zm-107.267-1.182c0-2.289,2.185-3.823,4.954-3.823a10.263,10.263,0,0,1,6.35,2.281,2.364,2.364,0,0,0,1.342.645c.536,0,.684-.348.684-.8v-2.877a.815.815,0,0,0-.539-.894,23.99,23.99,0,0,0-7.929-1.283c-6.6,0-10.164,4.067-10.164,8.672,0,10.017,15.456,7.939,15.456,14.722,0,4.114-5.938,6.99-12.829,2.185-.648-.442-.94-.7-1.389-.7-.84,0-.989.441-.989.9v2.52a.977.977,0,0,0,.589.992c8.328,3.92,20.178,1.634,20.178-8.322,0-9.166-15.715-8.576-15.715-14.222Zm31.527,18.837c0,.645-1.684,2.369-3.974,2.369-2.622,0-3.614-1.874-3.614-3.757,0-2.682,2.082-5.165,7.588-5.165v6.553Zm-3.279-17.946a18.932,18.932,0,0,0-7.725,1.536,1.306,1.306,0,0,0-.744,1.2v2.226a.944.944,0,0,0,.838.992c.594,0,1.039-.547,1.334-.75a10.451,10.451,0,0,1,6.1-2.084c3.027,0,3.472,1.984,3.472,4.417,0,1.143-.4,1.435-4.71,1.984-2.633.354-8.628,1.529-8.628,6.937,0,4.464,3.566,6.841,7.734,6.841a8.651,8.651,0,0,0,5.747-2.378l.11,1.29a.549.549,0,0,0,.491.589h4.511a.571.571,0,0,0,.595-.589v-15.416c0-4.017-2.132-6.794-9.128-6.794Zm62.286,1.552c.039.015.062.026.077.03Zm-10.93,3.842c0-3.225,6.192-2.924,9.765-.494a2.078,2.078,0,0,0,.945.4c.49,0,.786-.2.786-.9v-1.63a1.221,1.221,0,0,0-.74-1.286c-6.449-2.68-15.065-1.237-15.065,5.745,0,7.881,12.483,6.246,12.483,10.517,0,3.407-5.892,3.767-10.159.5a1.458,1.458,0,0,0-.938-.4c-.5,0-.8.2-.8.895v1.931a1.259,1.259,0,0,0,.756,1.287c5.485,2.478,15.605,2.532,15.605-6.587,0-7.833-12.636-6.05-12.636-9.967Zm99.623-4.834h-2.273a.7.7,0,0,0-.7.546l-4.91,13.381-.294.94-.3-.94-5.049-13.381a.714.714,0,0,0-.787-.546h-5.418a.4.4,0,0,0-.445.446,2.329,2.329,0,0,0,.254.787l9.023,20.866c-.1,3.671-3.575,4.918-7.487,3.823a5.883,5.883,0,0,0-1.536-.3.7.7,0,0,0-.648.688v2.823c0,.5.348.889.987,1.036a6.4,6.4,0,0,0,2.085.257,9.625,9.625,0,0,0,8.626-5.895l9.115-23.451a2.273,2.273,0,0,0,.206-.638.45.45,0,0,0-.451-.446Z" transform="translate(-135.876 -1135.72)" fill="#f29114" fill-rule="evenodd"/>
      <g id="Group_915" data-name="Group 915" transform="translate(0 39.59)">
        <rect id="Rectangle_832" data-name="Rectangle 832" width="167.488" height="27.805" fill="url(#pattern-2)"/>
      </g>
    </g>
  </g>
</svg>
