<svg xmlns="http://www.w3.org/2000/svg" width="32.33" height="39.329" viewBox="0 0 32.33 39.329">
  <g id="Group_920" data-name="Group 920" transform="translate(0.85 0.866)">
    <path id="Path_2526" data-name="Path 2526" d="M168.4,84.71l8.959,6.125a1.711,1.711,0,0,0,1.942,0l8.932-6.124a13.5,13.5,0,0,0,5.395-10.3V62.023a1.7,1.7,0,0,0-.927-1.56l-13.642-6.71a1.707,1.707,0,0,0-1.519,0l-13.616,6.691A1.7,1.7,0,0,0,163,62V74.416A13.5,13.5,0,0,0,168.4,84.71Zm-1.924-21.622,11.838-5.841L190.149,63.1V74.416a10.014,10.014,0,0,1-3.88,7.423L178.29,87.3l-7.947-5.456a10.009,10.009,0,0,1-3.871-7.424Zm0,0" transform="translate(-162.996 -53.574)" stroke="#fdedec" stroke-width="1.7"/>
    <path id="Path_2527" data-name="Path 2527" d="M205.544,126.007a1.735,1.735,0,0,0,1.23.521h0a1.74,1.74,0,0,0,1.229-.514l6.913-6.915a1.738,1.738,0,1,0-2.457-2.46l-5.678,5.677-2.27-2.292a1.739,1.739,0,1,0-2.47,2.448Zm0,0" transform="translate(-193.168 -102.542)" stroke="#fdedec" stroke-width="1.7"/>
  </g>
</svg>
