<svg id="shopping-cart-empty-side-view" xmlns="http://www.w3.org/2000/svg" width="18.966" height="17.85" viewBox="0 0 18.966 17.85">
  <path id="Path_12" data-name="Path 12" d="M18.857,16.553a.608.608,0,0,0-.473-.26L6.619,15.786A.609.609,0,0,0,6.566,17l10.968.473L15.378,24.2h-9.6L4.047,14.762a.608.608,0,0,0-.376-.456L.831,13.19a.609.609,0,0,0-.445,1.133l2.525.992,1.764,9.607a.609.609,0,0,0,.6.5h.293L4.9,27.277a.507.507,0,0,0,.477.679h.469a1.826,1.826,0,1,0,2.714,0h3.98a1.825,1.825,0,1,0,2.714,0h.57a.507.507,0,1,0,0-1.014H6.1l.548-1.521h9.177A.608.608,0,0,0,16.4,25l2.536-7.911A.607.607,0,0,0,18.857,16.553ZM7.2,29.984a.811.811,0,1,1,.811-.811A.812.812,0,0,1,7.2,29.984Zm6.694,0a.811.811,0,1,1,.811-.811A.812.812,0,0,1,13.895,29.984Z" transform="translate(0 -13.148)"/>
</svg>
