<svg xmlns="http://www.w3.org/2000/svg" width="16.686" height="15.714" viewBox="0 0 16.686 15.714">
  <g id="shopping-cart-empty-side-view" transform="translate(0.121 0.121)">
    <path id="Path_12" data-name="Path 12" d="M16.367,16.1a.528.528,0,0,0-.411-.226l-10.212-.44A.528.528,0,0,0,5.7,16.493l9.52.41-1.872,5.84H5.018l-1.5-8.194a.528.528,0,0,0-.326-.4L.721,13.185a.528.528,0,0,0-.386.983l2.192.861,1.532,8.338a.528.528,0,0,0,.52.433h.254l-.58,1.611A.44.44,0,0,0,4.666,26h.407a1.585,1.585,0,1,0,2.355,0h3.455a1.584,1.584,0,1,0,2.355,0h.495a.44.44,0,1,0,0-.88H5.292l.475-1.32h7.966a.528.528,0,0,0,.5-.367l2.2-6.867A.527.527,0,0,0,16.367,16.1ZM6.25,27.761a.7.7,0,1,1,.7-.7A.7.7,0,0,1,6.25,27.761Zm5.81,0a.7.7,0,1,1,.7-.7A.7.7,0,0,1,12.06,27.761Z" transform="translate(0 -13.148)" fill="#fff" stroke="#fff" stroke-width="0.2"/>
  </g>
</svg>
