<svg xmlns="http://www.w3.org/2000/svg" width="24.416" height="20.067" viewBox="0 0 24.416 20.067">
  <path id="twitter" d="M24.276,46.152a.531.531,0,0,0-.637-.113,4.534,4.534,0,0,1-.678.245,4.777,4.777,0,0,0,.807-1.553.531.531,0,0,0-.817-.571,11.157,11.157,0,0,1-2.554,1,5.342,5.342,0,0,0-6.693-.517,5.268,5.268,0,0,0-2.293,4.867,12.569,12.569,0,0,1-8.8-4.741.549.549,0,0,0-.451-.2.531.531,0,0,0-.425.259,5.138,5.138,0,0,0-.586,3.988,5.68,5.68,0,0,0,.923,1.929,2.818,2.818,0,0,1-.539-.345.531.531,0,0,0-.865.412,5.489,5.489,0,0,0,2.828,4.713,3.936,3.936,0,0,1-.684-.146.531.531,0,0,0-.637.726A5.793,5.793,0,0,0,6.192,59.4a9.352,9.352,0,0,1-5.6,1.153.523.523,0,0,0-.566.363.531.531,0,0,0,.244.626,15.908,15.908,0,0,0,7.845,2.229,13.474,13.474,0,0,0,7.446-2.277c4.207-2.792,6.829-7.8,6.464-12.29A9.916,9.916,0,0,0,24.333,46.8.531.531,0,0,0,24.276,46.152Z" transform="translate(0 -43.702)" fill="#fff"/>
</svg>
