<?xml version="1.0" encoding="UTF-8"?>
<svg version="1.1" xmlns="http://www.w3.org/2000/svg" width="329" height="248">
<path d="M0 0 C25.74 0 51.48 0 78 0 C78 6.6 78 13.2 78 20 C59.52 20 41.04 20 22 20 C22 28.58 22 37.16 22 46 C39.82 46 57.64 46 76 46 C76 52.27 76 58.54 76 65 C58.18 65 40.36 65 22 65 C22 73.58 22 82.16 22 91 C40.48 91 58.96 91 78 91 C78 97.27 78 103.54 78 110 C52.26 110 26.52 110 0 110 C0 73.7 0 37.4 0 0 Z " fill="#80BB44" transform="translate(1,137)"/>
<path d="M0 0 C0.84691406 0.67482422 0.84691406 0.67482422 1.7109375 1.36328125 C2.0409375 -0.28671875 2.3709375 -1.93671875 2.7109375 -3.63671875 C9.9709375 -3.63671875 17.2309375 -3.63671875 24.7109375 -3.63671875 C24.7109375 23.09328125 24.7109375 49.82328125 24.7109375 77.36328125 C17.4509375 77.36328125 10.1909375 77.36328125 2.7109375 77.36328125 C2.3809375 75.38328125 2.0509375 73.40328125 1.7109375 71.36328125 C0.94910156 71.86988281 0.94910156 71.86988281 0.171875 72.38671875 C-0.51648438 72.83273438 -1.20484375 73.27875 -1.9140625 73.73828125 C-2.58695312 74.17914063 -3.25984375 74.62 -3.953125 75.07421875 C-10.23112085 78.53866462 -16.02705754 78.72880557 -23.0390625 78.73828125 C-23.9775 78.76277344 -24.9159375 78.78726563 -25.8828125 78.8125 C-37.66663525 78.86132799 -46.4730369 73.92782057 -55.2890625 66.36328125 C-62.89686617 58.65917627 -66.90587404 48.00732589 -67.3515625 37.296875 C-67.10901616 25.91235608 -63.43792235 15.38281854 -55.5390625 6.98828125 C-41.2158576 -6.10955441 -16.93228362 -12.10687174 0 0 Z M-37.49609375 18.578125 C-42.37214379 23.43292863 -45.39294809 29.07106661 -45.6015625 35.98828125 C-45.49782403 42.46722014 -43.82641698 47.47226895 -39.5234375 52.375 C-34.00899666 57.55292969 -28.82860711 59.96999852 -21.3515625 60.80078125 C-14.74732525 60.52777144 -7.78841882 57.11260181 -3.2890625 52.36328125 C1.5191276 45.35744194 2.93145737 38.76743237 1.7109375 30.36328125 C-0.13791171 23.62244594 -4.74878392 19.36830191 -10.2890625 15.36328125 C-19.62540719 10.35353532 -29.52612461 12.10351933 -37.49609375 18.578125 Z " fill="#81BA44" transform="translate(152.2890625,169.63671875)"/>
<path d="M0 0 C6.27 0 12.54 0 19 0 C19.01458252 2.19454834 19.02916504 4.38909668 19.04418945 6.65014648 C19.09467966 13.92653574 19.16129968 21.20271423 19.23571491 28.47889614 C19.28031322 32.88752325 19.31959214 37.29606019 19.34643555 41.70483398 C19.37257425 45.96495682 19.41305015 50.2247307 19.46318626 54.48463631 C19.47978388 56.10435689 19.49134218 57.72413772 19.49761391 59.3439312 C19.48102763 75.17823898 19.48102763 75.17823898 27.29296875 88.4921875 C33.45136087 93.93186566 39.38477943 94.7067255 47.5234375 94.4453125 C55.1863894 93.46376585 60.80938969 89.98708147 65.74609375 84.13671875 C70.84461435 75.44858552 70.47407409 66.78627195 70.51171875 57.03125 C70.52858372 55.38357215 70.54673638 53.73590702 70.56611633 52.08825684 C70.61342538 47.77457659 70.64335777 43.46094795 70.66955566 39.14709473 C70.69945808 34.73598035 70.74595493 30.32504346 70.79101562 25.9140625 C70.87683137 17.27611458 70.94273691 8.63818444 71 0 C76.94 0 82.88 0 89 0 C89 36.3 89 72.6 89 110 C83.06 110 77.12 110 71 110 C71 107.36 71 104.72 71 102 C70.32195312 102.47050781 69.64390625 102.94101563 68.9453125 103.42578125 C57.08735056 111.35846216 46.00129617 114.17950207 31.6875 111.34375 C20.98080739 108.175443 12.21265305 101.24342289 6.59375 91.58203125 C0.06258228 79.03231653 -0.14724255 66.94759352 -0.09765625 53.125 C-0.09578836 51.58943732 -0.09436621 50.05387404 -0.09336853 48.51831055 C-0.08957256 44.50049153 -0.0797676 40.48270936 -0.06866455 36.46490479 C-0.05838726 32.35551451 -0.05385744 28.24611821 -0.04882812 24.13671875 C-0.03814238 16.09112714 -0.02056963 8.04557242 0 0 Z " fill="#00141D" transform="translate(0,1)"/>
<path d="M0 0 C5.61 0 11.22 0 17 0 C17.495 18.315 17.495 18.315 18 37 C21.3 35.02 24.6 33.04 28 31 C40.37773679 26.26908618 53.65516762 26.88774654 65.76953125 32.21875 C76.16266661 37.96610596 82.44431436 46.58851163 86.25 57.625 C88.95088574 69.98581041 86.94027908 82.0111743 80.484375 92.77734375 C73.72360464 102.90070778 65.36904602 108.62844363 53.6640625 111.9453125 C43.17557107 113.95158568 33.08697096 112.94000717 23.90234375 107.31640625 C21.89469069 105.92712682 19.94002644 104.48202465 18 103 C17.67 105.31 17.34 107.62 17 110 C11.39 110 5.78 110 0 110 C0 73.7 0 37.4 0 0 Z M21.40625 54.90625 C16.98671629 61.48644463 15.99392833 68.15264101 17 76 C19.26665427 83.77486787 23.49785574 89.7474342 30.5625 93.8125 C36.98348245 97.25111972 43.50044378 98.24498999 50.59765625 96.28125 C60.07321466 92.73684806 64.59590134 88.33543528 68.859375 79.19140625 C71.20836031 72.61907405 70.95420032 66.7089296 68.375 60.25 C64.69451016 53.09349199 60.2523361 48.24184687 52.83984375 44.88671875 C40.52364428 41.04108288 29.27812285 44.95501452 21.40625 54.90625 Z " fill="#00141C" transform="translate(102,1)"/>
<path d="M0 0 C5.86427692 4.5494688 9.13615433 9.79930432 11 17 C11.02470115 18.66648361 11.02789517 20.33356679 11 22 C7.39625537 22.14500644 3.79325758 22.23396763 0.1875 22.3125 C-0.83666016 22.35439453 -1.86082031 22.39628906 -2.91601562 22.43945312 C-5.69403751 22.48499447 -8.26261793 22.48094646 -11 22 C-13.01171875 19.62109375 -13.01171875 19.62109375 -14 17 C-20.61844429 12.03616678 -25.91514278 11.35413409 -34 12 C-37.57533195 13.03118431 -37.57533195 13.03118431 -40 15 C-40.67537421 17.0541318 -40.67537421 17.0541318 -41 19 C-34.09071883 24.10011777 -27.49034307 25.48383666 -19.125 27 C-6.51394935 29.30021284 3.49550341 31.86937926 11.75 42.1875 C14.43147524 48.2208193 14.71371209 53.95490287 12.5 60.1875 C8.18125396 69.52770331 1.35667703 73.39440152 -8 77 C-13.30401916 78.76800639 -18.94861233 78.26992801 -24.5 78.3125 C-25.72976563 78.34150391 -26.95953125 78.37050781 -28.2265625 78.40039062 C-39.90885263 78.48100091 -49.23991207 75.92777554 -58 68 C-62.18118593 63.81881407 -64.22491053 58.57075952 -66 53 C-66 52.01 -66 51.02 -66 50 C-62.41728224 49.8256041 -58.83565398 49.71912342 -55.25 49.625 C-54.23421875 49.57472656 -53.2184375 49.52445313 -52.171875 49.47265625 C-49.33106788 49.41658769 -46.7853113 49.43075808 -44 50 C-41.5234375 52.87890625 -41.5234375 52.87890625 -40 56 C-34.32052169 60.5262218 -26.77760886 61.53358175 -19.7265625 60.74609375 C-15.46433574 59.86671239 -12.46931676 58.65029434 -10 55 C-10.10980544 52.93059868 -10.10980544 52.93059868 -11 51 C-18.22306061 47.52443319 -26.15440093 46.44427228 -33.98046875 44.98242188 C-45.01319298 42.81653129 -54.53950003 39.84265575 -62 31 C-65.51349871 24.96287373 -65.5933033 18.68518869 -64 12 C-60.97998973 4.70164184 -55.29128443 -0.95709031 -48.14453125 -4.359375 C-32.30018842 -10.2609116 -14.18046554 -10.00813626 0 0 Z " fill="#81BB44" transform="translate(315,170)"/>
<path d="M0 0 C10.39268559 7.18420547 14.58832993 16.94164965 17 29 C17 33.62 17 38.24 17 43 C-3.79 43.33 -24.58 43.66 -46 44 C-41.40091894 53.19816213 -39.01997506 57.10386054 -30.75 61.875 C-23.21273174 64.13618048 -16.22590439 63.8942022 -9.1484375 60.35546875 C-5.39606009 57.98805973 -2.17707533 55.08184963 1 52 C5.98012761 53.50912958 9.24259942 56.55661849 13 60 C11.80007988 65.87329322 8.10372856 69.47105712 3.25 72.6875 C-7.78813546 79.08016318 -20.20147398 80.17724443 -32.6640625 77.9140625 C-43.57456419 74.92453393 -53.46127572 69.31563013 -59.51953125 59.55078125 C-65.40059066 48.48354264 -67.1141181 36.02507982 -63.9375 23.75 C-59.96970464 12.69160739 -52.88203555 3.89012945 -42.27734375 -1.34375 C-28.90984622 -6.85612012 -12.64500581 -7.77550047 0 0 Z M-43 19 C-44.32 22.3 -45.64 25.6 -47 29 C-31.82 29 -16.64 29 -1 29 C-2.13159032 22.21045808 -3.87874802 18.4138414 -9.3125 14.25 C-20.99845925 6.5173759 -33.82629493 9.29704271 -43 19 Z " fill="#00141C" transform="translate(260,34)"/>
<path d="M0 0 C7.26 0 14.52 0 22 0 C22 7.59 22 15.18 22 23 C29.92 23 37.84 23 46 23 C46 29.27 46 35.54 46 42 C38.08 42 30.16 42 22 42 C22.09689518 47.3572836 22.19959854 52.71378594 22.31738281 58.07055664 C22.35567995 59.89307824 22.39053155 61.71567563 22.421875 63.53833008 C22.46750979 66.15733941 22.52550622 68.77582674 22.5859375 71.39453125 C22.59748871 72.21025101 22.60903992 73.02597076 22.62094116 73.8664093 C22.72197274 77.73364504 22.8077319 79.71159785 25 83 C27.67130932 83.95478711 30.28934186 84.16685904 33.109375 84.31640625 C33.78967773 84.35451416 34.46998047 84.39262207 35.17089844 84.43188477 C36.02200195 84.47498779 36.87310547 84.51809082 37.75 84.5625 C40.4725 84.706875 43.195 84.85125 46 85 C46 91.27 46 97.54 46 104 C42.01601366 104.06930904 38.03358611 104.12890491 34.04931641 104.16479492 C32.03663752 104.18709408 30.02415416 104.22523653 28.01171875 104.26367188 C13.14368391 104.37574249 13.14368391 104.37574249 6.9765625 99.3515625 C0.25278969 90.76223423 -0.16503417 82.28496249 -0.09765625 71.6875 C-0.0962413 70.83317383 -0.09482635 69.97884766 -0.09336853 69.09863281 C-0.08781962 66.39905127 -0.07527697 63.69955601 -0.0625 61 C-0.05747839 59.15755329 -0.05291664 57.31510527 -0.04882812 55.47265625 C-0.03786699 50.98173814 -0.02063825 46.49088364 0 42 C-4.95 42 -9.9 42 -15 42 C-15 35.73 -15 29.46 -15 23 C-10.05 23 -5.1 23 0 23 C0 15.41 0 7.82 0 0 Z " fill="#83BC43" transform="translate(199,143)"/>
<path d="M0 0 C5.61 0 11.22 0 17 0 C17.33 1.98 17.66 3.96 18 6 C18.54269531 5.65066406 19.08539063 5.30132812 19.64453125 4.94140625 C20.35996094 4.48636719 21.07539063 4.03132813 21.8125 3.5625 C22.52019531 3.11003906 23.22789062 2.65757813 23.95703125 2.19140625 C29.5642743 -1.07859209 35.70060815 -0.06237022 42 0 C42 5.28 42 10.56 42 16 C34.3125 17.25 34.3125 17.25 31.91918945 17.61425781 C27.31750411 18.42183643 24.24327883 19.42362767 21 23 C17.885694 29.63639262 17.53240229 35.45216441 17.48828125 42.71875 C17.47033005 43.81723267 17.45237885 44.91571533 17.43388367 46.04748535 C17.38000803 49.53161868 17.3459574 53.01561679 17.3125 56.5 C17.27930692 58.87241455 17.24481544 61.24481132 17.20898438 63.6171875 C17.12429435 69.41136043 17.05737448 75.20549482 17 81 C11.39 81 5.78 81 0 81 C0 54.27 0 27.54 0 0 Z " fill="#00151C" transform="translate(287,30)"/>
</svg>
