<svg width="13" height="10" viewBox="0 0 13 10" fill="none" xmlns="http://www.w3.org/2000/svg">
<path d="M11.5811 1.99815C10.9963 1.99815 10.5222 2.47223 10.5222 3.05702C10.5222 3.33552 10.6322 3.58664 10.8077 3.77565L8.90985 5.65113L6.59385 2.07723C7.04516 1.95572 7.37883 1.54798 7.37883 1.05847C7.37883 0.474073 6.90476 0 6.31996 0C5.73517 0 5.26109 0.474073 5.26109 1.05847C5.26109 1.54798 5.59477 1.95572 6.04608 2.07723L3.73008 5.65113L1.83223 3.77565C2.00773 3.58664 2.11769 3.33552 2.11769 3.05702C2.11769 2.47223 1.64362 1.99815 1.05882 1.99815C0.474024 1.99815 0 2.47223 0 3.05702C0 3.64182 0.474073 4.11589 1.05887 4.11589V10H6.31999H11.5811V4.11589C12.1659 4.11589 12.64 3.64182 12.64 3.05702C12.64 2.47223 12.1659 1.99815 11.5811 1.99815Z" fill="black"/>
</svg>
